%TF.GenerationSoftware,KiCad,Pcbnew,7.0.2*%
%TF.CreationDate,2023-06-29T18:38:04+09:00*%
%TF.ProjectId,laserpointer,6c617365-7270-46f6-996e-7465722e6b69,rev?*%
%TF.SameCoordinates,Original*%
%TF.FileFunction,Copper,L1,Top*%
%TF.FilePolarity,Positive*%
%FSLAX46Y46*%
G04 Gerber Fmt 4.6, Leading zero omitted, Abs format (unit mm)*
G04 Created by KiCad (PCBNEW 7.0.2) date 2023-06-29 18:38:04*
%MOMM*%
%LPD*%
G01*
G04 APERTURE LIST*
%TA.AperFunction,ComponentPad*%
%ADD10C,2.000000*%
%TD*%
%TA.AperFunction,ComponentPad*%
%ADD11C,1.600000*%
%TD*%
%TA.AperFunction,ComponentPad*%
%ADD12O,1.600000X1.600000*%
%TD*%
%TA.AperFunction,ComponentPad*%
%ADD13R,1.800000X1.800000*%
%TD*%
%TA.AperFunction,ComponentPad*%
%ADD14C,1.800000*%
%TD*%
%TA.AperFunction,Conductor*%
%ADD15C,0.500000*%
%TD*%
G04 APERTURE END LIST*
D10*
%TO.P,SW1,1,1*%
%TO.N,SW*%
X145850000Y-79100000D03*
X145850000Y-72600000D03*
%TO.P,SW1,2,2*%
%TO.N,GND*%
X150350000Y-79100000D03*
X150350000Y-72600000D03*
%TD*%
D11*
%TO.P,330,1*%
%TO.N,GND*%
X120720000Y-69910000D03*
D12*
%TO.P,330,2*%
%TO.N,Net-(D1-K)*%
X120720000Y-80070000D03*
%TD*%
D11*
%TO.P,REF\u002A\u002A,1*%
%TO.N,+5V*%
X113060000Y-78890000D03*
%TO.P,REF\u002A\u002A,2*%
%TO.N,LED*%
X113060000Y-76350000D03*
%TO.P,REF\u002A\u002A,3*%
%TO.N,SW*%
X113060000Y-73810000D03*
%TO.P,REF\u002A\u002A,4*%
%TO.N,GND*%
X113060000Y-71270000D03*
%TD*%
%TO.P,10k,1*%
%TO.N,SW*%
X125180000Y-69000000D03*
D12*
%TO.P,10k,2*%
%TO.N,+5V*%
X125180000Y-81700000D03*
%TD*%
D13*
%TO.P,D1,1,K*%
%TO.N,Net-(D1-K)*%
X135750000Y-75850000D03*
D14*
%TO.P,D1,2,A*%
%TO.N,LED*%
X138290000Y-75850000D03*
%TD*%
D15*
%TO.N,Net-(D1-K)*%
X123120000Y-75850000D02*
X135750000Y-75850000D01*
X120720000Y-80070000D02*
X120720000Y-78250000D01*
X120720000Y-78250000D02*
X123120000Y-75850000D01*
%TO.N,LED*%
X124050000Y-72060000D02*
X124210000Y-72060000D01*
X124210000Y-72060000D02*
X124240000Y-72030000D01*
X119760000Y-76350000D02*
X124050000Y-72060000D01*
X136220000Y-72030000D02*
X138290000Y-74100000D01*
X113060000Y-76350000D02*
X119760000Y-76350000D01*
X138290000Y-74100000D02*
X138290000Y-75850000D01*
X124240000Y-72030000D02*
X136220000Y-72030000D01*
%TD*%
%TA.AperFunction,Conductor*%
%TO.N,SW*%
G36*
X162792539Y-63120185D02*
G01*
X162838294Y-63172989D01*
X162849500Y-63224500D01*
X162849500Y-86975500D01*
X162829815Y-87042539D01*
X162777011Y-87088294D01*
X162725500Y-87099500D01*
X98974500Y-87099500D01*
X98907461Y-87079815D01*
X98861706Y-87027011D01*
X98850500Y-86975500D01*
X98850500Y-81699999D01*
X123874531Y-81699999D01*
X123894364Y-81926689D01*
X123953261Y-82146497D01*
X124049432Y-82352735D01*
X124179953Y-82539140D01*
X124340859Y-82700046D01*
X124527264Y-82830567D01*
X124527265Y-82830567D01*
X124527266Y-82830568D01*
X124733504Y-82926739D01*
X124953308Y-82985635D01*
X125104436Y-82998856D01*
X125179999Y-83005468D01*
X125179999Y-83005467D01*
X125180000Y-83005468D01*
X125406692Y-82985635D01*
X125626496Y-82926739D01*
X125832734Y-82830568D01*
X126019139Y-82700047D01*
X126180047Y-82539139D01*
X126310568Y-82352734D01*
X126406739Y-82146496D01*
X126465635Y-81926692D01*
X126485468Y-81700000D01*
X126465635Y-81473308D01*
X126406739Y-81253504D01*
X126310568Y-81047266D01*
X126213852Y-80909139D01*
X126180046Y-80860859D01*
X126019140Y-80699953D01*
X125832735Y-80569432D01*
X125626497Y-80473261D01*
X125406689Y-80414364D01*
X125179999Y-80394531D01*
X124953310Y-80414364D01*
X124733502Y-80473261D01*
X124527264Y-80569432D01*
X124340859Y-80699953D01*
X124179953Y-80860859D01*
X124049432Y-81047264D01*
X123953261Y-81253502D01*
X123894364Y-81473310D01*
X123874531Y-81699999D01*
X98850500Y-81699999D01*
X98850500Y-78890000D01*
X111754531Y-78890000D01*
X111774364Y-79116689D01*
X111833261Y-79336497D01*
X111929432Y-79542735D01*
X112059953Y-79729140D01*
X112220859Y-79890046D01*
X112407264Y-80020567D01*
X112407265Y-80020567D01*
X112407266Y-80020568D01*
X112613504Y-80116739D01*
X112833308Y-80175635D01*
X113060000Y-80195468D01*
X113286692Y-80175635D01*
X113506496Y-80116739D01*
X113712734Y-80020568D01*
X113899139Y-79890047D01*
X114060047Y-79729139D01*
X114190568Y-79542734D01*
X114286739Y-79336496D01*
X114345635Y-79116692D01*
X114365468Y-78890000D01*
X114345635Y-78663308D01*
X114286739Y-78443504D01*
X114190568Y-78237266D01*
X114185563Y-78230117D01*
X114060046Y-78050859D01*
X113899140Y-77889953D01*
X113712733Y-77759431D01*
X113654725Y-77732382D01*
X113602285Y-77686210D01*
X113583133Y-77619017D01*
X113603348Y-77552135D01*
X113654725Y-77507618D01*
X113712734Y-77480568D01*
X113899139Y-77350047D01*
X114060047Y-77189139D01*
X114085086Y-77153377D01*
X114139664Y-77109752D01*
X114186663Y-77100500D01*
X119696294Y-77100500D01*
X119714264Y-77101809D01*
X119718320Y-77102402D01*
X119738023Y-77105289D01*
X119787368Y-77100972D01*
X119798176Y-77100500D01*
X119800100Y-77100500D01*
X119803709Y-77100500D01*
X119834550Y-77096894D01*
X119838031Y-77096539D01*
X119912797Y-77089999D01*
X119912797Y-77089998D01*
X119914052Y-77089889D01*
X119933062Y-77085674D01*
X119934250Y-77085241D01*
X119934255Y-77085241D01*
X120004820Y-77059557D01*
X120008095Y-77058419D01*
X120079334Y-77034814D01*
X120079336Y-77034812D01*
X120080536Y-77034415D01*
X120098063Y-77025929D01*
X120099112Y-77025238D01*
X120099117Y-77025237D01*
X120161806Y-76984005D01*
X120164798Y-76982099D01*
X120228656Y-76942712D01*
X120228656Y-76942711D01*
X120229729Y-76942050D01*
X120244824Y-76929753D01*
X120245692Y-76928832D01*
X120245696Y-76928830D01*
X120297185Y-76874253D01*
X120299631Y-76871735D01*
X124352035Y-72819330D01*
X124397309Y-72790489D01*
X124404218Y-72787974D01*
X124446620Y-72780500D01*
X135857770Y-72780500D01*
X135924809Y-72800185D01*
X135945451Y-72816819D01*
X137503181Y-74374549D01*
X137536666Y-74435872D01*
X137539500Y-74462230D01*
X137539500Y-74598802D01*
X137519815Y-74665841D01*
X137491663Y-74696654D01*
X137477512Y-74707669D01*
X137338213Y-74816089D01*
X137329863Y-74825160D01*
X137269975Y-74861148D01*
X137200137Y-74859046D01*
X137142522Y-74819520D01*
X137122455Y-74784510D01*
X137093796Y-74707669D01*
X137007546Y-74592454D01*
X136892331Y-74506204D01*
X136757483Y-74455909D01*
X136697873Y-74449500D01*
X136694550Y-74449500D01*
X134805439Y-74449500D01*
X134805420Y-74449500D01*
X134802128Y-74449501D01*
X134798848Y-74449853D01*
X134798840Y-74449854D01*
X134742515Y-74455909D01*
X134607669Y-74506204D01*
X134492454Y-74592454D01*
X134406204Y-74707668D01*
X134355909Y-74842516D01*
X134350909Y-74889026D01*
X134349500Y-74902127D01*
X134349500Y-74905448D01*
X134349500Y-74905449D01*
X134349500Y-74975500D01*
X134329815Y-75042539D01*
X134277011Y-75088294D01*
X134225500Y-75099500D01*
X123183707Y-75099500D01*
X123165738Y-75098191D01*
X123141977Y-75094711D01*
X123092631Y-75099028D01*
X123081824Y-75099500D01*
X123076291Y-75099500D01*
X123072730Y-75099916D01*
X123072715Y-75099917D01*
X123045501Y-75103098D01*
X123041916Y-75103464D01*
X122965961Y-75110109D01*
X122946921Y-75114330D01*
X122875232Y-75140421D01*
X122871831Y-75141603D01*
X122799474Y-75165580D01*
X122781927Y-75174075D01*
X122718221Y-75215975D01*
X122715181Y-75217912D01*
X122650280Y-75257944D01*
X122635164Y-75270257D01*
X122582831Y-75325726D01*
X122580319Y-75328312D01*
X120234358Y-77674272D01*
X120220727Y-77686053D01*
X120201468Y-77700391D01*
X120169635Y-77738328D01*
X120162338Y-77746292D01*
X120160972Y-77747657D01*
X120160950Y-77747681D01*
X120158409Y-77750223D01*
X120156173Y-77753050D01*
X120156171Y-77753053D01*
X120139176Y-77774546D01*
X120136902Y-77777337D01*
X120087894Y-77835744D01*
X120077418Y-77852187D01*
X120045192Y-77921294D01*
X120043622Y-77924536D01*
X120009393Y-77992692D01*
X120002996Y-78011098D01*
X119987573Y-78085788D01*
X119986793Y-78089305D01*
X119969208Y-78163506D01*
X119967229Y-78182882D01*
X119969447Y-78259128D01*
X119969499Y-78262733D01*
X119969499Y-78943336D01*
X119949814Y-79010375D01*
X119916626Y-79044909D01*
X119880858Y-79069955D01*
X119719953Y-79230860D01*
X119589432Y-79417264D01*
X119493261Y-79623502D01*
X119434364Y-79843310D01*
X119414531Y-80070000D01*
X119434364Y-80296689D01*
X119493261Y-80516497D01*
X119589432Y-80722735D01*
X119719953Y-80909140D01*
X119880859Y-81070046D01*
X120067264Y-81200567D01*
X120067265Y-81200567D01*
X120067266Y-81200568D01*
X120273504Y-81296739D01*
X120493308Y-81355635D01*
X120720000Y-81375468D01*
X120946692Y-81355635D01*
X121166496Y-81296739D01*
X121372734Y-81200568D01*
X121559139Y-81070047D01*
X121720047Y-80909139D01*
X121850568Y-80722734D01*
X121946739Y-80516496D01*
X122005635Y-80296692D01*
X122025468Y-80070000D01*
X122005635Y-79843308D01*
X121946739Y-79623504D01*
X121850568Y-79417266D01*
X121794013Y-79336497D01*
X121720046Y-79230860D01*
X121589185Y-79099999D01*
X144344858Y-79099999D01*
X144365386Y-79347732D01*
X144426413Y-79588721D01*
X144526268Y-79816370D01*
X144626563Y-79969882D01*
X144626564Y-79969882D01*
X145324070Y-79272375D01*
X145326884Y-79285915D01*
X145396442Y-79420156D01*
X145499638Y-79530652D01*
X145628819Y-79609209D01*
X145680002Y-79623549D01*
X144979942Y-80323609D01*
X144979942Y-80323610D01*
X145026766Y-80360055D01*
X145245393Y-80478368D01*
X145480506Y-80559083D01*
X145725707Y-80600000D01*
X145974293Y-80600000D01*
X146219493Y-80559083D01*
X146454606Y-80478368D01*
X146673233Y-80360053D01*
X146720056Y-80323609D01*
X146021568Y-79625121D01*
X146138458Y-79574349D01*
X146255739Y-79478934D01*
X146342928Y-79355415D01*
X146373354Y-79269802D01*
X147073434Y-79969882D01*
X147173730Y-79816369D01*
X147273586Y-79588721D01*
X147334613Y-79347732D01*
X147355141Y-79099999D01*
X148844356Y-79099999D01*
X148864891Y-79347816D01*
X148864891Y-79347819D01*
X148864892Y-79347821D01*
X148925937Y-79588881D01*
X148970960Y-79691523D01*
X149025825Y-79816604D01*
X149025827Y-79816607D01*
X149161836Y-80024785D01*
X149330256Y-80207738D01*
X149330259Y-80207740D01*
X149526485Y-80360470D01*
X149526487Y-80360471D01*
X149526491Y-80360474D01*
X149745190Y-80478828D01*
X149980386Y-80559571D01*
X150225665Y-80600500D01*
X150474335Y-80600500D01*
X150719614Y-80559571D01*
X150954810Y-80478828D01*
X151173509Y-80360474D01*
X151369744Y-80207738D01*
X151538164Y-80024785D01*
X151674173Y-79816607D01*
X151774063Y-79588881D01*
X151835108Y-79347821D01*
X151855643Y-79100000D01*
X151835108Y-78852179D01*
X151774063Y-78611119D01*
X151674173Y-78383393D01*
X151538164Y-78175215D01*
X151369744Y-77992262D01*
X151280682Y-77922942D01*
X151173514Y-77839529D01*
X151173510Y-77839526D01*
X151173509Y-77839526D01*
X150954810Y-77721172D01*
X150954806Y-77721170D01*
X150954805Y-77721170D01*
X150719615Y-77640429D01*
X150474335Y-77599500D01*
X150225665Y-77599500D01*
X149980384Y-77640429D01*
X149745194Y-77721170D01*
X149745190Y-77721171D01*
X149745190Y-77721172D01*
X149686279Y-77753053D01*
X149526485Y-77839529D01*
X149330259Y-77992259D01*
X149330256Y-77992261D01*
X149330256Y-77992262D01*
X149161836Y-78175215D01*
X149125968Y-78230116D01*
X149025825Y-78383395D01*
X148945984Y-78565416D01*
X148925937Y-78611119D01*
X148891667Y-78746447D01*
X148864891Y-78852183D01*
X148844356Y-79099999D01*
X147355141Y-79099999D01*
X147334613Y-78852267D01*
X147273586Y-78611278D01*
X147173730Y-78383630D01*
X147073434Y-78230116D01*
X146375929Y-78927622D01*
X146373116Y-78914085D01*
X146303558Y-78779844D01*
X146200362Y-78669348D01*
X146071181Y-78590791D01*
X146019997Y-78576450D01*
X146720057Y-77876390D01*
X146720056Y-77876388D01*
X146673235Y-77839947D01*
X146454606Y-77721631D01*
X146219493Y-77640916D01*
X145974293Y-77600000D01*
X145725707Y-77600000D01*
X145480506Y-77640916D01*
X145245393Y-77721631D01*
X145026764Y-77839946D01*
X144979942Y-77876388D01*
X144979942Y-77876390D01*
X145678431Y-78574878D01*
X145561542Y-78625651D01*
X145444261Y-78721066D01*
X145357072Y-78844585D01*
X145326645Y-78930196D01*
X144626564Y-78230117D01*
X144526266Y-78383634D01*
X144426413Y-78611278D01*
X144365386Y-78852267D01*
X144344858Y-79099999D01*
X121589185Y-79099999D01*
X121559139Y-79069953D01*
X121523374Y-79044909D01*
X121479751Y-78990331D01*
X121470500Y-78943336D01*
X121470500Y-78612228D01*
X121490185Y-78545189D01*
X121506814Y-78524552D01*
X123394547Y-76636819D01*
X123455871Y-76603334D01*
X123482229Y-76600500D01*
X134225501Y-76600500D01*
X134292540Y-76620185D01*
X134338295Y-76672989D01*
X134349501Y-76724500D01*
X134349501Y-76797872D01*
X134355909Y-76857483D01*
X134406204Y-76992331D01*
X134492454Y-77107546D01*
X134607669Y-77193796D01*
X134742517Y-77244091D01*
X134802127Y-77250500D01*
X136697872Y-77250499D01*
X136757483Y-77244091D01*
X136892331Y-77193796D01*
X137007546Y-77107546D01*
X137093796Y-76992331D01*
X137122455Y-76915491D01*
X137164325Y-76859559D01*
X137229789Y-76835141D01*
X137298062Y-76849992D01*
X137329864Y-76874840D01*
X137338216Y-76883913D01*
X137521374Y-77026470D01*
X137725497Y-77136936D01*
X137835258Y-77174617D01*
X137945015Y-77212297D01*
X137945017Y-77212297D01*
X137945019Y-77212298D01*
X138173951Y-77250500D01*
X138173952Y-77250500D01*
X138406048Y-77250500D01*
X138406049Y-77250500D01*
X138634981Y-77212298D01*
X138854503Y-77136936D01*
X139058626Y-77026470D01*
X139241784Y-76883913D01*
X139398979Y-76713153D01*
X139525924Y-76518849D01*
X139619157Y-76306300D01*
X139676134Y-76081305D01*
X139695300Y-75850000D01*
X139676134Y-75618695D01*
X139619157Y-75393700D01*
X139525924Y-75181151D01*
X139398979Y-74986847D01*
X139241784Y-74816087D01*
X139088337Y-74696655D01*
X139047525Y-74639945D01*
X139040500Y-74598802D01*
X139040500Y-74163705D01*
X139041809Y-74145735D01*
X139041961Y-74144691D01*
X139045289Y-74121977D01*
X139040972Y-74072629D01*
X139040500Y-74061823D01*
X139040500Y-74059901D01*
X139040500Y-74056291D01*
X139036903Y-74025520D01*
X139036536Y-74021929D01*
X139036021Y-74016046D01*
X139029999Y-73947203D01*
X139029998Y-73947201D01*
X139029889Y-73945949D01*
X139025672Y-73926930D01*
X138999592Y-73855274D01*
X138998408Y-73851868D01*
X138974417Y-73779468D01*
X138965929Y-73761936D01*
X138965237Y-73760884D01*
X138965237Y-73760883D01*
X138923999Y-73698184D01*
X138922087Y-73695181D01*
X138882050Y-73630270D01*
X138869750Y-73615172D01*
X138814290Y-73562848D01*
X138811703Y-73560335D01*
X137851367Y-72599999D01*
X144344858Y-72599999D01*
X144365386Y-72847732D01*
X144426413Y-73088721D01*
X144526268Y-73316370D01*
X144626563Y-73469882D01*
X144626564Y-73469882D01*
X145324070Y-72772375D01*
X145326884Y-72785915D01*
X145396442Y-72920156D01*
X145499638Y-73030652D01*
X145628819Y-73109209D01*
X145680002Y-73123549D01*
X144979942Y-73823609D01*
X144979942Y-73823610D01*
X145026766Y-73860055D01*
X145245393Y-73978368D01*
X145480506Y-74059083D01*
X145725707Y-74100000D01*
X145974293Y-74100000D01*
X146219493Y-74059083D01*
X146454606Y-73978368D01*
X146673233Y-73860053D01*
X146720056Y-73823609D01*
X146021568Y-73125121D01*
X146138458Y-73074349D01*
X146255739Y-72978934D01*
X146342928Y-72855415D01*
X146373354Y-72769802D01*
X147073434Y-73469882D01*
X147173730Y-73316369D01*
X147273586Y-73088721D01*
X147334613Y-72847732D01*
X147355141Y-72600000D01*
X148844356Y-72600000D01*
X148864891Y-72847816D01*
X148864891Y-72847819D01*
X148864892Y-72847821D01*
X148925937Y-73088881D01*
X148956043Y-73157515D01*
X149025825Y-73316604D01*
X149025827Y-73316607D01*
X149161836Y-73524785D01*
X149330256Y-73707738D01*
X149330259Y-73707740D01*
X149526485Y-73860470D01*
X149526487Y-73860471D01*
X149526491Y-73860474D01*
X149745190Y-73978828D01*
X149980386Y-74059571D01*
X150225665Y-74100500D01*
X150474335Y-74100500D01*
X150719614Y-74059571D01*
X150954810Y-73978828D01*
X151173509Y-73860474D01*
X151369744Y-73707738D01*
X151538164Y-73524785D01*
X151674173Y-73316607D01*
X151774063Y-73088881D01*
X151835108Y-72847821D01*
X151855643Y-72600000D01*
X151835108Y-72352179D01*
X151774063Y-72111119D01*
X151674173Y-71883393D01*
X151538164Y-71675215D01*
X151369744Y-71492262D01*
X151338499Y-71467943D01*
X151173514Y-71339529D01*
X151173510Y-71339526D01*
X151173509Y-71339526D01*
X150954810Y-71221172D01*
X150954806Y-71221170D01*
X150954805Y-71221170D01*
X150719615Y-71140429D01*
X150474335Y-71099500D01*
X150225665Y-71099500D01*
X149980384Y-71140429D01*
X149745194Y-71221170D01*
X149526485Y-71339529D01*
X149330259Y-71492259D01*
X149330256Y-71492261D01*
X149330256Y-71492262D01*
X149161837Y-71675214D01*
X149025825Y-71883395D01*
X148952746Y-72050000D01*
X148925937Y-72111119D01*
X148885691Y-72270046D01*
X148864891Y-72352183D01*
X148844356Y-72600000D01*
X147355141Y-72600000D01*
X147355141Y-72599999D01*
X147334613Y-72352267D01*
X147273586Y-72111278D01*
X147173730Y-71883630D01*
X147073434Y-71730116D01*
X146375929Y-72427622D01*
X146373116Y-72414085D01*
X146303558Y-72279844D01*
X146200362Y-72169348D01*
X146071181Y-72090791D01*
X146019995Y-72076449D01*
X146720056Y-71376389D01*
X146720056Y-71376387D01*
X146673235Y-71339947D01*
X146454606Y-71221631D01*
X146219493Y-71140916D01*
X145974293Y-71100000D01*
X145725707Y-71100000D01*
X145480506Y-71140916D01*
X145245393Y-71221631D01*
X145026764Y-71339946D01*
X144979942Y-71376388D01*
X144979941Y-71376389D01*
X145678431Y-72074878D01*
X145561542Y-72125651D01*
X145444261Y-72221066D01*
X145357072Y-72344585D01*
X145326645Y-72430196D01*
X144626564Y-71730117D01*
X144526266Y-71883634D01*
X144426413Y-72111278D01*
X144365386Y-72352267D01*
X144344858Y-72599999D01*
X137851367Y-72599999D01*
X136795728Y-71544360D01*
X136783946Y-71530727D01*
X136769609Y-71511469D01*
X136731666Y-71479631D01*
X136723691Y-71472323D01*
X136722329Y-71470961D01*
X136719777Y-71468409D01*
X136695444Y-71449169D01*
X136692647Y-71446890D01*
X136634251Y-71397890D01*
X136617821Y-71387422D01*
X136548691Y-71355186D01*
X136545447Y-71353615D01*
X136477306Y-71319394D01*
X136458903Y-71312997D01*
X136443992Y-71309918D01*
X136384206Y-71297572D01*
X136380692Y-71296794D01*
X136306490Y-71279208D01*
X136287121Y-71277229D01*
X136210869Y-71279448D01*
X136207263Y-71279500D01*
X124303706Y-71279500D01*
X124285736Y-71278191D01*
X124271853Y-71276157D01*
X124261977Y-71274711D01*
X124261976Y-71274711D01*
X124212634Y-71279028D01*
X124201827Y-71279500D01*
X124196291Y-71279500D01*
X124192730Y-71279916D01*
X124192715Y-71279917D01*
X124165484Y-71283100D01*
X124161900Y-71283466D01*
X124085950Y-71290111D01*
X124066925Y-71294328D01*
X124045233Y-71302224D01*
X124010041Y-71309491D01*
X124009886Y-71309500D01*
X124006291Y-71309500D01*
X124002722Y-71309917D01*
X124002706Y-71309918D01*
X123975487Y-71313099D01*
X123971906Y-71313465D01*
X123895952Y-71320111D01*
X123876926Y-71324329D01*
X123805245Y-71350417D01*
X123801842Y-71351600D01*
X123729474Y-71375580D01*
X123711927Y-71384076D01*
X123648236Y-71425965D01*
X123645196Y-71427902D01*
X123580280Y-71467943D01*
X123565165Y-71480255D01*
X123512848Y-71535708D01*
X123510336Y-71538294D01*
X119485451Y-75563181D01*
X119424128Y-75596666D01*
X119397770Y-75599500D01*
X114186663Y-75599500D01*
X114119624Y-75579815D01*
X114085088Y-75546623D01*
X114060046Y-75510859D01*
X113899140Y-75349953D01*
X113712736Y-75219433D01*
X113705320Y-75215975D01*
X113654132Y-75192105D01*
X113601695Y-75145933D01*
X113582543Y-75078739D01*
X113602759Y-75011858D01*
X113654135Y-74967342D01*
X113712479Y-74940136D01*
X113785472Y-74889025D01*
X113104401Y-74207953D01*
X113185148Y-74195165D01*
X113298045Y-74137641D01*
X113387641Y-74048045D01*
X113445165Y-73935148D01*
X113457953Y-73854400D01*
X114139025Y-74535472D01*
X114190134Y-74462480D01*
X114286266Y-74256326D01*
X114345141Y-74036602D01*
X114364966Y-73810000D01*
X114345141Y-73583397D01*
X114286266Y-73363673D01*
X114190133Y-73157515D01*
X114139025Y-73084526D01*
X113457953Y-73765598D01*
X113445165Y-73684852D01*
X113387641Y-73571955D01*
X113298045Y-73482359D01*
X113185148Y-73424835D01*
X113104400Y-73412046D01*
X113785472Y-72730974D01*
X113785471Y-72730972D01*
X113712485Y-72679867D01*
X113654133Y-72652657D01*
X113601694Y-72606484D01*
X113582543Y-72539290D01*
X113602759Y-72472409D01*
X113654134Y-72427893D01*
X113712734Y-72400568D01*
X113899139Y-72270047D01*
X114060047Y-72109139D01*
X114190568Y-71922734D01*
X114286739Y-71716496D01*
X114345635Y-71496692D01*
X114365468Y-71270000D01*
X114345635Y-71043308D01*
X114286739Y-70823504D01*
X114190568Y-70617266D01*
X114152386Y-70562735D01*
X114060046Y-70430859D01*
X113899140Y-70269953D01*
X113712735Y-70139432D01*
X113506497Y-70043261D01*
X113286689Y-69984364D01*
X113059999Y-69964531D01*
X112833310Y-69984364D01*
X112613502Y-70043261D01*
X112407264Y-70139432D01*
X112220859Y-70269953D01*
X112059953Y-70430859D01*
X111929432Y-70617264D01*
X111833261Y-70823502D01*
X111774364Y-71043310D01*
X111754531Y-71270000D01*
X111774364Y-71496689D01*
X111833261Y-71716497D01*
X111929432Y-71922735D01*
X112059953Y-72109140D01*
X112220859Y-72270046D01*
X112407264Y-72400567D01*
X112407265Y-72400567D01*
X112407266Y-72400568D01*
X112465865Y-72427893D01*
X112518304Y-72474065D01*
X112537456Y-72541259D01*
X112517240Y-72608140D01*
X112465865Y-72652657D01*
X112407517Y-72679865D01*
X112334527Y-72730973D01*
X112334526Y-72730973D01*
X113015600Y-73412046D01*
X112934852Y-73424835D01*
X112821955Y-73482359D01*
X112732359Y-73571955D01*
X112674835Y-73684852D01*
X112662046Y-73765599D01*
X111980973Y-73084526D01*
X111980973Y-73084527D01*
X111929865Y-73157516D01*
X111833733Y-73363672D01*
X111774858Y-73583397D01*
X111755033Y-73810000D01*
X111774858Y-74036602D01*
X111833733Y-74256326D01*
X111929866Y-74462484D01*
X111980972Y-74535471D01*
X111980974Y-74535472D01*
X112662046Y-73854399D01*
X112674835Y-73935148D01*
X112732359Y-74048045D01*
X112821955Y-74137641D01*
X112934852Y-74195165D01*
X113015599Y-74207953D01*
X112334526Y-74889025D01*
X112334526Y-74889026D01*
X112407515Y-74940133D01*
X112465865Y-74967342D01*
X112518304Y-75013514D01*
X112537456Y-75080708D01*
X112517240Y-75147589D01*
X112465866Y-75192105D01*
X112407267Y-75219430D01*
X112220859Y-75349953D01*
X112059953Y-75510859D01*
X111929432Y-75697264D01*
X111833261Y-75903502D01*
X111774364Y-76123310D01*
X111754531Y-76349999D01*
X111774364Y-76576689D01*
X111833261Y-76796497D01*
X111929432Y-77002735D01*
X112059953Y-77189140D01*
X112220859Y-77350046D01*
X112407263Y-77480566D01*
X112407266Y-77480568D01*
X112465275Y-77507618D01*
X112517714Y-77553791D01*
X112536865Y-77620985D01*
X112516649Y-77687866D01*
X112465275Y-77732381D01*
X112444576Y-77742033D01*
X112407263Y-77759433D01*
X112220859Y-77889953D01*
X112059953Y-78050859D01*
X111929432Y-78237264D01*
X111833261Y-78443502D01*
X111774364Y-78663310D01*
X111754531Y-78890000D01*
X98850500Y-78890000D01*
X98850500Y-69909999D01*
X119414531Y-69909999D01*
X119434364Y-70136689D01*
X119493261Y-70356497D01*
X119589432Y-70562735D01*
X119719953Y-70749140D01*
X119880859Y-70910046D01*
X120067264Y-71040567D01*
X120067265Y-71040567D01*
X120067266Y-71040568D01*
X120273504Y-71136739D01*
X120493308Y-71195635D01*
X120644435Y-71208857D01*
X120719999Y-71215468D01*
X120719999Y-71215467D01*
X120720000Y-71215468D01*
X120946692Y-71195635D01*
X121166496Y-71136739D01*
X121372734Y-71040568D01*
X121559139Y-70910047D01*
X121720047Y-70749139D01*
X121850568Y-70562734D01*
X121946739Y-70356496D01*
X122005635Y-70136692D01*
X122025468Y-69910000D01*
X122005635Y-69683308D01*
X121946739Y-69463504D01*
X121850568Y-69257266D01*
X121837110Y-69238045D01*
X121720046Y-69070859D01*
X121649187Y-69000000D01*
X123875033Y-69000000D01*
X123894858Y-69226602D01*
X123953733Y-69446326D01*
X124049866Y-69652484D01*
X124100972Y-69725471D01*
X124100974Y-69725472D01*
X124782046Y-69044399D01*
X124794835Y-69125148D01*
X124852359Y-69238045D01*
X124941955Y-69327641D01*
X125054852Y-69385165D01*
X125135599Y-69397953D01*
X124454526Y-70079025D01*
X124454526Y-70079026D01*
X124527515Y-70130133D01*
X124733673Y-70226266D01*
X124953397Y-70285141D01*
X125180000Y-70304966D01*
X125406602Y-70285141D01*
X125626326Y-70226266D01*
X125832480Y-70130134D01*
X125905472Y-70079025D01*
X125224401Y-69397953D01*
X125305148Y-69385165D01*
X125418045Y-69327641D01*
X125507641Y-69238045D01*
X125565165Y-69125148D01*
X125577953Y-69044400D01*
X126259025Y-69725472D01*
X126310134Y-69652480D01*
X126406266Y-69446326D01*
X126465141Y-69226602D01*
X126484966Y-69000000D01*
X126465141Y-68773397D01*
X126406266Y-68553673D01*
X126310133Y-68347515D01*
X126259025Y-68274526D01*
X125577953Y-68955598D01*
X125565165Y-68874852D01*
X125507641Y-68761955D01*
X125418045Y-68672359D01*
X125305148Y-68614835D01*
X125224400Y-68602046D01*
X125905472Y-67920974D01*
X125905471Y-67920972D01*
X125832484Y-67869866D01*
X125626326Y-67773733D01*
X125406602Y-67714858D01*
X125180000Y-67695033D01*
X124953397Y-67714858D01*
X124733672Y-67773733D01*
X124527516Y-67869865D01*
X124454527Y-67920973D01*
X124454526Y-67920973D01*
X125135600Y-68602046D01*
X125054852Y-68614835D01*
X124941955Y-68672359D01*
X124852359Y-68761955D01*
X124794835Y-68874852D01*
X124782046Y-68955599D01*
X124100973Y-68274526D01*
X124100973Y-68274527D01*
X124049865Y-68347516D01*
X123953733Y-68553672D01*
X123894858Y-68773397D01*
X123875033Y-69000000D01*
X121649187Y-69000000D01*
X121559140Y-68909953D01*
X121372735Y-68779432D01*
X121166497Y-68683261D01*
X120946689Y-68624364D01*
X120719999Y-68604531D01*
X120493310Y-68624364D01*
X120273502Y-68683261D01*
X120067264Y-68779432D01*
X119880859Y-68909953D01*
X119719953Y-69070859D01*
X119589432Y-69257264D01*
X119493261Y-69463502D01*
X119434364Y-69683310D01*
X119414531Y-69909999D01*
X98850500Y-69909999D01*
X98850500Y-63224500D01*
X98870185Y-63157461D01*
X98922989Y-63111706D01*
X98974500Y-63100500D01*
X162725500Y-63100500D01*
X162792539Y-63120185D01*
G37*
%TD.AperFunction*%
%TD*%
M02*
