%TF.GenerationSoftware,KiCad,Pcbnew,7.0.2*%
%TF.CreationDate,2023-06-29T18:38:04+09:00*%
%TF.ProjectId,laserpointer,6c617365-7270-46f6-996e-7465722e6b69,rev?*%
%TF.SameCoordinates,Original*%
%TF.FileFunction,Copper,L2,Bot*%
%TF.FilePolarity,Positive*%
%FSLAX46Y46*%
G04 Gerber Fmt 4.6, Leading zero omitted, Abs format (unit mm)*
G04 Created by KiCad (PCBNEW 7.0.2) date 2023-06-29 18:38:04*
%MOMM*%
%LPD*%
G01*
G04 APERTURE LIST*
%TA.AperFunction,ComponentPad*%
%ADD10C,2.000000*%
%TD*%
%TA.AperFunction,ComponentPad*%
%ADD11C,1.600000*%
%TD*%
%TA.AperFunction,ComponentPad*%
%ADD12O,1.600000X1.600000*%
%TD*%
%TA.AperFunction,ComponentPad*%
%ADD13R,1.800000X1.800000*%
%TD*%
%TA.AperFunction,ComponentPad*%
%ADD14C,1.800000*%
%TD*%
%TA.AperFunction,Conductor*%
%ADD15C,0.500000*%
%TD*%
G04 APERTURE END LIST*
D10*
%TO.P,SW1,1,1*%
%TO.N,SW*%
X145850000Y-79100000D03*
X145850000Y-72600000D03*
%TO.P,SW1,2,2*%
%TO.N,GND*%
X150350000Y-79100000D03*
X150350000Y-72600000D03*
%TD*%
D11*
%TO.P,330,1*%
%TO.N,GND*%
X120720000Y-69910000D03*
D12*
%TO.P,330,2*%
%TO.N,Net-(D1-K)*%
X120720000Y-80070000D03*
%TD*%
D11*
%TO.P,REF\u002A\u002A,1*%
%TO.N,+5V*%
X113060000Y-78890000D03*
%TO.P,REF\u002A\u002A,2*%
%TO.N,LED*%
X113060000Y-76350000D03*
%TO.P,REF\u002A\u002A,3*%
%TO.N,SW*%
X113060000Y-73810000D03*
%TO.P,REF\u002A\u002A,4*%
%TO.N,GND*%
X113060000Y-71270000D03*
%TD*%
%TO.P,10k,1*%
%TO.N,SW*%
X125180000Y-69000000D03*
D12*
%TO.P,10k,2*%
%TO.N,+5V*%
X125180000Y-81700000D03*
%TD*%
D13*
%TO.P,D1,1,K*%
%TO.N,Net-(D1-K)*%
X135750000Y-75850000D03*
D14*
%TO.P,D1,2,A*%
%TO.N,LED*%
X138290000Y-75850000D03*
%TD*%
D15*
%TO.N,+5V*%
X113060000Y-78890000D02*
X115870000Y-81700000D01*
X115870000Y-81700000D02*
X125180000Y-81700000D01*
%TD*%
%TA.AperFunction,Conductor*%
%TO.N,GND*%
G36*
X162792539Y-63120185D02*
G01*
X162838294Y-63172989D01*
X162849500Y-63224500D01*
X162849500Y-86975500D01*
X162829815Y-87042539D01*
X162777011Y-87088294D01*
X162725500Y-87099500D01*
X98974500Y-87099500D01*
X98907461Y-87079815D01*
X98861706Y-87027011D01*
X98850500Y-86975500D01*
X98850500Y-78890000D01*
X111754531Y-78890000D01*
X111774364Y-79116689D01*
X111833261Y-79336497D01*
X111929432Y-79542735D01*
X112059953Y-79729140D01*
X112220859Y-79890046D01*
X112407264Y-80020567D01*
X112407265Y-80020567D01*
X112407266Y-80020568D01*
X112613504Y-80116739D01*
X112833308Y-80175635D01*
X112984435Y-80188856D01*
X113059999Y-80195468D01*
X113059999Y-80195467D01*
X113060000Y-80195468D01*
X113226861Y-80180869D01*
X113295359Y-80194635D01*
X113325348Y-80216716D01*
X115294267Y-82185634D01*
X115306048Y-82199266D01*
X115320389Y-82218529D01*
X115358339Y-82250373D01*
X115366314Y-82257681D01*
X115370223Y-82261590D01*
X115373055Y-82263829D01*
X115373065Y-82263838D01*
X115394542Y-82280819D01*
X115397298Y-82283063D01*
X115454786Y-82331302D01*
X115454788Y-82331303D01*
X115455757Y-82332116D01*
X115472179Y-82342578D01*
X115541320Y-82374819D01*
X115544567Y-82376391D01*
X115612700Y-82410609D01*
X115631088Y-82417000D01*
X115632322Y-82417254D01*
X115632327Y-82417257D01*
X115705829Y-82432432D01*
X115709307Y-82433204D01*
X115756866Y-82444476D01*
X115783502Y-82450790D01*
X115802876Y-82452769D01*
X115804140Y-82452732D01*
X115804144Y-82452733D01*
X115879110Y-82450552D01*
X115882716Y-82450500D01*
X124053337Y-82450500D01*
X124120376Y-82470185D01*
X124154912Y-82503377D01*
X124179953Y-82539140D01*
X124340859Y-82700046D01*
X124527264Y-82830567D01*
X124527265Y-82830567D01*
X124527266Y-82830568D01*
X124733504Y-82926739D01*
X124953308Y-82985635D01*
X125104436Y-82998856D01*
X125179999Y-83005468D01*
X125179999Y-83005467D01*
X125180000Y-83005468D01*
X125406692Y-82985635D01*
X125626496Y-82926739D01*
X125832734Y-82830568D01*
X126019139Y-82700047D01*
X126180047Y-82539139D01*
X126310568Y-82352734D01*
X126406739Y-82146496D01*
X126465635Y-81926692D01*
X126485468Y-81700000D01*
X126465635Y-81473308D01*
X126406739Y-81253504D01*
X126310568Y-81047266D01*
X126242113Y-80949500D01*
X126180046Y-80860859D01*
X126019140Y-80699953D01*
X125832735Y-80569432D01*
X125626497Y-80473261D01*
X125406689Y-80414364D01*
X125179999Y-80394531D01*
X124953310Y-80414364D01*
X124733502Y-80473261D01*
X124527264Y-80569432D01*
X124340859Y-80699953D01*
X124179953Y-80860859D01*
X124154912Y-80896623D01*
X124100336Y-80940248D01*
X124053337Y-80949500D01*
X121929987Y-80949500D01*
X121862948Y-80929815D01*
X121817193Y-80877011D01*
X121807249Y-80807853D01*
X121828411Y-80754378D01*
X121831564Y-80749873D01*
X121850568Y-80722734D01*
X121946739Y-80516496D01*
X122005635Y-80296692D01*
X122025468Y-80070000D01*
X122005635Y-79843308D01*
X121946739Y-79623504D01*
X121850568Y-79417266D01*
X121801881Y-79347732D01*
X121720046Y-79230859D01*
X121589186Y-79099999D01*
X144344356Y-79099999D01*
X144364891Y-79347816D01*
X144364891Y-79347819D01*
X144364892Y-79347821D01*
X144425937Y-79588881D01*
X144470960Y-79691523D01*
X144525825Y-79816604D01*
X144525827Y-79816607D01*
X144661836Y-80024785D01*
X144830256Y-80207738D01*
X144830259Y-80207740D01*
X145026485Y-80360470D01*
X145026487Y-80360471D01*
X145026491Y-80360474D01*
X145245190Y-80478828D01*
X145480386Y-80559571D01*
X145725665Y-80600500D01*
X145974335Y-80600500D01*
X146219614Y-80559571D01*
X146454810Y-80478828D01*
X146673509Y-80360474D01*
X146869744Y-80207738D01*
X147038164Y-80024785D01*
X147174173Y-79816607D01*
X147274063Y-79588881D01*
X147335108Y-79347821D01*
X147355643Y-79100000D01*
X148844858Y-79100000D01*
X148865386Y-79347732D01*
X148926413Y-79588721D01*
X149026268Y-79816370D01*
X149126563Y-79969882D01*
X149126564Y-79969882D01*
X149824070Y-79272375D01*
X149826884Y-79285915D01*
X149896442Y-79420156D01*
X149999638Y-79530652D01*
X150128819Y-79609209D01*
X150180002Y-79623549D01*
X149479942Y-80323609D01*
X149479942Y-80323610D01*
X149526766Y-80360055D01*
X149745393Y-80478368D01*
X149980506Y-80559083D01*
X150225707Y-80600000D01*
X150474293Y-80600000D01*
X150719493Y-80559083D01*
X150954606Y-80478368D01*
X151173233Y-80360053D01*
X151220056Y-80323609D01*
X150521568Y-79625121D01*
X150638458Y-79574349D01*
X150755739Y-79478934D01*
X150842928Y-79355415D01*
X150873354Y-79269802D01*
X151573434Y-79969882D01*
X151673730Y-79816369D01*
X151773586Y-79588721D01*
X151834613Y-79347732D01*
X151855141Y-79099999D01*
X151834613Y-78852267D01*
X151773586Y-78611278D01*
X151673730Y-78383630D01*
X151573434Y-78230116D01*
X150875929Y-78927622D01*
X150873116Y-78914085D01*
X150803558Y-78779844D01*
X150700362Y-78669348D01*
X150571181Y-78590791D01*
X150519996Y-78576449D01*
X151220056Y-77876389D01*
X151220056Y-77876387D01*
X151173235Y-77839947D01*
X150954606Y-77721631D01*
X150719493Y-77640916D01*
X150474293Y-77600000D01*
X150225707Y-77600000D01*
X149980506Y-77640916D01*
X149745393Y-77721631D01*
X149526764Y-77839946D01*
X149479942Y-77876388D01*
X149479942Y-77876390D01*
X150178430Y-78574879D01*
X150061542Y-78625651D01*
X149944261Y-78721066D01*
X149857072Y-78844585D01*
X149826645Y-78930196D01*
X149126564Y-78230117D01*
X149026266Y-78383634D01*
X148926413Y-78611278D01*
X148865386Y-78852267D01*
X148844858Y-79100000D01*
X147355643Y-79100000D01*
X147335108Y-78852179D01*
X147274063Y-78611119D01*
X147174173Y-78383393D01*
X147038164Y-78175215D01*
X146869744Y-77992262D01*
X146738298Y-77889953D01*
X146673514Y-77839529D01*
X146673510Y-77839526D01*
X146673509Y-77839526D01*
X146454810Y-77721172D01*
X146454806Y-77721170D01*
X146454805Y-77721170D01*
X146219615Y-77640429D01*
X145974335Y-77599500D01*
X145725665Y-77599500D01*
X145480384Y-77640429D01*
X145245194Y-77721170D01*
X145026485Y-77839529D01*
X144830259Y-77992259D01*
X144661837Y-78175214D01*
X144525825Y-78383395D01*
X144452746Y-78550000D01*
X144425937Y-78611119D01*
X144383210Y-78779844D01*
X144364891Y-78852183D01*
X144344356Y-79099999D01*
X121589186Y-79099999D01*
X121559140Y-79069953D01*
X121372735Y-78939432D01*
X121166497Y-78843261D01*
X120946689Y-78784364D01*
X120719999Y-78764531D01*
X120493310Y-78784364D01*
X120273502Y-78843261D01*
X120067264Y-78939432D01*
X119880859Y-79069953D01*
X119719953Y-79230859D01*
X119589432Y-79417264D01*
X119493261Y-79623502D01*
X119434364Y-79843310D01*
X119414531Y-80070000D01*
X119434364Y-80296689D01*
X119493261Y-80516497D01*
X119589432Y-80722734D01*
X119611589Y-80754378D01*
X119633916Y-80820584D01*
X119616904Y-80888351D01*
X119565956Y-80936164D01*
X119510013Y-80949500D01*
X116232230Y-80949500D01*
X116165191Y-80929815D01*
X116144549Y-80913181D01*
X114386716Y-79155348D01*
X114353231Y-79094025D01*
X114350869Y-79056863D01*
X114365468Y-78890000D01*
X114345635Y-78663308D01*
X114286739Y-78443504D01*
X114190568Y-78237266D01*
X114185563Y-78230117D01*
X114060046Y-78050859D01*
X113899140Y-77889953D01*
X113712733Y-77759431D01*
X113654725Y-77732382D01*
X113602285Y-77686210D01*
X113583133Y-77619017D01*
X113603348Y-77552135D01*
X113654725Y-77507618D01*
X113712734Y-77480568D01*
X113899139Y-77350047D01*
X114060047Y-77189139D01*
X114190568Y-77002734D01*
X114286739Y-76796496D01*
X114287253Y-76794578D01*
X134349500Y-76794578D01*
X134349501Y-76797872D01*
X134355909Y-76857483D01*
X134406204Y-76992331D01*
X134492454Y-77107546D01*
X134607669Y-77193796D01*
X134742517Y-77244091D01*
X134802127Y-77250500D01*
X136697872Y-77250499D01*
X136757483Y-77244091D01*
X136892331Y-77193796D01*
X137007546Y-77107546D01*
X137093796Y-76992331D01*
X137122455Y-76915491D01*
X137164325Y-76859559D01*
X137229789Y-76835141D01*
X137298062Y-76849992D01*
X137329864Y-76874840D01*
X137338216Y-76883913D01*
X137521374Y-77026470D01*
X137725497Y-77136936D01*
X137835258Y-77174617D01*
X137945015Y-77212297D01*
X137945017Y-77212297D01*
X137945019Y-77212298D01*
X138173951Y-77250500D01*
X138173952Y-77250500D01*
X138406048Y-77250500D01*
X138406049Y-77250500D01*
X138634981Y-77212298D01*
X138854503Y-77136936D01*
X139058626Y-77026470D01*
X139241784Y-76883913D01*
X139398979Y-76713153D01*
X139525924Y-76518849D01*
X139619157Y-76306300D01*
X139676134Y-76081305D01*
X139695300Y-75850000D01*
X139676134Y-75618695D01*
X139619157Y-75393700D01*
X139525924Y-75181151D01*
X139398979Y-74986847D01*
X139241784Y-74816087D01*
X139058626Y-74673530D01*
X138854503Y-74563064D01*
X138854499Y-74563062D01*
X138854498Y-74563062D01*
X138634984Y-74487702D01*
X138444456Y-74455909D01*
X138406049Y-74449500D01*
X138173951Y-74449500D01*
X138135544Y-74455909D01*
X137945015Y-74487702D01*
X137725501Y-74563062D01*
X137521372Y-74673531D01*
X137338213Y-74816089D01*
X137329863Y-74825160D01*
X137269975Y-74861148D01*
X137200137Y-74859046D01*
X137142522Y-74819520D01*
X137122455Y-74784510D01*
X137093796Y-74707669D01*
X137007546Y-74592454D01*
X136892331Y-74506204D01*
X136757483Y-74455909D01*
X136697873Y-74449500D01*
X136694550Y-74449500D01*
X134805439Y-74449500D01*
X134805420Y-74449500D01*
X134802128Y-74449501D01*
X134798848Y-74449853D01*
X134798840Y-74449854D01*
X134742515Y-74455909D01*
X134607669Y-74506204D01*
X134492454Y-74592454D01*
X134406204Y-74707668D01*
X134362383Y-74825160D01*
X134355909Y-74842517D01*
X134349500Y-74902127D01*
X134349500Y-74905448D01*
X134349500Y-74905449D01*
X134349500Y-76794560D01*
X134349500Y-76794578D01*
X114287253Y-76794578D01*
X114345635Y-76576692D01*
X114365468Y-76350000D01*
X114345635Y-76123308D01*
X114286739Y-75903504D01*
X114190568Y-75697266D01*
X114135553Y-75618695D01*
X114060046Y-75510859D01*
X113899140Y-75349953D01*
X113712736Y-75219433D01*
X113654723Y-75192381D01*
X113602284Y-75146208D01*
X113583133Y-75079014D01*
X113603349Y-75012133D01*
X113654721Y-74967619D01*
X113712734Y-74940568D01*
X113899139Y-74810047D01*
X114060047Y-74649139D01*
X114190568Y-74462734D01*
X114286739Y-74256496D01*
X114345635Y-74036692D01*
X114365468Y-73810000D01*
X114345635Y-73583308D01*
X114286739Y-73363504D01*
X114190568Y-73157266D01*
X114185481Y-73150000D01*
X114060046Y-72970859D01*
X113899140Y-72809953D01*
X113712736Y-72679433D01*
X113712730Y-72679430D01*
X113654132Y-72652105D01*
X113601695Y-72605933D01*
X113600004Y-72600000D01*
X144344356Y-72600000D01*
X144364891Y-72847816D01*
X144364891Y-72847819D01*
X144364892Y-72847821D01*
X144425937Y-73088881D01*
X144470960Y-73191523D01*
X144525825Y-73316604D01*
X144525827Y-73316607D01*
X144661836Y-73524785D01*
X144830256Y-73707738D01*
X144830259Y-73707740D01*
X145026485Y-73860470D01*
X145026487Y-73860471D01*
X145026491Y-73860474D01*
X145245190Y-73978828D01*
X145480386Y-74059571D01*
X145725665Y-74100500D01*
X145974335Y-74100500D01*
X146219614Y-74059571D01*
X146454810Y-73978828D01*
X146673509Y-73860474D01*
X146869744Y-73707738D01*
X147038164Y-73524785D01*
X147174173Y-73316607D01*
X147274063Y-73088881D01*
X147335108Y-72847821D01*
X147355643Y-72600000D01*
X147355643Y-72599999D01*
X148844858Y-72599999D01*
X148865386Y-72847732D01*
X148926413Y-73088721D01*
X149026268Y-73316370D01*
X149126563Y-73469882D01*
X149126564Y-73469882D01*
X149824070Y-72772376D01*
X149826884Y-72785915D01*
X149896442Y-72920156D01*
X149999638Y-73030652D01*
X150128819Y-73109209D01*
X150180002Y-73123549D01*
X149479942Y-73823609D01*
X149479942Y-73823610D01*
X149526766Y-73860055D01*
X149745393Y-73978368D01*
X149980506Y-74059083D01*
X150225707Y-74100000D01*
X150474293Y-74100000D01*
X150719493Y-74059083D01*
X150954606Y-73978368D01*
X151173233Y-73860053D01*
X151220056Y-73823609D01*
X150521568Y-73125121D01*
X150638458Y-73074349D01*
X150755739Y-72978934D01*
X150842928Y-72855415D01*
X150873354Y-72769802D01*
X151573434Y-73469882D01*
X151673730Y-73316369D01*
X151773586Y-73088721D01*
X151834613Y-72847732D01*
X151855141Y-72600000D01*
X151834613Y-72352267D01*
X151773586Y-72111278D01*
X151673730Y-71883630D01*
X151573434Y-71730116D01*
X150875929Y-72427622D01*
X150873116Y-72414085D01*
X150803558Y-72279844D01*
X150700362Y-72169348D01*
X150571181Y-72090791D01*
X150519997Y-72076450D01*
X151220057Y-71376390D01*
X151220056Y-71376388D01*
X151173235Y-71339947D01*
X150954606Y-71221631D01*
X150719493Y-71140916D01*
X150474293Y-71100000D01*
X150225707Y-71100000D01*
X149980506Y-71140916D01*
X149745393Y-71221631D01*
X149526764Y-71339946D01*
X149479942Y-71376388D01*
X149479942Y-71376390D01*
X150178431Y-72074878D01*
X150061542Y-72125651D01*
X149944261Y-72221066D01*
X149857072Y-72344585D01*
X149826645Y-72430197D01*
X149126564Y-71730116D01*
X149026266Y-71883634D01*
X148926413Y-72111278D01*
X148865386Y-72352267D01*
X148844858Y-72599999D01*
X147355643Y-72599999D01*
X147335108Y-72352179D01*
X147274063Y-72111119D01*
X147174173Y-71883393D01*
X147038164Y-71675215D01*
X146869744Y-71492262D01*
X146847612Y-71475036D01*
X146673514Y-71339529D01*
X146673510Y-71339526D01*
X146673509Y-71339526D01*
X146454810Y-71221172D01*
X146454806Y-71221170D01*
X146454805Y-71221170D01*
X146219615Y-71140429D01*
X145974335Y-71099500D01*
X145725665Y-71099500D01*
X145480384Y-71140429D01*
X145245194Y-71221170D01*
X145026485Y-71339529D01*
X144830259Y-71492259D01*
X144661837Y-71675214D01*
X144525825Y-71883395D01*
X144452746Y-72050000D01*
X144425937Y-72111119D01*
X144391667Y-72246447D01*
X144364891Y-72352183D01*
X144344356Y-72600000D01*
X113600004Y-72600000D01*
X113582543Y-72538739D01*
X113602759Y-72471858D01*
X113654135Y-72427342D01*
X113712479Y-72400136D01*
X113785472Y-72349025D01*
X113104401Y-71667953D01*
X113185148Y-71655165D01*
X113298045Y-71597641D01*
X113387641Y-71508045D01*
X113445165Y-71395148D01*
X113457953Y-71314399D01*
X114139025Y-71995472D01*
X114190134Y-71922480D01*
X114286266Y-71716326D01*
X114345141Y-71496602D01*
X114364966Y-71269999D01*
X114345141Y-71043397D01*
X114286266Y-70823673D01*
X114190133Y-70617515D01*
X114139025Y-70544526D01*
X113457953Y-71225597D01*
X113445165Y-71144852D01*
X113387641Y-71031955D01*
X113298045Y-70942359D01*
X113185148Y-70884835D01*
X113104400Y-70872046D01*
X113785472Y-70190974D01*
X113785471Y-70190972D01*
X113712484Y-70139866D01*
X113506326Y-70043733D01*
X113286602Y-69984858D01*
X113060000Y-69965033D01*
X112833397Y-69984858D01*
X112613672Y-70043733D01*
X112407516Y-70139865D01*
X112334527Y-70190973D01*
X112334526Y-70190973D01*
X113015600Y-70872046D01*
X112934852Y-70884835D01*
X112821955Y-70942359D01*
X112732359Y-71031955D01*
X112674835Y-71144852D01*
X112662046Y-71225599D01*
X111980973Y-70544526D01*
X111980973Y-70544527D01*
X111929865Y-70617516D01*
X111833733Y-70823672D01*
X111774858Y-71043397D01*
X111755033Y-71269999D01*
X111774858Y-71496602D01*
X111833733Y-71716326D01*
X111929866Y-71922484D01*
X111980972Y-71995471D01*
X111980974Y-71995472D01*
X112662046Y-71314399D01*
X112674835Y-71395148D01*
X112732359Y-71508045D01*
X112821955Y-71597641D01*
X112934852Y-71655165D01*
X113015599Y-71667953D01*
X112334526Y-72349025D01*
X112334526Y-72349026D01*
X112407515Y-72400133D01*
X112465865Y-72427342D01*
X112518304Y-72473514D01*
X112537456Y-72540708D01*
X112517240Y-72607589D01*
X112465866Y-72652105D01*
X112407267Y-72679430D01*
X112220859Y-72809953D01*
X112059953Y-72970859D01*
X111929432Y-73157264D01*
X111833261Y-73363502D01*
X111774364Y-73583310D01*
X111754531Y-73809999D01*
X111774364Y-74036689D01*
X111833261Y-74256497D01*
X111929432Y-74462735D01*
X112059953Y-74649140D01*
X112220859Y-74810046D01*
X112352366Y-74902127D01*
X112407266Y-74940568D01*
X112465275Y-74967618D01*
X112517714Y-75013791D01*
X112536865Y-75080985D01*
X112516649Y-75147866D01*
X112465275Y-75192382D01*
X112407263Y-75219433D01*
X112220859Y-75349953D01*
X112059953Y-75510859D01*
X111929432Y-75697264D01*
X111833261Y-75903502D01*
X111774364Y-76123310D01*
X111754531Y-76349999D01*
X111774364Y-76576689D01*
X111833261Y-76796497D01*
X111929432Y-77002735D01*
X112059953Y-77189140D01*
X112220859Y-77350046D01*
X112407263Y-77480566D01*
X112407266Y-77480568D01*
X112465275Y-77507618D01*
X112517714Y-77553791D01*
X112536865Y-77620985D01*
X112516649Y-77687866D01*
X112465275Y-77732382D01*
X112407263Y-77759433D01*
X112220859Y-77889953D01*
X112059953Y-78050859D01*
X111929432Y-78237264D01*
X111833261Y-78443502D01*
X111774364Y-78663310D01*
X111754531Y-78890000D01*
X98850500Y-78890000D01*
X98850500Y-69910000D01*
X119415033Y-69910000D01*
X119434858Y-70136602D01*
X119493733Y-70356326D01*
X119589866Y-70562484D01*
X119640972Y-70635471D01*
X119640974Y-70635472D01*
X120322046Y-69954399D01*
X120334835Y-70035148D01*
X120392359Y-70148045D01*
X120481955Y-70237641D01*
X120594852Y-70295165D01*
X120675599Y-70307953D01*
X119994526Y-70989025D01*
X119994526Y-70989026D01*
X120067515Y-71040133D01*
X120273673Y-71136266D01*
X120493397Y-71195141D01*
X120719999Y-71214966D01*
X120946602Y-71195141D01*
X121166326Y-71136266D01*
X121372480Y-71040134D01*
X121445472Y-70989025D01*
X120764401Y-70307953D01*
X120845148Y-70295165D01*
X120958045Y-70237641D01*
X121047641Y-70148045D01*
X121105165Y-70035148D01*
X121117953Y-69954400D01*
X121799025Y-70635472D01*
X121850134Y-70562480D01*
X121946266Y-70356326D01*
X122005141Y-70136602D01*
X122024966Y-69910000D01*
X122005141Y-69683397D01*
X121946266Y-69463673D01*
X121850133Y-69257515D01*
X121799025Y-69184526D01*
X121117953Y-69865598D01*
X121105165Y-69784852D01*
X121047641Y-69671955D01*
X120958045Y-69582359D01*
X120845148Y-69524835D01*
X120764400Y-69512046D01*
X121276447Y-68999999D01*
X123874531Y-68999999D01*
X123894364Y-69226689D01*
X123953261Y-69446497D01*
X124049432Y-69652735D01*
X124179953Y-69839140D01*
X124340859Y-70000046D01*
X124527264Y-70130567D01*
X124527265Y-70130567D01*
X124527266Y-70130568D01*
X124733504Y-70226739D01*
X124953308Y-70285635D01*
X125104436Y-70298856D01*
X125179999Y-70305468D01*
X125179999Y-70305467D01*
X125180000Y-70305468D01*
X125406692Y-70285635D01*
X125626496Y-70226739D01*
X125832734Y-70130568D01*
X126019139Y-70000047D01*
X126180047Y-69839139D01*
X126310568Y-69652734D01*
X126406739Y-69446496D01*
X126465635Y-69226692D01*
X126485468Y-69000000D01*
X126465635Y-68773308D01*
X126406739Y-68553504D01*
X126310568Y-68347266D01*
X126180047Y-68160861D01*
X126180046Y-68160859D01*
X126019140Y-67999953D01*
X125832735Y-67869432D01*
X125626497Y-67773261D01*
X125406689Y-67714364D01*
X125179999Y-67694531D01*
X124953310Y-67714364D01*
X124733502Y-67773261D01*
X124527264Y-67869432D01*
X124340859Y-67999953D01*
X124179953Y-68160859D01*
X124049432Y-68347264D01*
X123953261Y-68553502D01*
X123894364Y-68773310D01*
X123874531Y-68999999D01*
X121276447Y-68999999D01*
X121445472Y-68830974D01*
X121445471Y-68830972D01*
X121372484Y-68779866D01*
X121166326Y-68683733D01*
X120946602Y-68624858D01*
X120720000Y-68605033D01*
X120493397Y-68624858D01*
X120273672Y-68683733D01*
X120067516Y-68779865D01*
X119994527Y-68830973D01*
X119994526Y-68830973D01*
X120675600Y-69512046D01*
X120594852Y-69524835D01*
X120481955Y-69582359D01*
X120392359Y-69671955D01*
X120334835Y-69784852D01*
X120322046Y-69865599D01*
X119640973Y-69184526D01*
X119640973Y-69184527D01*
X119589865Y-69257516D01*
X119493733Y-69463672D01*
X119434858Y-69683397D01*
X119415033Y-69910000D01*
X98850500Y-69910000D01*
X98850500Y-63224500D01*
X98870185Y-63157461D01*
X98922989Y-63111706D01*
X98974500Y-63100500D01*
X162725500Y-63100500D01*
X162792539Y-63120185D01*
G37*
%TD.AperFunction*%
%TD*%
M02*
