%TF.GenerationSoftware,KiCad,Pcbnew,7.0.2*%
%TF.CreationDate,2023-06-29T18:38:04+09:00*%
%TF.ProjectId,laserpointer,6c617365-7270-46f6-996e-7465722e6b69,rev?*%
%TF.SameCoordinates,Original*%
%TF.FileFunction,Legend,Bot*%
%TF.FilePolarity,Positive*%
%FSLAX46Y46*%
G04 Gerber Fmt 4.6, Leading zero omitted, Abs format (unit mm)*
G04 Created by KiCad (PCBNEW 7.0.2) date 2023-06-29 18:38:04*
%MOMM*%
%LPD*%
G01*
G04 APERTURE LIST*
%ADD10C,0.100000*%
%ADD11C,0.150000*%
G04 APERTURE END LIST*
D10*
X120429523Y-83070000D02*
X120286666Y-83117619D01*
X120286666Y-83117619D02*
X120048571Y-83117619D01*
X120048571Y-83117619D02*
X119953333Y-83070000D01*
X119953333Y-83070000D02*
X119905714Y-83022380D01*
X119905714Y-83022380D02*
X119858095Y-82927142D01*
X119858095Y-82927142D02*
X119858095Y-82831904D01*
X119858095Y-82831904D02*
X119905714Y-82736666D01*
X119905714Y-82736666D02*
X119953333Y-82689047D01*
X119953333Y-82689047D02*
X120048571Y-82641428D01*
X120048571Y-82641428D02*
X120239047Y-82593809D01*
X120239047Y-82593809D02*
X120334285Y-82546190D01*
X120334285Y-82546190D02*
X120381904Y-82498571D01*
X120381904Y-82498571D02*
X120429523Y-82403333D01*
X120429523Y-82403333D02*
X120429523Y-82308095D01*
X120429523Y-82308095D02*
X120381904Y-82212857D01*
X120381904Y-82212857D02*
X120334285Y-82165238D01*
X120334285Y-82165238D02*
X120239047Y-82117619D01*
X120239047Y-82117619D02*
X120000952Y-82117619D01*
X120000952Y-82117619D02*
X119858095Y-82165238D01*
X119477142Y-82831904D02*
X119000952Y-82831904D01*
X119572380Y-83117619D02*
X119239047Y-82117619D01*
X119239047Y-82117619D02*
X118905714Y-83117619D01*
X118572380Y-83117619D02*
X118572380Y-82117619D01*
X118572380Y-82117619D02*
X118239047Y-82831904D01*
X118239047Y-82831904D02*
X117905714Y-82117619D01*
X117905714Y-82117619D02*
X117905714Y-83117619D01*
X117524761Y-82117619D02*
X117286666Y-83117619D01*
X117286666Y-83117619D02*
X117096190Y-82403333D01*
X117096190Y-82403333D02*
X116905714Y-83117619D01*
X116905714Y-83117619D02*
X116667619Y-82117619D01*
X116096190Y-82117619D02*
X115905714Y-82117619D01*
X115905714Y-82117619D02*
X115810476Y-82165238D01*
X115810476Y-82165238D02*
X115715238Y-82260476D01*
X115715238Y-82260476D02*
X115667619Y-82450952D01*
X115667619Y-82450952D02*
X115667619Y-82784285D01*
X115667619Y-82784285D02*
X115715238Y-82974761D01*
X115715238Y-82974761D02*
X115810476Y-83070000D01*
X115810476Y-83070000D02*
X115905714Y-83117619D01*
X115905714Y-83117619D02*
X116096190Y-83117619D01*
X116096190Y-83117619D02*
X116191428Y-83070000D01*
X116191428Y-83070000D02*
X116286666Y-82974761D01*
X116286666Y-82974761D02*
X116334285Y-82784285D01*
X116334285Y-82784285D02*
X116334285Y-82450952D01*
X116334285Y-82450952D02*
X116286666Y-82260476D01*
X116286666Y-82260476D02*
X116191428Y-82165238D01*
X116191428Y-82165238D02*
X116096190Y-82117619D01*
X115048571Y-82117619D02*
X114858095Y-82117619D01*
X114858095Y-82117619D02*
X114762857Y-82165238D01*
X114762857Y-82165238D02*
X114667619Y-82260476D01*
X114667619Y-82260476D02*
X114620000Y-82450952D01*
X114620000Y-82450952D02*
X114620000Y-82784285D01*
X114620000Y-82784285D02*
X114667619Y-82974761D01*
X114667619Y-82974761D02*
X114762857Y-83070000D01*
X114762857Y-83070000D02*
X114858095Y-83117619D01*
X114858095Y-83117619D02*
X115048571Y-83117619D01*
X115048571Y-83117619D02*
X115143809Y-83070000D01*
X115143809Y-83070000D02*
X115239047Y-82974761D01*
X115239047Y-82974761D02*
X115286666Y-82784285D01*
X115286666Y-82784285D02*
X115286666Y-82450952D01*
X115286666Y-82450952D02*
X115239047Y-82260476D01*
X115239047Y-82260476D02*
X115143809Y-82165238D01*
X115143809Y-82165238D02*
X115048571Y-82117619D01*
X120524761Y-83737619D02*
X120191428Y-84737619D01*
X120191428Y-84737619D02*
X119858095Y-83737619D01*
X119572380Y-84451904D02*
X119096190Y-84451904D01*
X119667618Y-84737619D02*
X119334285Y-83737619D01*
X119334285Y-83737619D02*
X119000952Y-84737619D01*
X118096190Y-84737619D02*
X118429523Y-84261428D01*
X118667618Y-84737619D02*
X118667618Y-83737619D01*
X118667618Y-83737619D02*
X118286666Y-83737619D01*
X118286666Y-83737619D02*
X118191428Y-83785238D01*
X118191428Y-83785238D02*
X118143809Y-83832857D01*
X118143809Y-83832857D02*
X118096190Y-83928095D01*
X118096190Y-83928095D02*
X118096190Y-84070952D01*
X118096190Y-84070952D02*
X118143809Y-84166190D01*
X118143809Y-84166190D02*
X118191428Y-84213809D01*
X118191428Y-84213809D02*
X118286666Y-84261428D01*
X118286666Y-84261428D02*
X118667618Y-84261428D01*
X117191428Y-84737619D02*
X117667618Y-84737619D01*
X117667618Y-84737619D02*
X117667618Y-83737619D01*
X116667618Y-83737619D02*
X116477142Y-83737619D01*
X116477142Y-83737619D02*
X116381904Y-83785238D01*
X116381904Y-83785238D02*
X116286666Y-83880476D01*
X116286666Y-83880476D02*
X116239047Y-84070952D01*
X116239047Y-84070952D02*
X116239047Y-84404285D01*
X116239047Y-84404285D02*
X116286666Y-84594761D01*
X116286666Y-84594761D02*
X116381904Y-84690000D01*
X116381904Y-84690000D02*
X116477142Y-84737619D01*
X116477142Y-84737619D02*
X116667618Y-84737619D01*
X116667618Y-84737619D02*
X116762856Y-84690000D01*
X116762856Y-84690000D02*
X116858094Y-84594761D01*
X116858094Y-84594761D02*
X116905713Y-84404285D01*
X116905713Y-84404285D02*
X116905713Y-84070952D01*
X116905713Y-84070952D02*
X116858094Y-83880476D01*
X116858094Y-83880476D02*
X116762856Y-83785238D01*
X116762856Y-83785238D02*
X116667618Y-83737619D01*
X115858094Y-84690000D02*
X115715237Y-84737619D01*
X115715237Y-84737619D02*
X115477142Y-84737619D01*
X115477142Y-84737619D02*
X115381904Y-84690000D01*
X115381904Y-84690000D02*
X115334285Y-84642380D01*
X115334285Y-84642380D02*
X115286666Y-84547142D01*
X115286666Y-84547142D02*
X115286666Y-84451904D01*
X115286666Y-84451904D02*
X115334285Y-84356666D01*
X115334285Y-84356666D02*
X115381904Y-84309047D01*
X115381904Y-84309047D02*
X115477142Y-84261428D01*
X115477142Y-84261428D02*
X115667618Y-84213809D01*
X115667618Y-84213809D02*
X115762856Y-84166190D01*
X115762856Y-84166190D02*
X115810475Y-84118571D01*
X115810475Y-84118571D02*
X115858094Y-84023333D01*
X115858094Y-84023333D02*
X115858094Y-83928095D01*
X115858094Y-83928095D02*
X115810475Y-83832857D01*
X115810475Y-83832857D02*
X115762856Y-83785238D01*
X115762856Y-83785238D02*
X115667618Y-83737619D01*
X115667618Y-83737619D02*
X115429523Y-83737619D01*
X115429523Y-83737619D02*
X115286666Y-83785238D01*
X114858094Y-84356666D02*
X114096190Y-84356666D01*
X113286666Y-84213809D02*
X113619999Y-84213809D01*
X113619999Y-84737619D02*
X113619999Y-83737619D01*
X113619999Y-83737619D02*
X113143809Y-83737619D01*
X112762856Y-84737619D02*
X112762856Y-83737619D01*
X112762856Y-83737619D02*
X112429523Y-84451904D01*
X112429523Y-84451904D02*
X112096190Y-83737619D01*
X112096190Y-83737619D02*
X112096190Y-84737619D01*
X111619999Y-84356666D02*
X110858095Y-84356666D01*
X109858095Y-83785238D02*
X109953333Y-83737619D01*
X109953333Y-83737619D02*
X110096190Y-83737619D01*
X110096190Y-83737619D02*
X110239047Y-83785238D01*
X110239047Y-83785238D02*
X110334285Y-83880476D01*
X110334285Y-83880476D02*
X110381904Y-83975714D01*
X110381904Y-83975714D02*
X110429523Y-84166190D01*
X110429523Y-84166190D02*
X110429523Y-84309047D01*
X110429523Y-84309047D02*
X110381904Y-84499523D01*
X110381904Y-84499523D02*
X110334285Y-84594761D01*
X110334285Y-84594761D02*
X110239047Y-84690000D01*
X110239047Y-84690000D02*
X110096190Y-84737619D01*
X110096190Y-84737619D02*
X110000952Y-84737619D01*
X110000952Y-84737619D02*
X109858095Y-84690000D01*
X109858095Y-84690000D02*
X109810476Y-84642380D01*
X109810476Y-84642380D02*
X109810476Y-84309047D01*
X109810476Y-84309047D02*
X110000952Y-84309047D01*
X109381904Y-84356666D02*
X108620000Y-84356666D01*
X107810476Y-84213809D02*
X107667619Y-84261428D01*
X107667619Y-84261428D02*
X107620000Y-84309047D01*
X107620000Y-84309047D02*
X107572381Y-84404285D01*
X107572381Y-84404285D02*
X107572381Y-84547142D01*
X107572381Y-84547142D02*
X107620000Y-84642380D01*
X107620000Y-84642380D02*
X107667619Y-84690000D01*
X107667619Y-84690000D02*
X107762857Y-84737619D01*
X107762857Y-84737619D02*
X108143809Y-84737619D01*
X108143809Y-84737619D02*
X108143809Y-83737619D01*
X108143809Y-83737619D02*
X107810476Y-83737619D01*
X107810476Y-83737619D02*
X107715238Y-83785238D01*
X107715238Y-83785238D02*
X107667619Y-83832857D01*
X107667619Y-83832857D02*
X107620000Y-83928095D01*
X107620000Y-83928095D02*
X107620000Y-84023333D01*
X107620000Y-84023333D02*
X107667619Y-84118571D01*
X107667619Y-84118571D02*
X107715238Y-84166190D01*
X107715238Y-84166190D02*
X107810476Y-84213809D01*
X107810476Y-84213809D02*
X108143809Y-84213809D01*
X107143809Y-83737619D02*
X107143809Y-84547142D01*
X107143809Y-84547142D02*
X107096190Y-84642380D01*
X107096190Y-84642380D02*
X107048571Y-84690000D01*
X107048571Y-84690000D02*
X106953333Y-84737619D01*
X106953333Y-84737619D02*
X106762857Y-84737619D01*
X106762857Y-84737619D02*
X106667619Y-84690000D01*
X106667619Y-84690000D02*
X106620000Y-84642380D01*
X106620000Y-84642380D02*
X106572381Y-84547142D01*
X106572381Y-84547142D02*
X106572381Y-83737619D01*
X106239047Y-83737619D02*
X105667619Y-83737619D01*
X105953333Y-84737619D02*
X105953333Y-83737619D01*
X105477142Y-83737619D02*
X104905714Y-83737619D01*
X105191428Y-84737619D02*
X105191428Y-83737619D01*
X104381904Y-83737619D02*
X104191428Y-83737619D01*
X104191428Y-83737619D02*
X104096190Y-83785238D01*
X104096190Y-83785238D02*
X104000952Y-83880476D01*
X104000952Y-83880476D02*
X103953333Y-84070952D01*
X103953333Y-84070952D02*
X103953333Y-84404285D01*
X103953333Y-84404285D02*
X104000952Y-84594761D01*
X104000952Y-84594761D02*
X104096190Y-84690000D01*
X104096190Y-84690000D02*
X104191428Y-84737619D01*
X104191428Y-84737619D02*
X104381904Y-84737619D01*
X104381904Y-84737619D02*
X104477142Y-84690000D01*
X104477142Y-84690000D02*
X104572380Y-84594761D01*
X104572380Y-84594761D02*
X104619999Y-84404285D01*
X104619999Y-84404285D02*
X104619999Y-84070952D01*
X104619999Y-84070952D02*
X104572380Y-83880476D01*
X104572380Y-83880476D02*
X104477142Y-83785238D01*
X104477142Y-83785238D02*
X104381904Y-83737619D01*
X103524761Y-84737619D02*
X103524761Y-83737619D01*
X103524761Y-83737619D02*
X102953333Y-84737619D01*
X102953333Y-84737619D02*
X102953333Y-83737619D01*
X120429523Y-85452857D02*
X120381904Y-85405238D01*
X120381904Y-85405238D02*
X120286666Y-85357619D01*
X120286666Y-85357619D02*
X120048571Y-85357619D01*
X120048571Y-85357619D02*
X119953333Y-85405238D01*
X119953333Y-85405238D02*
X119905714Y-85452857D01*
X119905714Y-85452857D02*
X119858095Y-85548095D01*
X119858095Y-85548095D02*
X119858095Y-85643333D01*
X119858095Y-85643333D02*
X119905714Y-85786190D01*
X119905714Y-85786190D02*
X120477142Y-86357619D01*
X120477142Y-86357619D02*
X119858095Y-86357619D01*
X119239047Y-85357619D02*
X119143809Y-85357619D01*
X119143809Y-85357619D02*
X119048571Y-85405238D01*
X119048571Y-85405238D02*
X119000952Y-85452857D01*
X119000952Y-85452857D02*
X118953333Y-85548095D01*
X118953333Y-85548095D02*
X118905714Y-85738571D01*
X118905714Y-85738571D02*
X118905714Y-85976666D01*
X118905714Y-85976666D02*
X118953333Y-86167142D01*
X118953333Y-86167142D02*
X119000952Y-86262380D01*
X119000952Y-86262380D02*
X119048571Y-86310000D01*
X119048571Y-86310000D02*
X119143809Y-86357619D01*
X119143809Y-86357619D02*
X119239047Y-86357619D01*
X119239047Y-86357619D02*
X119334285Y-86310000D01*
X119334285Y-86310000D02*
X119381904Y-86262380D01*
X119381904Y-86262380D02*
X119429523Y-86167142D01*
X119429523Y-86167142D02*
X119477142Y-85976666D01*
X119477142Y-85976666D02*
X119477142Y-85738571D01*
X119477142Y-85738571D02*
X119429523Y-85548095D01*
X119429523Y-85548095D02*
X119381904Y-85452857D01*
X119381904Y-85452857D02*
X119334285Y-85405238D01*
X119334285Y-85405238D02*
X119239047Y-85357619D01*
X118524761Y-85452857D02*
X118477142Y-85405238D01*
X118477142Y-85405238D02*
X118381904Y-85357619D01*
X118381904Y-85357619D02*
X118143809Y-85357619D01*
X118143809Y-85357619D02*
X118048571Y-85405238D01*
X118048571Y-85405238D02*
X118000952Y-85452857D01*
X118000952Y-85452857D02*
X117953333Y-85548095D01*
X117953333Y-85548095D02*
X117953333Y-85643333D01*
X117953333Y-85643333D02*
X118000952Y-85786190D01*
X118000952Y-85786190D02*
X118572380Y-86357619D01*
X118572380Y-86357619D02*
X117953333Y-86357619D01*
X117619999Y-85357619D02*
X117000952Y-85357619D01*
X117000952Y-85357619D02*
X117334285Y-85738571D01*
X117334285Y-85738571D02*
X117191428Y-85738571D01*
X117191428Y-85738571D02*
X117096190Y-85786190D01*
X117096190Y-85786190D02*
X117048571Y-85833809D01*
X117048571Y-85833809D02*
X117000952Y-85929047D01*
X117000952Y-85929047D02*
X117000952Y-86167142D01*
X117000952Y-86167142D02*
X117048571Y-86262380D01*
X117048571Y-86262380D02*
X117096190Y-86310000D01*
X117096190Y-86310000D02*
X117191428Y-86357619D01*
X117191428Y-86357619D02*
X117477142Y-86357619D01*
X117477142Y-86357619D02*
X117572380Y-86310000D01*
X117572380Y-86310000D02*
X117619999Y-86262380D01*
X116572380Y-86262380D02*
X116524761Y-86310000D01*
X116524761Y-86310000D02*
X116572380Y-86357619D01*
X116572380Y-86357619D02*
X116619999Y-86310000D01*
X116619999Y-86310000D02*
X116572380Y-86262380D01*
X116572380Y-86262380D02*
X116572380Y-86357619D01*
X115905714Y-85357619D02*
X115810476Y-85357619D01*
X115810476Y-85357619D02*
X115715238Y-85405238D01*
X115715238Y-85405238D02*
X115667619Y-85452857D01*
X115667619Y-85452857D02*
X115620000Y-85548095D01*
X115620000Y-85548095D02*
X115572381Y-85738571D01*
X115572381Y-85738571D02*
X115572381Y-85976666D01*
X115572381Y-85976666D02*
X115620000Y-86167142D01*
X115620000Y-86167142D02*
X115667619Y-86262380D01*
X115667619Y-86262380D02*
X115715238Y-86310000D01*
X115715238Y-86310000D02*
X115810476Y-86357619D01*
X115810476Y-86357619D02*
X115905714Y-86357619D01*
X115905714Y-86357619D02*
X116000952Y-86310000D01*
X116000952Y-86310000D02*
X116048571Y-86262380D01*
X116048571Y-86262380D02*
X116096190Y-86167142D01*
X116096190Y-86167142D02*
X116143809Y-85976666D01*
X116143809Y-85976666D02*
X116143809Y-85738571D01*
X116143809Y-85738571D02*
X116096190Y-85548095D01*
X116096190Y-85548095D02*
X116048571Y-85452857D01*
X116048571Y-85452857D02*
X116000952Y-85405238D01*
X116000952Y-85405238D02*
X115905714Y-85357619D01*
X114715238Y-85357619D02*
X114905714Y-85357619D01*
X114905714Y-85357619D02*
X115000952Y-85405238D01*
X115000952Y-85405238D02*
X115048571Y-85452857D01*
X115048571Y-85452857D02*
X115143809Y-85595714D01*
X115143809Y-85595714D02*
X115191428Y-85786190D01*
X115191428Y-85786190D02*
X115191428Y-86167142D01*
X115191428Y-86167142D02*
X115143809Y-86262380D01*
X115143809Y-86262380D02*
X115096190Y-86310000D01*
X115096190Y-86310000D02*
X115000952Y-86357619D01*
X115000952Y-86357619D02*
X114810476Y-86357619D01*
X114810476Y-86357619D02*
X114715238Y-86310000D01*
X114715238Y-86310000D02*
X114667619Y-86262380D01*
X114667619Y-86262380D02*
X114620000Y-86167142D01*
X114620000Y-86167142D02*
X114620000Y-85929047D01*
X114620000Y-85929047D02*
X114667619Y-85833809D01*
X114667619Y-85833809D02*
X114715238Y-85786190D01*
X114715238Y-85786190D02*
X114810476Y-85738571D01*
X114810476Y-85738571D02*
X115000952Y-85738571D01*
X115000952Y-85738571D02*
X115096190Y-85786190D01*
X115096190Y-85786190D02*
X115143809Y-85833809D01*
X115143809Y-85833809D02*
X115191428Y-85929047D01*
X114191428Y-86262380D02*
X114143809Y-86310000D01*
X114143809Y-86310000D02*
X114191428Y-86357619D01*
X114191428Y-86357619D02*
X114239047Y-86310000D01*
X114239047Y-86310000D02*
X114191428Y-86262380D01*
X114191428Y-86262380D02*
X114191428Y-86357619D01*
X113762857Y-85452857D02*
X113715238Y-85405238D01*
X113715238Y-85405238D02*
X113620000Y-85357619D01*
X113620000Y-85357619D02*
X113381905Y-85357619D01*
X113381905Y-85357619D02*
X113286667Y-85405238D01*
X113286667Y-85405238D02*
X113239048Y-85452857D01*
X113239048Y-85452857D02*
X113191429Y-85548095D01*
X113191429Y-85548095D02*
X113191429Y-85643333D01*
X113191429Y-85643333D02*
X113239048Y-85786190D01*
X113239048Y-85786190D02*
X113810476Y-86357619D01*
X113810476Y-86357619D02*
X113191429Y-86357619D01*
X112715238Y-86357619D02*
X112524762Y-86357619D01*
X112524762Y-86357619D02*
X112429524Y-86310000D01*
X112429524Y-86310000D02*
X112381905Y-86262380D01*
X112381905Y-86262380D02*
X112286667Y-86119523D01*
X112286667Y-86119523D02*
X112239048Y-85929047D01*
X112239048Y-85929047D02*
X112239048Y-85548095D01*
X112239048Y-85548095D02*
X112286667Y-85452857D01*
X112286667Y-85452857D02*
X112334286Y-85405238D01*
X112334286Y-85405238D02*
X112429524Y-85357619D01*
X112429524Y-85357619D02*
X112620000Y-85357619D01*
X112620000Y-85357619D02*
X112715238Y-85405238D01*
X112715238Y-85405238D02*
X112762857Y-85452857D01*
X112762857Y-85452857D02*
X112810476Y-85548095D01*
X112810476Y-85548095D02*
X112810476Y-85786190D01*
X112810476Y-85786190D02*
X112762857Y-85881428D01*
X112762857Y-85881428D02*
X112715238Y-85929047D01*
X112715238Y-85929047D02*
X112620000Y-85976666D01*
X112620000Y-85976666D02*
X112429524Y-85976666D01*
X112429524Y-85976666D02*
X112334286Y-85929047D01*
X112334286Y-85929047D02*
X112286667Y-85881428D01*
X112286667Y-85881428D02*
X112239048Y-85786190D01*
X111191428Y-85357619D02*
X110858095Y-86357619D01*
X110858095Y-86357619D02*
X110524762Y-85357619D01*
X109810476Y-86310000D02*
X109905714Y-86357619D01*
X109905714Y-86357619D02*
X110096190Y-86357619D01*
X110096190Y-86357619D02*
X110191428Y-86310000D01*
X110191428Y-86310000D02*
X110239047Y-86214761D01*
X110239047Y-86214761D02*
X110239047Y-85833809D01*
X110239047Y-85833809D02*
X110191428Y-85738571D01*
X110191428Y-85738571D02*
X110096190Y-85690952D01*
X110096190Y-85690952D02*
X109905714Y-85690952D01*
X109905714Y-85690952D02*
X109810476Y-85738571D01*
X109810476Y-85738571D02*
X109762857Y-85833809D01*
X109762857Y-85833809D02*
X109762857Y-85929047D01*
X109762857Y-85929047D02*
X110239047Y-86024285D01*
X109334285Y-86357619D02*
X109334285Y-85690952D01*
X109334285Y-85881428D02*
X109286666Y-85786190D01*
X109286666Y-85786190D02*
X109239047Y-85738571D01*
X109239047Y-85738571D02*
X109143809Y-85690952D01*
X109143809Y-85690952D02*
X109048571Y-85690952D01*
X108191428Y-86357619D02*
X108762856Y-86357619D01*
X108477142Y-86357619D02*
X108477142Y-85357619D01*
X108477142Y-85357619D02*
X108572380Y-85500476D01*
X108572380Y-85500476D02*
X108667618Y-85595714D01*
X108667618Y-85595714D02*
X108762856Y-85643333D01*
X107762856Y-86262380D02*
X107715237Y-86310000D01*
X107715237Y-86310000D02*
X107762856Y-86357619D01*
X107762856Y-86357619D02*
X107810475Y-86310000D01*
X107810475Y-86310000D02*
X107762856Y-86262380D01*
X107762856Y-86262380D02*
X107762856Y-86357619D01*
X107096190Y-85357619D02*
X107000952Y-85357619D01*
X107000952Y-85357619D02*
X106905714Y-85405238D01*
X106905714Y-85405238D02*
X106858095Y-85452857D01*
X106858095Y-85452857D02*
X106810476Y-85548095D01*
X106810476Y-85548095D02*
X106762857Y-85738571D01*
X106762857Y-85738571D02*
X106762857Y-85976666D01*
X106762857Y-85976666D02*
X106810476Y-86167142D01*
X106810476Y-86167142D02*
X106858095Y-86262380D01*
X106858095Y-86262380D02*
X106905714Y-86310000D01*
X106905714Y-86310000D02*
X107000952Y-86357619D01*
X107000952Y-86357619D02*
X107096190Y-86357619D01*
X107096190Y-86357619D02*
X107191428Y-86310000D01*
X107191428Y-86310000D02*
X107239047Y-86262380D01*
X107239047Y-86262380D02*
X107286666Y-86167142D01*
X107286666Y-86167142D02*
X107334285Y-85976666D01*
X107334285Y-85976666D02*
X107334285Y-85738571D01*
X107334285Y-85738571D02*
X107286666Y-85548095D01*
X107286666Y-85548095D02*
X107239047Y-85452857D01*
X107239047Y-85452857D02*
X107191428Y-85405238D01*
X107191428Y-85405238D02*
X107096190Y-85357619D01*
D11*
X117005714Y-76777619D02*
X117481904Y-76777619D01*
X117481904Y-76777619D02*
X117481904Y-75777619D01*
X116672380Y-76253809D02*
X116339047Y-76253809D01*
X116196190Y-76777619D02*
X116672380Y-76777619D01*
X116672380Y-76777619D02*
X116672380Y-75777619D01*
X116672380Y-75777619D02*
X116196190Y-75777619D01*
X115767618Y-76777619D02*
X115767618Y-75777619D01*
X115767618Y-75777619D02*
X115529523Y-75777619D01*
X115529523Y-75777619D02*
X115386666Y-75825238D01*
X115386666Y-75825238D02*
X115291428Y-75920476D01*
X115291428Y-75920476D02*
X115243809Y-76015714D01*
X115243809Y-76015714D02*
X115196190Y-76206190D01*
X115196190Y-76206190D02*
X115196190Y-76349047D01*
X115196190Y-76349047D02*
X115243809Y-76539523D01*
X115243809Y-76539523D02*
X115291428Y-76634761D01*
X115291428Y-76634761D02*
X115386666Y-76730000D01*
X115386666Y-76730000D02*
X115529523Y-76777619D01*
X115529523Y-76777619D02*
X115767618Y-76777619D01*
X117329523Y-74230000D02*
X117186666Y-74277619D01*
X117186666Y-74277619D02*
X116948571Y-74277619D01*
X116948571Y-74277619D02*
X116853333Y-74230000D01*
X116853333Y-74230000D02*
X116805714Y-74182380D01*
X116805714Y-74182380D02*
X116758095Y-74087142D01*
X116758095Y-74087142D02*
X116758095Y-73991904D01*
X116758095Y-73991904D02*
X116805714Y-73896666D01*
X116805714Y-73896666D02*
X116853333Y-73849047D01*
X116853333Y-73849047D02*
X116948571Y-73801428D01*
X116948571Y-73801428D02*
X117139047Y-73753809D01*
X117139047Y-73753809D02*
X117234285Y-73706190D01*
X117234285Y-73706190D02*
X117281904Y-73658571D01*
X117281904Y-73658571D02*
X117329523Y-73563333D01*
X117329523Y-73563333D02*
X117329523Y-73468095D01*
X117329523Y-73468095D02*
X117281904Y-73372857D01*
X117281904Y-73372857D02*
X117234285Y-73325238D01*
X117234285Y-73325238D02*
X117139047Y-73277619D01*
X117139047Y-73277619D02*
X116900952Y-73277619D01*
X116900952Y-73277619D02*
X116758095Y-73325238D01*
X116424761Y-73277619D02*
X116186666Y-74277619D01*
X116186666Y-74277619D02*
X115996190Y-73563333D01*
X115996190Y-73563333D02*
X115805714Y-74277619D01*
X115805714Y-74277619D02*
X115567619Y-73277619D01*
X117624761Y-78477619D02*
X117291428Y-79477619D01*
X117291428Y-79477619D02*
X116958095Y-78477619D01*
X116053333Y-79382380D02*
X116100952Y-79430000D01*
X116100952Y-79430000D02*
X116243809Y-79477619D01*
X116243809Y-79477619D02*
X116339047Y-79477619D01*
X116339047Y-79477619D02*
X116481904Y-79430000D01*
X116481904Y-79430000D02*
X116577142Y-79334761D01*
X116577142Y-79334761D02*
X116624761Y-79239523D01*
X116624761Y-79239523D02*
X116672380Y-79049047D01*
X116672380Y-79049047D02*
X116672380Y-78906190D01*
X116672380Y-78906190D02*
X116624761Y-78715714D01*
X116624761Y-78715714D02*
X116577142Y-78620476D01*
X116577142Y-78620476D02*
X116481904Y-78525238D01*
X116481904Y-78525238D02*
X116339047Y-78477619D01*
X116339047Y-78477619D02*
X116243809Y-78477619D01*
X116243809Y-78477619D02*
X116100952Y-78525238D01*
X116100952Y-78525238D02*
X116053333Y-78572857D01*
X115053333Y-79382380D02*
X115100952Y-79430000D01*
X115100952Y-79430000D02*
X115243809Y-79477619D01*
X115243809Y-79477619D02*
X115339047Y-79477619D01*
X115339047Y-79477619D02*
X115481904Y-79430000D01*
X115481904Y-79430000D02*
X115577142Y-79334761D01*
X115577142Y-79334761D02*
X115624761Y-79239523D01*
X115624761Y-79239523D02*
X115672380Y-79049047D01*
X115672380Y-79049047D02*
X115672380Y-78906190D01*
X115672380Y-78906190D02*
X115624761Y-78715714D01*
X115624761Y-78715714D02*
X115577142Y-78620476D01*
X115577142Y-78620476D02*
X115481904Y-78525238D01*
X115481904Y-78525238D02*
X115339047Y-78477619D01*
X115339047Y-78477619D02*
X115243809Y-78477619D01*
X115243809Y-78477619D02*
X115100952Y-78525238D01*
X115100952Y-78525238D02*
X115053333Y-78572857D01*
X117258095Y-70725238D02*
X117353333Y-70677619D01*
X117353333Y-70677619D02*
X117496190Y-70677619D01*
X117496190Y-70677619D02*
X117639047Y-70725238D01*
X117639047Y-70725238D02*
X117734285Y-70820476D01*
X117734285Y-70820476D02*
X117781904Y-70915714D01*
X117781904Y-70915714D02*
X117829523Y-71106190D01*
X117829523Y-71106190D02*
X117829523Y-71249047D01*
X117829523Y-71249047D02*
X117781904Y-71439523D01*
X117781904Y-71439523D02*
X117734285Y-71534761D01*
X117734285Y-71534761D02*
X117639047Y-71630000D01*
X117639047Y-71630000D02*
X117496190Y-71677619D01*
X117496190Y-71677619D02*
X117400952Y-71677619D01*
X117400952Y-71677619D02*
X117258095Y-71630000D01*
X117258095Y-71630000D02*
X117210476Y-71582380D01*
X117210476Y-71582380D02*
X117210476Y-71249047D01*
X117210476Y-71249047D02*
X117400952Y-71249047D01*
X116781904Y-71677619D02*
X116781904Y-70677619D01*
X116781904Y-70677619D02*
X116210476Y-71677619D01*
X116210476Y-71677619D02*
X116210476Y-70677619D01*
X115734285Y-71677619D02*
X115734285Y-70677619D01*
X115734285Y-70677619D02*
X115496190Y-70677619D01*
X115496190Y-70677619D02*
X115353333Y-70725238D01*
X115353333Y-70725238D02*
X115258095Y-70820476D01*
X115258095Y-70820476D02*
X115210476Y-70915714D01*
X115210476Y-70915714D02*
X115162857Y-71106190D01*
X115162857Y-71106190D02*
X115162857Y-71249047D01*
X115162857Y-71249047D02*
X115210476Y-71439523D01*
X115210476Y-71439523D02*
X115258095Y-71534761D01*
X115258095Y-71534761D02*
X115353333Y-71630000D01*
X115353333Y-71630000D02*
X115496190Y-71677619D01*
X115496190Y-71677619D02*
X115734285Y-71677619D01*
M02*
