%TF.GenerationSoftware,KiCad,Pcbnew,7.0.2*%
%TF.CreationDate,2023-06-29T18:38:04+09:00*%
%TF.ProjectId,laserpointer,6c617365-7270-46f6-996e-7465722e6b69,rev?*%
%TF.SameCoordinates,Original*%
%TF.FileFunction,Legend,Top*%
%TF.FilePolarity,Positive*%
%FSLAX46Y46*%
G04 Gerber Fmt 4.6, Leading zero omitted, Abs format (unit mm)*
G04 Created by KiCad (PCBNEW 7.0.2) date 2023-06-29 18:38:04*
%MOMM*%
%LPD*%
G01*
G04 APERTURE LIST*
%ADD10C,0.300000*%
%ADD11C,0.150000*%
%ADD12C,0.120000*%
%ADD13C,0.100000*%
G04 APERTURE END LIST*
D10*
X140552857Y-72135000D02*
X139410000Y-72135000D01*
X139981428Y-72706428D02*
X139981428Y-71563571D01*
D11*
%TO.C,SW1*%
X146846667Y-70605000D02*
X146989524Y-70652619D01*
X146989524Y-70652619D02*
X147227619Y-70652619D01*
X147227619Y-70652619D02*
X147322857Y-70605000D01*
X147322857Y-70605000D02*
X147370476Y-70557380D01*
X147370476Y-70557380D02*
X147418095Y-70462142D01*
X147418095Y-70462142D02*
X147418095Y-70366904D01*
X147418095Y-70366904D02*
X147370476Y-70271666D01*
X147370476Y-70271666D02*
X147322857Y-70224047D01*
X147322857Y-70224047D02*
X147227619Y-70176428D01*
X147227619Y-70176428D02*
X147037143Y-70128809D01*
X147037143Y-70128809D02*
X146941905Y-70081190D01*
X146941905Y-70081190D02*
X146894286Y-70033571D01*
X146894286Y-70033571D02*
X146846667Y-69938333D01*
X146846667Y-69938333D02*
X146846667Y-69843095D01*
X146846667Y-69843095D02*
X146894286Y-69747857D01*
X146894286Y-69747857D02*
X146941905Y-69700238D01*
X146941905Y-69700238D02*
X147037143Y-69652619D01*
X147037143Y-69652619D02*
X147275238Y-69652619D01*
X147275238Y-69652619D02*
X147418095Y-69700238D01*
X147751429Y-69652619D02*
X147989524Y-70652619D01*
X147989524Y-70652619D02*
X148180000Y-69938333D01*
X148180000Y-69938333D02*
X148370476Y-70652619D01*
X148370476Y-70652619D02*
X148608572Y-69652619D01*
X149513333Y-70652619D02*
X148941905Y-70652619D01*
X149227619Y-70652619D02*
X149227619Y-69652619D01*
X149227619Y-69652619D02*
X149132381Y-69795476D01*
X149132381Y-69795476D02*
X149037143Y-69890714D01*
X149037143Y-69890714D02*
X148941905Y-69938333D01*
X146766667Y-76265000D02*
X146909524Y-76312619D01*
X146909524Y-76312619D02*
X147147619Y-76312619D01*
X147147619Y-76312619D02*
X147242857Y-76265000D01*
X147242857Y-76265000D02*
X147290476Y-76217380D01*
X147290476Y-76217380D02*
X147338095Y-76122142D01*
X147338095Y-76122142D02*
X147338095Y-76026904D01*
X147338095Y-76026904D02*
X147290476Y-75931666D01*
X147290476Y-75931666D02*
X147242857Y-75884047D01*
X147242857Y-75884047D02*
X147147619Y-75836428D01*
X147147619Y-75836428D02*
X146957143Y-75788809D01*
X146957143Y-75788809D02*
X146861905Y-75741190D01*
X146861905Y-75741190D02*
X146814286Y-75693571D01*
X146814286Y-75693571D02*
X146766667Y-75598333D01*
X146766667Y-75598333D02*
X146766667Y-75503095D01*
X146766667Y-75503095D02*
X146814286Y-75407857D01*
X146814286Y-75407857D02*
X146861905Y-75360238D01*
X146861905Y-75360238D02*
X146957143Y-75312619D01*
X146957143Y-75312619D02*
X147195238Y-75312619D01*
X147195238Y-75312619D02*
X147338095Y-75360238D01*
X147671429Y-75312619D02*
X147909524Y-76312619D01*
X147909524Y-76312619D02*
X148100000Y-75598333D01*
X148100000Y-75598333D02*
X148290476Y-76312619D01*
X148290476Y-76312619D02*
X148528572Y-75312619D01*
X149433333Y-76312619D02*
X148861905Y-76312619D01*
X149147619Y-76312619D02*
X149147619Y-75312619D01*
X149147619Y-75312619D02*
X149052381Y-75455476D01*
X149052381Y-75455476D02*
X148957143Y-75550714D01*
X148957143Y-75550714D02*
X148861905Y-75598333D01*
%TO.C,330*%
X120272619Y-76345713D02*
X120272619Y-75726666D01*
X120272619Y-75726666D02*
X120653571Y-76059999D01*
X120653571Y-76059999D02*
X120653571Y-75917142D01*
X120653571Y-75917142D02*
X120701190Y-75821904D01*
X120701190Y-75821904D02*
X120748809Y-75774285D01*
X120748809Y-75774285D02*
X120844047Y-75726666D01*
X120844047Y-75726666D02*
X121082142Y-75726666D01*
X121082142Y-75726666D02*
X121177380Y-75774285D01*
X121177380Y-75774285D02*
X121225000Y-75821904D01*
X121225000Y-75821904D02*
X121272619Y-75917142D01*
X121272619Y-75917142D02*
X121272619Y-76202856D01*
X121272619Y-76202856D02*
X121225000Y-76298094D01*
X121225000Y-76298094D02*
X121177380Y-76345713D01*
X120272619Y-75393332D02*
X120272619Y-74774285D01*
X120272619Y-74774285D02*
X120653571Y-75107618D01*
X120653571Y-75107618D02*
X120653571Y-74964761D01*
X120653571Y-74964761D02*
X120701190Y-74869523D01*
X120701190Y-74869523D02*
X120748809Y-74821904D01*
X120748809Y-74821904D02*
X120844047Y-74774285D01*
X120844047Y-74774285D02*
X121082142Y-74774285D01*
X121082142Y-74774285D02*
X121177380Y-74821904D01*
X121177380Y-74821904D02*
X121225000Y-74869523D01*
X121225000Y-74869523D02*
X121272619Y-74964761D01*
X121272619Y-74964761D02*
X121272619Y-75250475D01*
X121272619Y-75250475D02*
X121225000Y-75345713D01*
X121225000Y-75345713D02*
X121177380Y-75393332D01*
X120272619Y-74155237D02*
X120272619Y-74059999D01*
X120272619Y-74059999D02*
X120320238Y-73964761D01*
X120320238Y-73964761D02*
X120367857Y-73917142D01*
X120367857Y-73917142D02*
X120463095Y-73869523D01*
X120463095Y-73869523D02*
X120653571Y-73821904D01*
X120653571Y-73821904D02*
X120891666Y-73821904D01*
X120891666Y-73821904D02*
X121082142Y-73869523D01*
X121082142Y-73869523D02*
X121177380Y-73917142D01*
X121177380Y-73917142D02*
X121225000Y-73964761D01*
X121225000Y-73964761D02*
X121272619Y-74059999D01*
X121272619Y-74059999D02*
X121272619Y-74155237D01*
X121272619Y-74155237D02*
X121225000Y-74250475D01*
X121225000Y-74250475D02*
X121177380Y-74298094D01*
X121177380Y-74298094D02*
X121082142Y-74345713D01*
X121082142Y-74345713D02*
X120891666Y-74393332D01*
X120891666Y-74393332D02*
X120653571Y-74393332D01*
X120653571Y-74393332D02*
X120463095Y-74345713D01*
X120463095Y-74345713D02*
X120367857Y-74298094D01*
X120367857Y-74298094D02*
X120320238Y-74250475D01*
X120320238Y-74250475D02*
X120272619Y-74155237D01*
%TO.C,10k*%
X125712619Y-75825238D02*
X125712619Y-76396666D01*
X125712619Y-76110952D02*
X124712619Y-76110952D01*
X124712619Y-76110952D02*
X124855476Y-76206190D01*
X124855476Y-76206190D02*
X124950714Y-76301428D01*
X124950714Y-76301428D02*
X124998333Y-76396666D01*
X124712619Y-75206190D02*
X124712619Y-75110952D01*
X124712619Y-75110952D02*
X124760238Y-75015714D01*
X124760238Y-75015714D02*
X124807857Y-74968095D01*
X124807857Y-74968095D02*
X124903095Y-74920476D01*
X124903095Y-74920476D02*
X125093571Y-74872857D01*
X125093571Y-74872857D02*
X125331666Y-74872857D01*
X125331666Y-74872857D02*
X125522142Y-74920476D01*
X125522142Y-74920476D02*
X125617380Y-74968095D01*
X125617380Y-74968095D02*
X125665000Y-75015714D01*
X125665000Y-75015714D02*
X125712619Y-75110952D01*
X125712619Y-75110952D02*
X125712619Y-75206190D01*
X125712619Y-75206190D02*
X125665000Y-75301428D01*
X125665000Y-75301428D02*
X125617380Y-75349047D01*
X125617380Y-75349047D02*
X125522142Y-75396666D01*
X125522142Y-75396666D02*
X125331666Y-75444285D01*
X125331666Y-75444285D02*
X125093571Y-75444285D01*
X125093571Y-75444285D02*
X124903095Y-75396666D01*
X124903095Y-75396666D02*
X124807857Y-75349047D01*
X124807857Y-75349047D02*
X124760238Y-75301428D01*
X124760238Y-75301428D02*
X124712619Y-75206190D01*
X125712619Y-74444285D02*
X124712619Y-74444285D01*
X125331666Y-74349047D02*
X125712619Y-74063333D01*
X125045952Y-74063333D02*
X125426904Y-74444285D01*
%TO.C,D1*%
X136281905Y-72352619D02*
X136281905Y-71352619D01*
X136281905Y-71352619D02*
X136520000Y-71352619D01*
X136520000Y-71352619D02*
X136662857Y-71400238D01*
X136662857Y-71400238D02*
X136758095Y-71495476D01*
X136758095Y-71495476D02*
X136805714Y-71590714D01*
X136805714Y-71590714D02*
X136853333Y-71781190D01*
X136853333Y-71781190D02*
X136853333Y-71924047D01*
X136853333Y-71924047D02*
X136805714Y-72114523D01*
X136805714Y-72114523D02*
X136758095Y-72209761D01*
X136758095Y-72209761D02*
X136662857Y-72305000D01*
X136662857Y-72305000D02*
X136520000Y-72352619D01*
X136520000Y-72352619D02*
X136281905Y-72352619D01*
X137805714Y-72352619D02*
X137234286Y-72352619D01*
X137520000Y-72352619D02*
X137520000Y-71352619D01*
X137520000Y-71352619D02*
X137424762Y-71495476D01*
X137424762Y-71495476D02*
X137329524Y-71590714D01*
X137329524Y-71590714D02*
X137234286Y-71638333D01*
X136377142Y-80272619D02*
X135900952Y-80272619D01*
X135900952Y-80272619D02*
X135900952Y-79272619D01*
X136710476Y-79748809D02*
X137043809Y-79748809D01*
X137186666Y-80272619D02*
X136710476Y-80272619D01*
X136710476Y-80272619D02*
X136710476Y-79272619D01*
X136710476Y-79272619D02*
X137186666Y-79272619D01*
X137615238Y-80272619D02*
X137615238Y-79272619D01*
X137615238Y-79272619D02*
X137853333Y-79272619D01*
X137853333Y-79272619D02*
X137996190Y-79320238D01*
X137996190Y-79320238D02*
X138091428Y-79415476D01*
X138091428Y-79415476D02*
X138139047Y-79510714D01*
X138139047Y-79510714D02*
X138186666Y-79701190D01*
X138186666Y-79701190D02*
X138186666Y-79844047D01*
X138186666Y-79844047D02*
X138139047Y-80034523D01*
X138139047Y-80034523D02*
X138091428Y-80129761D01*
X138091428Y-80129761D02*
X137996190Y-80225000D01*
X137996190Y-80225000D02*
X137853333Y-80272619D01*
X137853333Y-80272619D02*
X137615238Y-80272619D01*
D12*
%TO.C,SW1*%
X147350000Y-79350000D02*
X148850000Y-79350000D01*
X151350000Y-78100000D02*
X151350000Y-73600000D01*
X144850000Y-73600000D02*
X144850000Y-78100000D01*
X148850000Y-72350000D02*
X147350000Y-72350000D01*
%TO.C,330*%
X120720000Y-70950000D02*
X120720000Y-71720000D01*
X122090000Y-71720000D02*
X119350000Y-71720000D01*
X119350000Y-71720000D02*
X119350000Y-78260000D01*
X122090000Y-78260000D02*
X122090000Y-71720000D01*
X119350000Y-78260000D02*
X122090000Y-78260000D01*
X120720000Y-79030000D02*
X120720000Y-78260000D01*
D13*
%TO.C,REF\u002A\u002A*%
X111815400Y-80160000D02*
X114355400Y-80160000D01*
X114355400Y-80160000D02*
X114355400Y-77620000D01*
X114355400Y-77620000D02*
X111815400Y-77620000D01*
X111815400Y-77620000D02*
X111815400Y-80160000D01*
X111815400Y-77620000D02*
X114355400Y-77620000D01*
X114355400Y-77620000D02*
X114355400Y-75080000D01*
X114355400Y-75080000D02*
X111815400Y-75080000D01*
X111815400Y-75080000D02*
X111815400Y-77620000D01*
X111815400Y-75080000D02*
X114355400Y-75080000D01*
X114355400Y-75080000D02*
X114355400Y-72540000D01*
X114355400Y-72540000D02*
X111815400Y-72540000D01*
X111815400Y-72540000D02*
X111815400Y-75080000D01*
X111815400Y-72540000D02*
X114355400Y-72540000D01*
X114355400Y-72540000D02*
X114355400Y-70000000D01*
X114355400Y-70000000D02*
X111815400Y-70000000D01*
X111815400Y-70000000D02*
X111815400Y-72540000D01*
D12*
%TO.C,10k*%
X125180000Y-70040000D02*
X125180000Y-70730000D01*
X126900000Y-70730000D02*
X123460000Y-70730000D01*
X123460000Y-70730000D02*
X123460000Y-79970000D01*
X126900000Y-79970000D02*
X126900000Y-70730000D01*
X123460000Y-79970000D02*
X126900000Y-79970000D01*
X125180000Y-80660000D02*
X125180000Y-79970000D01*
%TO.C,D1*%
X134460000Y-74305000D02*
X134460000Y-77395000D01*
X140009999Y-75850462D02*
G75*
G03*
X134460001Y-74305170I-2989999J462D01*
G01*
X134460000Y-77394830D02*
G75*
G03*
X140010000Y-75849538I2560000J1544830D01*
G01*
X139520000Y-75850000D02*
G75*
G03*
X139520000Y-75850000I-2500000J0D01*
G01*
%TD*%
M02*
