%TF.GenerationSoftware,KiCad,Pcbnew,7.0.1*%
%TF.CreationDate,2023-04-17T15:40:40+09:00*%
%TF.ProjectId,Laser Pointer,4c617365-7220-4506-9f69-6e7465722e6b,rev?*%
%TF.SameCoordinates,Original*%
%TF.FileFunction,Soldermask,Bot*%
%TF.FilePolarity,Negative*%
%FSLAX46Y46*%
G04 Gerber Fmt 4.6, Leading zero omitted, Abs format (unit mm)*
G04 Created by KiCad (PCBNEW 7.0.1) date 2023-04-17 15:40:40*
%MOMM*%
%LPD*%
G01*
G04 APERTURE LIST*
%ADD10C,1.400000*%
%ADD11C,1.524000*%
G04 APERTURE END LIST*
D10*
%TO.C,GND*%
X104140000Y-119380000D03*
X104140000Y-121920000D03*
%TD*%
D11*
%TO.C,LaserPointer ver.A*%
X104140000Y-114300000D03*
X106680000Y-114300000D03*
X109220000Y-114300000D03*
X111760000Y-114300000D03*
X114300000Y-114300000D03*
X116840000Y-114300000D03*
X119380000Y-114300000D03*
X121920000Y-114300000D03*
X124460000Y-114300000D03*
X127000000Y-114300000D03*
X129540000Y-114300000D03*
X132080000Y-114300000D03*
X134620000Y-114300000D03*
X137160000Y-114300000D03*
X139700000Y-114300000D03*
X139700000Y-91440000D03*
X137160000Y-91440000D03*
X134620000Y-91440000D03*
X132080000Y-91440000D03*
X129540000Y-91440000D03*
X127000000Y-91440000D03*
X124460000Y-91440000D03*
X121920000Y-91440000D03*
X119380000Y-91440000D03*
X116840000Y-91440000D03*
X114300000Y-91440000D03*
X111760000Y-91440000D03*
X109220000Y-91440000D03*
X106680000Y-91440000D03*
X104140000Y-91440000D03*
%TD*%
D10*
%TO.C,1x4 2.54mm Wafer*%
X108732696Y-82503210D03*
X106192696Y-82503210D03*
X103652696Y-82503210D03*
X101112696Y-82503210D03*
%TD*%
%TO.C,1x4 2.54mm Wafer*%
X145562696Y-82503210D03*
X143022696Y-82503210D03*
X140482696Y-82503210D03*
X137942696Y-82503210D03*
%TD*%
%TO.C,1x4 2.54mm Wafer*%
X132862696Y-82503210D03*
X130322696Y-82503210D03*
X127782696Y-82503210D03*
X125242696Y-82503210D03*
X122702696Y-82503210D03*
X120162696Y-82503210D03*
%TD*%
M02*
