M48
; DRILL file {KiCad 7.0.1} date Mon Apr 17 15:49:43 2023
; FORMAT={-:-/ absolute / inch / decimal}
; #@! TF.CreationDate,2023-04-17T15:49:43+09:00
; #@! TF.GenerationSoftware,Kicad,Pcbnew,7.0.1
; #@! TF.FileFunction,Plated,1,2,PTH
FMAT,2
INCH
; #@! TA.AperFunction,Plated,PTH,ViaDrill
T1C0.0157
; #@! TA.AperFunction,Plated,PTH,ComponentDrill
T2C0.0276
; #@! TA.AperFunction,Plated,PTH,ComponentDrill
T3C0.0300
%
G90
G05
T1
X5.4Y-4.7
T2
X3.9808Y-3.2482
X4.0808Y-3.2482
X4.1Y-4.7
X4.1Y-4.8
X4.1808Y-3.2482
X4.2808Y-3.2482
X4.7308Y-3.2482
X4.8308Y-3.2482
X4.9308Y-3.2482
X5.0308Y-3.2482
X5.1308Y-3.2482
X5.2308Y-3.2482
X5.4308Y-3.2482
X5.5308Y-3.2482
X5.6308Y-3.2482
X5.7308Y-3.2482
T3
X4.1Y-3.6
X4.1Y-4.5
X4.2Y-3.6
X4.2Y-4.5
X4.3Y-3.6
X4.3Y-4.5
X4.4Y-3.6
X4.4Y-4.5
X4.5Y-3.6
X4.5Y-4.5
X4.6Y-3.6
X4.6Y-4.5
X4.7Y-3.6
X4.7Y-4.5
X4.8Y-3.6
X4.8Y-4.5
X4.9Y-3.6
X4.9Y-4.5
X5.0Y-3.6
X5.0Y-4.5
X5.1Y-3.6
X5.1Y-4.5
X5.2Y-3.6
X5.2Y-4.5
X5.3Y-3.6
X5.3Y-4.5
X5.4Y-3.6
X5.4Y-4.5
X5.5Y-3.6
X5.5Y-4.5
T0
M30
