%TF.GenerationSoftware,KiCad,Pcbnew,7.0.1*%
%TF.CreationDate,2023-04-17T15:40:40+09:00*%
%TF.ProjectId,Laser Pointer,4c617365-7220-4506-9f69-6e7465722e6b,rev?*%
%TF.SameCoordinates,Original*%
%TF.FileFunction,Copper,L1,Top*%
%TF.FilePolarity,Positive*%
%FSLAX46Y46*%
G04 Gerber Fmt 4.6, Leading zero omitted, Abs format (unit mm)*
G04 Created by KiCad (PCBNEW 7.0.1) date 2023-04-17 15:40:40*
%MOMM*%
%LPD*%
G01*
G04 APERTURE LIST*
%TA.AperFunction,ComponentPad*%
%ADD10C,1.400000*%
%TD*%
%TA.AperFunction,ComponentPad*%
%ADD11C,1.524000*%
%TD*%
%TA.AperFunction,ViaPad*%
%ADD12C,0.800000*%
%TD*%
%TA.AperFunction,Conductor*%
%ADD13C,0.500000*%
%TD*%
%TA.AperFunction,Conductor*%
%ADD14C,0.000000*%
%TD*%
G04 APERTURE END LIST*
D10*
%TO.P,GND,1*%
%TO.N,N/C*%
X104140000Y-119380000D03*
%TO.P,GND,2*%
X104140000Y-121920000D03*
%TD*%
D11*
%TO.P,LaserPointer ver.A,1*%
%TO.N,N/C*%
X104140000Y-114300000D03*
%TO.P,LaserPointer ver.A,2*%
X106680000Y-114300000D03*
%TO.P,LaserPointer ver.A,3*%
X109220000Y-114300000D03*
%TO.P,LaserPointer ver.A,4*%
X111760000Y-114300000D03*
%TO.P,LaserPointer ver.A,5*%
X114300000Y-114300000D03*
%TO.P,LaserPointer ver.A,6*%
X116840000Y-114300000D03*
%TO.P,LaserPointer ver.A,7*%
X119380000Y-114300000D03*
%TO.P,LaserPointer ver.A,8*%
X121920000Y-114300000D03*
%TO.P,LaserPointer ver.A,9*%
X124460000Y-114300000D03*
%TO.P,LaserPointer ver.A,10*%
X127000000Y-114300000D03*
%TO.P,LaserPointer ver.A,11*%
X129540000Y-114300000D03*
%TO.P,LaserPointer ver.A,12*%
X132080000Y-114300000D03*
%TO.P,LaserPointer ver.A,13*%
X134620000Y-114300000D03*
%TO.P,LaserPointer ver.A,14*%
X137160000Y-114300000D03*
%TO.P,LaserPointer ver.A,15*%
X139700000Y-114300000D03*
%TO.P,LaserPointer ver.A,16*%
X139700000Y-91440000D03*
%TO.P,LaserPointer ver.A,17*%
X137160000Y-91440000D03*
%TO.P,LaserPointer ver.A,18*%
X134620000Y-91440000D03*
%TO.P,LaserPointer ver.A,19*%
X132080000Y-91440000D03*
%TO.P,LaserPointer ver.A,20*%
X129540000Y-91440000D03*
%TO.P,LaserPointer ver.A,21*%
X127000000Y-91440000D03*
%TO.P,LaserPointer ver.A,22*%
X124460000Y-91440000D03*
%TO.P,LaserPointer ver.A,23*%
X121920000Y-91440000D03*
%TO.P,LaserPointer ver.A,24*%
X119380000Y-91440000D03*
%TO.P,LaserPointer ver.A,25*%
X116840000Y-91440000D03*
%TO.P,LaserPointer ver.A,26*%
X114300000Y-91440000D03*
%TO.P,LaserPointer ver.A,27*%
X111760000Y-91440000D03*
%TO.P,LaserPointer ver.A,28*%
X109220000Y-91440000D03*
%TO.P,LaserPointer ver.A,29*%
X106680000Y-91440000D03*
%TO.P,LaserPointer ver.A,30*%
X104140000Y-91440000D03*
%TD*%
D10*
%TO.P,1x4 2.54mm Wafer,1*%
%TO.N,N/C*%
X108732696Y-82503210D03*
X106192696Y-82503210D03*
X103652696Y-82503210D03*
X101112696Y-82503210D03*
%TD*%
%TO.P,1x4 2.54mm Wafer,1*%
%TO.N,N/C*%
X145562696Y-82503210D03*
X143022696Y-82503210D03*
X140482696Y-82503210D03*
X137942696Y-82503210D03*
%TD*%
%TO.P,1x4 2.54mm Wafer,1*%
%TO.N,N/C*%
X132862696Y-82503210D03*
X130322696Y-82503210D03*
X127782696Y-82503210D03*
X125242696Y-82503210D03*
X122702696Y-82503210D03*
X120162696Y-82503210D03*
%TD*%
D12*
%TO.N,*%
X137160000Y-119380000D03*
%TD*%
D13*
%TO.N,*%
X147160000Y-84100514D02*
X145562696Y-82503210D01*
X138400000Y-104520000D02*
X147160000Y-95760000D01*
X147160000Y-95760000D02*
X147160000Y-84100514D01*
X138400000Y-113060000D02*
X138400000Y-104520000D01*
X137160000Y-114300000D02*
X138400000Y-113060000D01*
X137160000Y-89280000D02*
X132862696Y-84982696D01*
X132862696Y-84982696D02*
X132862696Y-82503210D01*
X137160000Y-91440000D02*
X137160000Y-89280000D01*
X124460000Y-90070000D02*
X127782696Y-86747304D01*
X127782696Y-86747304D02*
X127782696Y-82503210D01*
X124460000Y-91440000D02*
X124460000Y-90070000D01*
X130322696Y-86807304D02*
X130322696Y-82503210D01*
X127000000Y-91440000D02*
X127000000Y-90130000D01*
X127000000Y-90130000D02*
X130322696Y-86807304D01*
X127200000Y-91130000D02*
X127000000Y-91330000D01*
X127000000Y-91440000D02*
X127000000Y-91330000D01*
X125242696Y-85957304D02*
X125242696Y-82503210D01*
X121920000Y-89280000D02*
X125242696Y-85957304D01*
X121920000Y-91440000D02*
X121920000Y-89280000D01*
X120710000Y-87860000D02*
X122702696Y-85867304D01*
X108320000Y-87860000D02*
X120710000Y-87860000D01*
X122702696Y-85867304D02*
X122702696Y-82503210D01*
X106680000Y-89500000D02*
X108320000Y-87860000D01*
X106680000Y-91440000D02*
X106680000Y-89500000D01*
D14*
X106680000Y-91440000D02*
X106770000Y-91350000D01*
D13*
X139700000Y-116840000D02*
X139700000Y-114300000D01*
X137160000Y-119380000D02*
X104140000Y-119380000D01*
X137160000Y-119380000D02*
X139700000Y-116840000D01*
%TD*%
M02*
