%TF.GenerationSoftware,KiCad,Pcbnew,7.0.1*%
%TF.CreationDate,2023-04-17T15:40:40+09:00*%
%TF.ProjectId,Laser Pointer,4c617365-7220-4506-9f69-6e7465722e6b,rev?*%
%TF.SameCoordinates,Original*%
%TF.FileFunction,Legend,Top*%
%TF.FilePolarity,Positive*%
%FSLAX46Y46*%
G04 Gerber Fmt 4.6, Leading zero omitted, Abs format (unit mm)*
G04 Created by KiCad (PCBNEW 7.0.1) date 2023-04-17 15:40:40*
%MOMM*%
%LPD*%
G01*
G04 APERTURE LIST*
%ADD10C,0.300000*%
%ADD11C,0.175000*%
%ADD12C,0.100000*%
%ADD13C,0.150000*%
%ADD14C,1.524000*%
G04 APERTURE END LIST*
D10*
X149266428Y-111138571D02*
X149266428Y-111852857D01*
X149266428Y-111852857D02*
X147766428Y-111852857D01*
X149266428Y-109995714D02*
X148480714Y-109995714D01*
X148480714Y-109995714D02*
X148337857Y-110067142D01*
X148337857Y-110067142D02*
X148266428Y-110209999D01*
X148266428Y-110209999D02*
X148266428Y-110495714D01*
X148266428Y-110495714D02*
X148337857Y-110638571D01*
X149195000Y-109995714D02*
X149266428Y-110138571D01*
X149266428Y-110138571D02*
X149266428Y-110495714D01*
X149266428Y-110495714D02*
X149195000Y-110638571D01*
X149195000Y-110638571D02*
X149052142Y-110709999D01*
X149052142Y-110709999D02*
X148909285Y-110709999D01*
X148909285Y-110709999D02*
X148766428Y-110638571D01*
X148766428Y-110638571D02*
X148695000Y-110495714D01*
X148695000Y-110495714D02*
X148695000Y-110138571D01*
X148695000Y-110138571D02*
X148623571Y-109995714D01*
X149195000Y-109352856D02*
X149266428Y-109209999D01*
X149266428Y-109209999D02*
X149266428Y-108924285D01*
X149266428Y-108924285D02*
X149195000Y-108781428D01*
X149195000Y-108781428D02*
X149052142Y-108709999D01*
X149052142Y-108709999D02*
X148980714Y-108709999D01*
X148980714Y-108709999D02*
X148837857Y-108781428D01*
X148837857Y-108781428D02*
X148766428Y-108924285D01*
X148766428Y-108924285D02*
X148766428Y-109138571D01*
X148766428Y-109138571D02*
X148695000Y-109281428D01*
X148695000Y-109281428D02*
X148552142Y-109352856D01*
X148552142Y-109352856D02*
X148480714Y-109352856D01*
X148480714Y-109352856D02*
X148337857Y-109281428D01*
X148337857Y-109281428D02*
X148266428Y-109138571D01*
X148266428Y-109138571D02*
X148266428Y-108924285D01*
X148266428Y-108924285D02*
X148337857Y-108781428D01*
X149195000Y-107495713D02*
X149266428Y-107638570D01*
X149266428Y-107638570D02*
X149266428Y-107924285D01*
X149266428Y-107924285D02*
X149195000Y-108067142D01*
X149195000Y-108067142D02*
X149052142Y-108138570D01*
X149052142Y-108138570D02*
X148480714Y-108138570D01*
X148480714Y-108138570D02*
X148337857Y-108067142D01*
X148337857Y-108067142D02*
X148266428Y-107924285D01*
X148266428Y-107924285D02*
X148266428Y-107638570D01*
X148266428Y-107638570D02*
X148337857Y-107495713D01*
X148337857Y-107495713D02*
X148480714Y-107424285D01*
X148480714Y-107424285D02*
X148623571Y-107424285D01*
X148623571Y-107424285D02*
X148766428Y-108138570D01*
X149266428Y-106781428D02*
X148266428Y-106781428D01*
X148552142Y-106781428D02*
X148409285Y-106709999D01*
X148409285Y-106709999D02*
X148337857Y-106638571D01*
X148337857Y-106638571D02*
X148266428Y-106495713D01*
X148266428Y-106495713D02*
X148266428Y-106352856D01*
X149266428Y-105852857D02*
X147766428Y-105852857D01*
X147766428Y-105852857D02*
X147766428Y-105281428D01*
X147766428Y-105281428D02*
X147837857Y-105138571D01*
X147837857Y-105138571D02*
X147909285Y-105067142D01*
X147909285Y-105067142D02*
X148052142Y-104995714D01*
X148052142Y-104995714D02*
X148266428Y-104995714D01*
X148266428Y-104995714D02*
X148409285Y-105067142D01*
X148409285Y-105067142D02*
X148480714Y-105138571D01*
X148480714Y-105138571D02*
X148552142Y-105281428D01*
X148552142Y-105281428D02*
X148552142Y-105852857D01*
X149266428Y-104138571D02*
X149195000Y-104281428D01*
X149195000Y-104281428D02*
X149123571Y-104352857D01*
X149123571Y-104352857D02*
X148980714Y-104424285D01*
X148980714Y-104424285D02*
X148552142Y-104424285D01*
X148552142Y-104424285D02*
X148409285Y-104352857D01*
X148409285Y-104352857D02*
X148337857Y-104281428D01*
X148337857Y-104281428D02*
X148266428Y-104138571D01*
X148266428Y-104138571D02*
X148266428Y-103924285D01*
X148266428Y-103924285D02*
X148337857Y-103781428D01*
X148337857Y-103781428D02*
X148409285Y-103710000D01*
X148409285Y-103710000D02*
X148552142Y-103638571D01*
X148552142Y-103638571D02*
X148980714Y-103638571D01*
X148980714Y-103638571D02*
X149123571Y-103710000D01*
X149123571Y-103710000D02*
X149195000Y-103781428D01*
X149195000Y-103781428D02*
X149266428Y-103924285D01*
X149266428Y-103924285D02*
X149266428Y-104138571D01*
X149266428Y-102995714D02*
X148266428Y-102995714D01*
X147766428Y-102995714D02*
X147837857Y-103067142D01*
X147837857Y-103067142D02*
X147909285Y-102995714D01*
X147909285Y-102995714D02*
X147837857Y-102924285D01*
X147837857Y-102924285D02*
X147766428Y-102995714D01*
X147766428Y-102995714D02*
X147909285Y-102995714D01*
X148266428Y-102281428D02*
X149266428Y-102281428D01*
X148409285Y-102281428D02*
X148337857Y-102209999D01*
X148337857Y-102209999D02*
X148266428Y-102067142D01*
X148266428Y-102067142D02*
X148266428Y-101852856D01*
X148266428Y-101852856D02*
X148337857Y-101709999D01*
X148337857Y-101709999D02*
X148480714Y-101638571D01*
X148480714Y-101638571D02*
X149266428Y-101638571D01*
X148266428Y-101138570D02*
X148266428Y-100567142D01*
X147766428Y-100924285D02*
X149052142Y-100924285D01*
X149052142Y-100924285D02*
X149195000Y-100852856D01*
X149195000Y-100852856D02*
X149266428Y-100709999D01*
X149266428Y-100709999D02*
X149266428Y-100567142D01*
X149195000Y-99495713D02*
X149266428Y-99638570D01*
X149266428Y-99638570D02*
X149266428Y-99924285D01*
X149266428Y-99924285D02*
X149195000Y-100067142D01*
X149195000Y-100067142D02*
X149052142Y-100138570D01*
X149052142Y-100138570D02*
X148480714Y-100138570D01*
X148480714Y-100138570D02*
X148337857Y-100067142D01*
X148337857Y-100067142D02*
X148266428Y-99924285D01*
X148266428Y-99924285D02*
X148266428Y-99638570D01*
X148266428Y-99638570D02*
X148337857Y-99495713D01*
X148337857Y-99495713D02*
X148480714Y-99424285D01*
X148480714Y-99424285D02*
X148623571Y-99424285D01*
X148623571Y-99424285D02*
X148766428Y-100138570D01*
X149266428Y-98781428D02*
X148266428Y-98781428D01*
X148552142Y-98781428D02*
X148409285Y-98709999D01*
X148409285Y-98709999D02*
X148337857Y-98638571D01*
X148337857Y-98638571D02*
X148266428Y-98495713D01*
X148266428Y-98495713D02*
X148266428Y-98352856D01*
X148266428Y-96852857D02*
X149266428Y-96495714D01*
X149266428Y-96495714D02*
X148266428Y-96138571D01*
X149195000Y-94995714D02*
X149266428Y-95138571D01*
X149266428Y-95138571D02*
X149266428Y-95424286D01*
X149266428Y-95424286D02*
X149195000Y-95567143D01*
X149195000Y-95567143D02*
X149052142Y-95638571D01*
X149052142Y-95638571D02*
X148480714Y-95638571D01*
X148480714Y-95638571D02*
X148337857Y-95567143D01*
X148337857Y-95567143D02*
X148266428Y-95424286D01*
X148266428Y-95424286D02*
X148266428Y-95138571D01*
X148266428Y-95138571D02*
X148337857Y-94995714D01*
X148337857Y-94995714D02*
X148480714Y-94924286D01*
X148480714Y-94924286D02*
X148623571Y-94924286D01*
X148623571Y-94924286D02*
X148766428Y-95638571D01*
X149266428Y-94281429D02*
X148266428Y-94281429D01*
X148552142Y-94281429D02*
X148409285Y-94210000D01*
X148409285Y-94210000D02*
X148337857Y-94138572D01*
X148337857Y-94138572D02*
X148266428Y-93995714D01*
X148266428Y-93995714D02*
X148266428Y-93852857D01*
X149123571Y-93352858D02*
X149195000Y-93281429D01*
X149195000Y-93281429D02*
X149266428Y-93352858D01*
X149266428Y-93352858D02*
X149195000Y-93424286D01*
X149195000Y-93424286D02*
X149123571Y-93352858D01*
X149123571Y-93352858D02*
X149266428Y-93352858D01*
X148480714Y-92138572D02*
X148552142Y-91924286D01*
X148552142Y-91924286D02*
X148623571Y-91852857D01*
X148623571Y-91852857D02*
X148766428Y-91781429D01*
X148766428Y-91781429D02*
X148980714Y-91781429D01*
X148980714Y-91781429D02*
X149123571Y-91852857D01*
X149123571Y-91852857D02*
X149195000Y-91924286D01*
X149195000Y-91924286D02*
X149266428Y-92067143D01*
X149266428Y-92067143D02*
X149266428Y-92638572D01*
X149266428Y-92638572D02*
X147766428Y-92638572D01*
X147766428Y-92638572D02*
X147766428Y-92138572D01*
X147766428Y-92138572D02*
X147837857Y-91995715D01*
X147837857Y-91995715D02*
X147909285Y-91924286D01*
X147909285Y-91924286D02*
X148052142Y-91852857D01*
X148052142Y-91852857D02*
X148195000Y-91852857D01*
X148195000Y-91852857D02*
X148337857Y-91924286D01*
X148337857Y-91924286D02*
X148409285Y-91995715D01*
X148409285Y-91995715D02*
X148480714Y-92138572D01*
X148480714Y-92138572D02*
X148480714Y-92638572D01*
D11*
X150381000Y-97506666D02*
X150347666Y-97473333D01*
X150347666Y-97473333D02*
X150314333Y-97406666D01*
X150314333Y-97406666D02*
X150314333Y-97240000D01*
X150314333Y-97240000D02*
X150347666Y-97173333D01*
X150347666Y-97173333D02*
X150381000Y-97140000D01*
X150381000Y-97140000D02*
X150447666Y-97106666D01*
X150447666Y-97106666D02*
X150514333Y-97106666D01*
X150514333Y-97106666D02*
X150614333Y-97140000D01*
X150614333Y-97140000D02*
X151014333Y-97540000D01*
X151014333Y-97540000D02*
X151014333Y-97106666D01*
X150314333Y-96673333D02*
X150314333Y-96606666D01*
X150314333Y-96606666D02*
X150347666Y-96539999D01*
X150347666Y-96539999D02*
X150381000Y-96506666D01*
X150381000Y-96506666D02*
X150447666Y-96473333D01*
X150447666Y-96473333D02*
X150581000Y-96439999D01*
X150581000Y-96439999D02*
X150747666Y-96439999D01*
X150747666Y-96439999D02*
X150881000Y-96473333D01*
X150881000Y-96473333D02*
X150947666Y-96506666D01*
X150947666Y-96506666D02*
X150981000Y-96539999D01*
X150981000Y-96539999D02*
X151014333Y-96606666D01*
X151014333Y-96606666D02*
X151014333Y-96673333D01*
X151014333Y-96673333D02*
X150981000Y-96739999D01*
X150981000Y-96739999D02*
X150947666Y-96773333D01*
X150947666Y-96773333D02*
X150881000Y-96806666D01*
X150881000Y-96806666D02*
X150747666Y-96839999D01*
X150747666Y-96839999D02*
X150581000Y-96839999D01*
X150581000Y-96839999D02*
X150447666Y-96806666D01*
X150447666Y-96806666D02*
X150381000Y-96773333D01*
X150381000Y-96773333D02*
X150347666Y-96739999D01*
X150347666Y-96739999D02*
X150314333Y-96673333D01*
X150381000Y-96173332D02*
X150347666Y-96139999D01*
X150347666Y-96139999D02*
X150314333Y-96073332D01*
X150314333Y-96073332D02*
X150314333Y-95906666D01*
X150314333Y-95906666D02*
X150347666Y-95839999D01*
X150347666Y-95839999D02*
X150381000Y-95806666D01*
X150381000Y-95806666D02*
X150447666Y-95773332D01*
X150447666Y-95773332D02*
X150514333Y-95773332D01*
X150514333Y-95773332D02*
X150614333Y-95806666D01*
X150614333Y-95806666D02*
X151014333Y-96206666D01*
X151014333Y-96206666D02*
X151014333Y-95773332D01*
X150314333Y-95539999D02*
X150314333Y-95106665D01*
X150314333Y-95106665D02*
X150581000Y-95339999D01*
X150581000Y-95339999D02*
X150581000Y-95239999D01*
X150581000Y-95239999D02*
X150614333Y-95173332D01*
X150614333Y-95173332D02*
X150647666Y-95139999D01*
X150647666Y-95139999D02*
X150714333Y-95106665D01*
X150714333Y-95106665D02*
X150881000Y-95106665D01*
X150881000Y-95106665D02*
X150947666Y-95139999D01*
X150947666Y-95139999D02*
X150981000Y-95173332D01*
X150981000Y-95173332D02*
X151014333Y-95239999D01*
X151014333Y-95239999D02*
X151014333Y-95439999D01*
X151014333Y-95439999D02*
X150981000Y-95506665D01*
X150981000Y-95506665D02*
X150947666Y-95539999D01*
X150947666Y-94806665D02*
X150981000Y-94773332D01*
X150981000Y-94773332D02*
X151014333Y-94806665D01*
X151014333Y-94806665D02*
X150981000Y-94839998D01*
X150981000Y-94839998D02*
X150947666Y-94806665D01*
X150947666Y-94806665D02*
X151014333Y-94806665D01*
X150314333Y-94339999D02*
X150314333Y-94273332D01*
X150314333Y-94273332D02*
X150347666Y-94206665D01*
X150347666Y-94206665D02*
X150381000Y-94173332D01*
X150381000Y-94173332D02*
X150447666Y-94139999D01*
X150447666Y-94139999D02*
X150581000Y-94106665D01*
X150581000Y-94106665D02*
X150747666Y-94106665D01*
X150747666Y-94106665D02*
X150881000Y-94139999D01*
X150881000Y-94139999D02*
X150947666Y-94173332D01*
X150947666Y-94173332D02*
X150981000Y-94206665D01*
X150981000Y-94206665D02*
X151014333Y-94273332D01*
X151014333Y-94273332D02*
X151014333Y-94339999D01*
X151014333Y-94339999D02*
X150981000Y-94406665D01*
X150981000Y-94406665D02*
X150947666Y-94439999D01*
X150947666Y-94439999D02*
X150881000Y-94473332D01*
X150881000Y-94473332D02*
X150747666Y-94506665D01*
X150747666Y-94506665D02*
X150581000Y-94506665D01*
X150581000Y-94506665D02*
X150447666Y-94473332D01*
X150447666Y-94473332D02*
X150381000Y-94439999D01*
X150381000Y-94439999D02*
X150347666Y-94406665D01*
X150347666Y-94406665D02*
X150314333Y-94339999D01*
X150547666Y-93506665D02*
X151014333Y-93506665D01*
X150281000Y-93673332D02*
X150781000Y-93839998D01*
X150781000Y-93839998D02*
X150781000Y-93406665D01*
X150947666Y-93139998D02*
X150981000Y-93106665D01*
X150981000Y-93106665D02*
X151014333Y-93139998D01*
X151014333Y-93139998D02*
X150981000Y-93173331D01*
X150981000Y-93173331D02*
X150947666Y-93139998D01*
X150947666Y-93139998D02*
X151014333Y-93139998D01*
X151014333Y-92439998D02*
X151014333Y-92839998D01*
X151014333Y-92639998D02*
X150314333Y-92639998D01*
X150314333Y-92639998D02*
X150414333Y-92706665D01*
X150414333Y-92706665D02*
X150481000Y-92773332D01*
X150481000Y-92773332D02*
X150514333Y-92839998D01*
X150314333Y-92206665D02*
X150314333Y-91739998D01*
X150314333Y-91739998D02*
X151014333Y-92039998D01*
D12*
%TO.C,GND*%
X102803857Y-121462857D02*
X102832428Y-121405715D01*
X102832428Y-121405715D02*
X102832428Y-121320000D01*
X102832428Y-121320000D02*
X102803857Y-121234286D01*
X102803857Y-121234286D02*
X102746714Y-121177143D01*
X102746714Y-121177143D02*
X102689571Y-121148572D01*
X102689571Y-121148572D02*
X102575285Y-121120000D01*
X102575285Y-121120000D02*
X102489571Y-121120000D01*
X102489571Y-121120000D02*
X102375285Y-121148572D01*
X102375285Y-121148572D02*
X102318142Y-121177143D01*
X102318142Y-121177143D02*
X102261000Y-121234286D01*
X102261000Y-121234286D02*
X102232428Y-121320000D01*
X102232428Y-121320000D02*
X102232428Y-121377143D01*
X102232428Y-121377143D02*
X102261000Y-121462857D01*
X102261000Y-121462857D02*
X102289571Y-121491429D01*
X102289571Y-121491429D02*
X102489571Y-121491429D01*
X102489571Y-121491429D02*
X102489571Y-121377143D01*
X102232428Y-121748572D02*
X102832428Y-121748572D01*
X102832428Y-121748572D02*
X102232428Y-122091429D01*
X102232428Y-122091429D02*
X102832428Y-122091429D01*
X102232428Y-122377143D02*
X102832428Y-122377143D01*
X102832428Y-122377143D02*
X102832428Y-122520000D01*
X102832428Y-122520000D02*
X102803857Y-122605714D01*
X102803857Y-122605714D02*
X102746714Y-122662857D01*
X102746714Y-122662857D02*
X102689571Y-122691428D01*
X102689571Y-122691428D02*
X102575285Y-122720000D01*
X102575285Y-122720000D02*
X102489571Y-122720000D01*
X102489571Y-122720000D02*
X102375285Y-122691428D01*
X102375285Y-122691428D02*
X102318142Y-122662857D01*
X102318142Y-122662857D02*
X102261000Y-122605714D01*
X102261000Y-122605714D02*
X102232428Y-122520000D01*
X102232428Y-122520000D02*
X102232428Y-122377143D01*
X107672380Y-119745238D02*
X106672380Y-120078571D01*
X106672380Y-120078571D02*
X107672380Y-120411904D01*
X106672380Y-120745238D02*
X107672380Y-120745238D01*
X107339047Y-121221428D02*
X106672380Y-121221428D01*
X107243809Y-121221428D02*
X107291428Y-121269047D01*
X107291428Y-121269047D02*
X107339047Y-121364285D01*
X107339047Y-121364285D02*
X107339047Y-121507142D01*
X107339047Y-121507142D02*
X107291428Y-121602380D01*
X107291428Y-121602380D02*
X107196190Y-121649999D01*
X107196190Y-121649999D02*
X106672380Y-121649999D01*
D13*
%TO.C,LaserPointer ver.A*%
X126510238Y-112521904D02*
X126462619Y-112617142D01*
X126462619Y-112617142D02*
X126462619Y-112759999D01*
X126462619Y-112759999D02*
X126510238Y-112902856D01*
X126510238Y-112902856D02*
X126605476Y-112998094D01*
X126605476Y-112998094D02*
X126700714Y-113045713D01*
X126700714Y-113045713D02*
X126891190Y-113093332D01*
X126891190Y-113093332D02*
X127034047Y-113093332D01*
X127034047Y-113093332D02*
X127224523Y-113045713D01*
X127224523Y-113045713D02*
X127319761Y-112998094D01*
X127319761Y-112998094D02*
X127415000Y-112902856D01*
X127415000Y-112902856D02*
X127462619Y-112759999D01*
X127462619Y-112759999D02*
X127462619Y-112664761D01*
X127462619Y-112664761D02*
X127415000Y-112521904D01*
X127415000Y-112521904D02*
X127367380Y-112474285D01*
X127367380Y-112474285D02*
X127034047Y-112474285D01*
X127034047Y-112474285D02*
X127034047Y-112664761D01*
X127462619Y-112045713D02*
X126462619Y-112045713D01*
X126462619Y-112045713D02*
X127462619Y-111474285D01*
X127462619Y-111474285D02*
X126462619Y-111474285D01*
X127462619Y-110998094D02*
X126462619Y-110998094D01*
X126462619Y-110998094D02*
X126462619Y-110759999D01*
X126462619Y-110759999D02*
X126510238Y-110617142D01*
X126510238Y-110617142D02*
X126605476Y-110521904D01*
X126605476Y-110521904D02*
X126700714Y-110474285D01*
X126700714Y-110474285D02*
X126891190Y-110426666D01*
X126891190Y-110426666D02*
X127034047Y-110426666D01*
X127034047Y-110426666D02*
X127224523Y-110474285D01*
X127224523Y-110474285D02*
X127319761Y-110521904D01*
X127319761Y-110521904D02*
X127415000Y-110617142D01*
X127415000Y-110617142D02*
X127462619Y-110759999D01*
X127462619Y-110759999D02*
X127462619Y-110998094D01*
X119795000Y-112545713D02*
X119842619Y-112402856D01*
X119842619Y-112402856D02*
X119842619Y-112164761D01*
X119842619Y-112164761D02*
X119795000Y-112069523D01*
X119795000Y-112069523D02*
X119747380Y-112021904D01*
X119747380Y-112021904D02*
X119652142Y-111974285D01*
X119652142Y-111974285D02*
X119556904Y-111974285D01*
X119556904Y-111974285D02*
X119461666Y-112021904D01*
X119461666Y-112021904D02*
X119414047Y-112069523D01*
X119414047Y-112069523D02*
X119366428Y-112164761D01*
X119366428Y-112164761D02*
X119318809Y-112355237D01*
X119318809Y-112355237D02*
X119271190Y-112450475D01*
X119271190Y-112450475D02*
X119223571Y-112498094D01*
X119223571Y-112498094D02*
X119128333Y-112545713D01*
X119128333Y-112545713D02*
X119033095Y-112545713D01*
X119033095Y-112545713D02*
X118937857Y-112498094D01*
X118937857Y-112498094D02*
X118890238Y-112450475D01*
X118890238Y-112450475D02*
X118842619Y-112355237D01*
X118842619Y-112355237D02*
X118842619Y-112117142D01*
X118842619Y-112117142D02*
X118890238Y-111974285D01*
X119747380Y-110974285D02*
X119795000Y-111021904D01*
X119795000Y-111021904D02*
X119842619Y-111164761D01*
X119842619Y-111164761D02*
X119842619Y-111259999D01*
X119842619Y-111259999D02*
X119795000Y-111402856D01*
X119795000Y-111402856D02*
X119699761Y-111498094D01*
X119699761Y-111498094D02*
X119604523Y-111545713D01*
X119604523Y-111545713D02*
X119414047Y-111593332D01*
X119414047Y-111593332D02*
X119271190Y-111593332D01*
X119271190Y-111593332D02*
X119080714Y-111545713D01*
X119080714Y-111545713D02*
X118985476Y-111498094D01*
X118985476Y-111498094D02*
X118890238Y-111402856D01*
X118890238Y-111402856D02*
X118842619Y-111259999D01*
X118842619Y-111259999D02*
X118842619Y-111164761D01*
X118842619Y-111164761D02*
X118890238Y-111021904D01*
X118890238Y-111021904D02*
X118937857Y-110974285D01*
X130002619Y-94718094D02*
X129002619Y-94718094D01*
X129002619Y-94718094D02*
X129002619Y-94479999D01*
X129002619Y-94479999D02*
X129050238Y-94337142D01*
X129050238Y-94337142D02*
X129145476Y-94241904D01*
X129145476Y-94241904D02*
X129240714Y-94194285D01*
X129240714Y-94194285D02*
X129431190Y-94146666D01*
X129431190Y-94146666D02*
X129574047Y-94146666D01*
X129574047Y-94146666D02*
X129764523Y-94194285D01*
X129764523Y-94194285D02*
X129859761Y-94241904D01*
X129859761Y-94241904D02*
X129955000Y-94337142D01*
X129955000Y-94337142D02*
X130002619Y-94479999D01*
X130002619Y-94479999D02*
X130002619Y-94718094D01*
X129431190Y-93575237D02*
X129383571Y-93670475D01*
X129383571Y-93670475D02*
X129335952Y-93718094D01*
X129335952Y-93718094D02*
X129240714Y-93765713D01*
X129240714Y-93765713D02*
X129193095Y-93765713D01*
X129193095Y-93765713D02*
X129097857Y-93718094D01*
X129097857Y-93718094D02*
X129050238Y-93670475D01*
X129050238Y-93670475D02*
X129002619Y-93575237D01*
X129002619Y-93575237D02*
X129002619Y-93384761D01*
X129002619Y-93384761D02*
X129050238Y-93289523D01*
X129050238Y-93289523D02*
X129097857Y-93241904D01*
X129097857Y-93241904D02*
X129193095Y-93194285D01*
X129193095Y-93194285D02*
X129240714Y-93194285D01*
X129240714Y-93194285D02*
X129335952Y-93241904D01*
X129335952Y-93241904D02*
X129383571Y-93289523D01*
X129383571Y-93289523D02*
X129431190Y-93384761D01*
X129431190Y-93384761D02*
X129431190Y-93575237D01*
X129431190Y-93575237D02*
X129478809Y-93670475D01*
X129478809Y-93670475D02*
X129526428Y-93718094D01*
X129526428Y-93718094D02*
X129621666Y-93765713D01*
X129621666Y-93765713D02*
X129812142Y-93765713D01*
X129812142Y-93765713D02*
X129907380Y-93718094D01*
X129907380Y-93718094D02*
X129955000Y-93670475D01*
X129955000Y-93670475D02*
X130002619Y-93575237D01*
X130002619Y-93575237D02*
X130002619Y-93384761D01*
X130002619Y-93384761D02*
X129955000Y-93289523D01*
X129955000Y-93289523D02*
X129907380Y-93241904D01*
X129907380Y-93241904D02*
X129812142Y-93194285D01*
X129812142Y-93194285D02*
X129621666Y-93194285D01*
X129621666Y-93194285D02*
X129526428Y-93241904D01*
X129526428Y-93241904D02*
X129478809Y-93289523D01*
X129478809Y-93289523D02*
X129431190Y-93384761D01*
X114762619Y-94718094D02*
X113762619Y-94718094D01*
X113762619Y-94718094D02*
X113762619Y-94479999D01*
X113762619Y-94479999D02*
X113810238Y-94337142D01*
X113810238Y-94337142D02*
X113905476Y-94241904D01*
X113905476Y-94241904D02*
X114000714Y-94194285D01*
X114000714Y-94194285D02*
X114191190Y-94146666D01*
X114191190Y-94146666D02*
X114334047Y-94146666D01*
X114334047Y-94146666D02*
X114524523Y-94194285D01*
X114524523Y-94194285D02*
X114619761Y-94241904D01*
X114619761Y-94241904D02*
X114715000Y-94337142D01*
X114715000Y-94337142D02*
X114762619Y-94479999D01*
X114762619Y-94479999D02*
X114762619Y-94718094D01*
X114095952Y-93289523D02*
X114762619Y-93289523D01*
X113715000Y-93527618D02*
X114429285Y-93765713D01*
X114429285Y-93765713D02*
X114429285Y-93146666D01*
X129002619Y-112998094D02*
X129002619Y-112379047D01*
X129002619Y-112379047D02*
X129383571Y-112712380D01*
X129383571Y-112712380D02*
X129383571Y-112569523D01*
X129383571Y-112569523D02*
X129431190Y-112474285D01*
X129431190Y-112474285D02*
X129478809Y-112426666D01*
X129478809Y-112426666D02*
X129574047Y-112379047D01*
X129574047Y-112379047D02*
X129812142Y-112379047D01*
X129812142Y-112379047D02*
X129907380Y-112426666D01*
X129907380Y-112426666D02*
X129955000Y-112474285D01*
X129955000Y-112474285D02*
X130002619Y-112569523D01*
X130002619Y-112569523D02*
X130002619Y-112855237D01*
X130002619Y-112855237D02*
X129955000Y-112950475D01*
X129955000Y-112950475D02*
X129907380Y-112998094D01*
X129002619Y-112093332D02*
X130002619Y-111759999D01*
X130002619Y-111759999D02*
X129002619Y-111426666D01*
X129002619Y-111188570D02*
X129002619Y-110569523D01*
X129002619Y-110569523D02*
X129383571Y-110902856D01*
X129383571Y-110902856D02*
X129383571Y-110759999D01*
X129383571Y-110759999D02*
X129431190Y-110664761D01*
X129431190Y-110664761D02*
X129478809Y-110617142D01*
X129478809Y-110617142D02*
X129574047Y-110569523D01*
X129574047Y-110569523D02*
X129812142Y-110569523D01*
X129812142Y-110569523D02*
X129907380Y-110617142D01*
X129907380Y-110617142D02*
X129955000Y-110664761D01*
X129955000Y-110664761D02*
X130002619Y-110759999D01*
X130002619Y-110759999D02*
X130002619Y-111045713D01*
X130002619Y-111045713D02*
X129955000Y-111140951D01*
X129955000Y-111140951D02*
X129907380Y-111188570D01*
X134082619Y-94741904D02*
X134082619Y-94170476D01*
X135082619Y-94456190D02*
X134082619Y-94456190D01*
X134082619Y-93932380D02*
X135082619Y-93265714D01*
X134082619Y-93265714D02*
X135082619Y-93932380D01*
X117255000Y-112521904D02*
X117302619Y-112379047D01*
X117302619Y-112379047D02*
X117302619Y-112140952D01*
X117302619Y-112140952D02*
X117255000Y-112045714D01*
X117255000Y-112045714D02*
X117207380Y-111998095D01*
X117207380Y-111998095D02*
X117112142Y-111950476D01*
X117112142Y-111950476D02*
X117016904Y-111950476D01*
X117016904Y-111950476D02*
X116921666Y-111998095D01*
X116921666Y-111998095D02*
X116874047Y-112045714D01*
X116874047Y-112045714D02*
X116826428Y-112140952D01*
X116826428Y-112140952D02*
X116778809Y-112331428D01*
X116778809Y-112331428D02*
X116731190Y-112426666D01*
X116731190Y-112426666D02*
X116683571Y-112474285D01*
X116683571Y-112474285D02*
X116588333Y-112521904D01*
X116588333Y-112521904D02*
X116493095Y-112521904D01*
X116493095Y-112521904D02*
X116397857Y-112474285D01*
X116397857Y-112474285D02*
X116350238Y-112426666D01*
X116350238Y-112426666D02*
X116302619Y-112331428D01*
X116302619Y-112331428D02*
X116302619Y-112093333D01*
X116302619Y-112093333D02*
X116350238Y-111950476D01*
X117302619Y-110998095D02*
X117302619Y-111569523D01*
X117302619Y-111283809D02*
X116302619Y-111283809D01*
X116302619Y-111283809D02*
X116445476Y-111379047D01*
X116445476Y-111379047D02*
X116540714Y-111474285D01*
X116540714Y-111474285D02*
X116588333Y-111569523D01*
X132542619Y-94146666D02*
X132066428Y-94479999D01*
X132542619Y-94718094D02*
X131542619Y-94718094D01*
X131542619Y-94718094D02*
X131542619Y-94337142D01*
X131542619Y-94337142D02*
X131590238Y-94241904D01*
X131590238Y-94241904D02*
X131637857Y-94194285D01*
X131637857Y-94194285D02*
X131733095Y-94146666D01*
X131733095Y-94146666D02*
X131875952Y-94146666D01*
X131875952Y-94146666D02*
X131971190Y-94194285D01*
X131971190Y-94194285D02*
X132018809Y-94241904D01*
X132018809Y-94241904D02*
X132066428Y-94337142D01*
X132066428Y-94337142D02*
X132066428Y-94718094D01*
X131542619Y-93813332D02*
X132542619Y-93146666D01*
X131542619Y-93146666D02*
X132542619Y-93813332D01*
X112175000Y-112521904D02*
X112222619Y-112379047D01*
X112222619Y-112379047D02*
X112222619Y-112140952D01*
X112222619Y-112140952D02*
X112175000Y-112045714D01*
X112175000Y-112045714D02*
X112127380Y-111998095D01*
X112127380Y-111998095D02*
X112032142Y-111950476D01*
X112032142Y-111950476D02*
X111936904Y-111950476D01*
X111936904Y-111950476D02*
X111841666Y-111998095D01*
X111841666Y-111998095D02*
X111794047Y-112045714D01*
X111794047Y-112045714D02*
X111746428Y-112140952D01*
X111746428Y-112140952D02*
X111698809Y-112331428D01*
X111698809Y-112331428D02*
X111651190Y-112426666D01*
X111651190Y-112426666D02*
X111603571Y-112474285D01*
X111603571Y-112474285D02*
X111508333Y-112521904D01*
X111508333Y-112521904D02*
X111413095Y-112521904D01*
X111413095Y-112521904D02*
X111317857Y-112474285D01*
X111317857Y-112474285D02*
X111270238Y-112426666D01*
X111270238Y-112426666D02*
X111222619Y-112331428D01*
X111222619Y-112331428D02*
X111222619Y-112093333D01*
X111222619Y-112093333D02*
X111270238Y-111950476D01*
X111222619Y-111617142D02*
X111222619Y-110998095D01*
X111222619Y-110998095D02*
X111603571Y-111331428D01*
X111603571Y-111331428D02*
X111603571Y-111188571D01*
X111603571Y-111188571D02*
X111651190Y-111093333D01*
X111651190Y-111093333D02*
X111698809Y-111045714D01*
X111698809Y-111045714D02*
X111794047Y-110998095D01*
X111794047Y-110998095D02*
X112032142Y-110998095D01*
X112032142Y-110998095D02*
X112127380Y-111045714D01*
X112127380Y-111045714D02*
X112175000Y-111093333D01*
X112175000Y-111093333D02*
X112222619Y-111188571D01*
X112222619Y-111188571D02*
X112222619Y-111474285D01*
X112222619Y-111474285D02*
X112175000Y-111569523D01*
X112175000Y-111569523D02*
X112127380Y-111617142D01*
X124875000Y-113045713D02*
X124922619Y-112902856D01*
X124922619Y-112902856D02*
X124922619Y-112664761D01*
X124922619Y-112664761D02*
X124875000Y-112569523D01*
X124875000Y-112569523D02*
X124827380Y-112521904D01*
X124827380Y-112521904D02*
X124732142Y-112474285D01*
X124732142Y-112474285D02*
X124636904Y-112474285D01*
X124636904Y-112474285D02*
X124541666Y-112521904D01*
X124541666Y-112521904D02*
X124494047Y-112569523D01*
X124494047Y-112569523D02*
X124446428Y-112664761D01*
X124446428Y-112664761D02*
X124398809Y-112855237D01*
X124398809Y-112855237D02*
X124351190Y-112950475D01*
X124351190Y-112950475D02*
X124303571Y-112998094D01*
X124303571Y-112998094D02*
X124208333Y-113045713D01*
X124208333Y-113045713D02*
X124113095Y-113045713D01*
X124113095Y-113045713D02*
X124017857Y-112998094D01*
X124017857Y-112998094D02*
X123970238Y-112950475D01*
X123970238Y-112950475D02*
X123922619Y-112855237D01*
X123922619Y-112855237D02*
X123922619Y-112617142D01*
X123922619Y-112617142D02*
X123970238Y-112474285D01*
X124827380Y-111474285D02*
X124875000Y-111521904D01*
X124875000Y-111521904D02*
X124922619Y-111664761D01*
X124922619Y-111664761D02*
X124922619Y-111759999D01*
X124922619Y-111759999D02*
X124875000Y-111902856D01*
X124875000Y-111902856D02*
X124779761Y-111998094D01*
X124779761Y-111998094D02*
X124684523Y-112045713D01*
X124684523Y-112045713D02*
X124494047Y-112093332D01*
X124494047Y-112093332D02*
X124351190Y-112093332D01*
X124351190Y-112093332D02*
X124160714Y-112045713D01*
X124160714Y-112045713D02*
X124065476Y-111998094D01*
X124065476Y-111998094D02*
X123970238Y-111902856D01*
X123970238Y-111902856D02*
X123922619Y-111759999D01*
X123922619Y-111759999D02*
X123922619Y-111664761D01*
X123922619Y-111664761D02*
X123970238Y-111521904D01*
X123970238Y-111521904D02*
X124017857Y-111474285D01*
X124922619Y-111045713D02*
X123922619Y-111045713D01*
X124922619Y-110474285D02*
X124351190Y-110902856D01*
X123922619Y-110474285D02*
X124494047Y-111045713D01*
X135082619Y-112307619D02*
X134606428Y-112640952D01*
X135082619Y-112879047D02*
X134082619Y-112879047D01*
X134082619Y-112879047D02*
X134082619Y-112498095D01*
X134082619Y-112498095D02*
X134130238Y-112402857D01*
X134130238Y-112402857D02*
X134177857Y-112355238D01*
X134177857Y-112355238D02*
X134273095Y-112307619D01*
X134273095Y-112307619D02*
X134415952Y-112307619D01*
X134415952Y-112307619D02*
X134511190Y-112355238D01*
X134511190Y-112355238D02*
X134558809Y-112402857D01*
X134558809Y-112402857D02*
X134606428Y-112498095D01*
X134606428Y-112498095D02*
X134606428Y-112879047D01*
X135035000Y-111926666D02*
X135082619Y-111783809D01*
X135082619Y-111783809D02*
X135082619Y-111545714D01*
X135082619Y-111545714D02*
X135035000Y-111450476D01*
X135035000Y-111450476D02*
X134987380Y-111402857D01*
X134987380Y-111402857D02*
X134892142Y-111355238D01*
X134892142Y-111355238D02*
X134796904Y-111355238D01*
X134796904Y-111355238D02*
X134701666Y-111402857D01*
X134701666Y-111402857D02*
X134654047Y-111450476D01*
X134654047Y-111450476D02*
X134606428Y-111545714D01*
X134606428Y-111545714D02*
X134558809Y-111736190D01*
X134558809Y-111736190D02*
X134511190Y-111831428D01*
X134511190Y-111831428D02*
X134463571Y-111879047D01*
X134463571Y-111879047D02*
X134368333Y-111926666D01*
X134368333Y-111926666D02*
X134273095Y-111926666D01*
X134273095Y-111926666D02*
X134177857Y-111879047D01*
X134177857Y-111879047D02*
X134130238Y-111831428D01*
X134130238Y-111831428D02*
X134082619Y-111736190D01*
X134082619Y-111736190D02*
X134082619Y-111498095D01*
X134082619Y-111498095D02*
X134130238Y-111355238D01*
X134082619Y-111069523D02*
X134082619Y-110498095D01*
X135082619Y-110783809D02*
X134082619Y-110783809D01*
X109682619Y-94718094D02*
X108682619Y-94718094D01*
X108682619Y-94718094D02*
X108682619Y-94479999D01*
X108682619Y-94479999D02*
X108730238Y-94337142D01*
X108730238Y-94337142D02*
X108825476Y-94241904D01*
X108825476Y-94241904D02*
X108920714Y-94194285D01*
X108920714Y-94194285D02*
X109111190Y-94146666D01*
X109111190Y-94146666D02*
X109254047Y-94146666D01*
X109254047Y-94146666D02*
X109444523Y-94194285D01*
X109444523Y-94194285D02*
X109539761Y-94241904D01*
X109539761Y-94241904D02*
X109635000Y-94337142D01*
X109635000Y-94337142D02*
X109682619Y-94479999D01*
X109682619Y-94479999D02*
X109682619Y-94718094D01*
X108777857Y-93765713D02*
X108730238Y-93718094D01*
X108730238Y-93718094D02*
X108682619Y-93622856D01*
X108682619Y-93622856D02*
X108682619Y-93384761D01*
X108682619Y-93384761D02*
X108730238Y-93289523D01*
X108730238Y-93289523D02*
X108777857Y-93241904D01*
X108777857Y-93241904D02*
X108873095Y-93194285D01*
X108873095Y-93194285D02*
X108968333Y-93194285D01*
X108968333Y-93194285D02*
X109111190Y-93241904D01*
X109111190Y-93241904D02*
X109682619Y-93813332D01*
X109682619Y-93813332D02*
X109682619Y-93194285D01*
X102015000Y-105703332D02*
X102062619Y-105560475D01*
X102062619Y-105560475D02*
X102062619Y-105322380D01*
X102062619Y-105322380D02*
X102015000Y-105227142D01*
X102015000Y-105227142D02*
X101967380Y-105179523D01*
X101967380Y-105179523D02*
X101872142Y-105131904D01*
X101872142Y-105131904D02*
X101776904Y-105131904D01*
X101776904Y-105131904D02*
X101681666Y-105179523D01*
X101681666Y-105179523D02*
X101634047Y-105227142D01*
X101634047Y-105227142D02*
X101586428Y-105322380D01*
X101586428Y-105322380D02*
X101538809Y-105512856D01*
X101538809Y-105512856D02*
X101491190Y-105608094D01*
X101491190Y-105608094D02*
X101443571Y-105655713D01*
X101443571Y-105655713D02*
X101348333Y-105703332D01*
X101348333Y-105703332D02*
X101253095Y-105703332D01*
X101253095Y-105703332D02*
X101157857Y-105655713D01*
X101157857Y-105655713D02*
X101110238Y-105608094D01*
X101110238Y-105608094D02*
X101062619Y-105512856D01*
X101062619Y-105512856D02*
X101062619Y-105274761D01*
X101062619Y-105274761D02*
X101110238Y-105131904D01*
X102062619Y-104274761D02*
X101538809Y-104274761D01*
X101538809Y-104274761D02*
X101443571Y-104322380D01*
X101443571Y-104322380D02*
X101395952Y-104417618D01*
X101395952Y-104417618D02*
X101395952Y-104608094D01*
X101395952Y-104608094D02*
X101443571Y-104703332D01*
X102015000Y-104274761D02*
X102062619Y-104369999D01*
X102062619Y-104369999D02*
X102062619Y-104608094D01*
X102062619Y-104608094D02*
X102015000Y-104703332D01*
X102015000Y-104703332D02*
X101919761Y-104750951D01*
X101919761Y-104750951D02*
X101824523Y-104750951D01*
X101824523Y-104750951D02*
X101729285Y-104703332D01*
X101729285Y-104703332D02*
X101681666Y-104608094D01*
X101681666Y-104608094D02*
X101681666Y-104369999D01*
X101681666Y-104369999D02*
X101634047Y-104274761D01*
X102062619Y-103798570D02*
X101395952Y-103798570D01*
X101491190Y-103798570D02*
X101443571Y-103750951D01*
X101443571Y-103750951D02*
X101395952Y-103655713D01*
X101395952Y-103655713D02*
X101395952Y-103512856D01*
X101395952Y-103512856D02*
X101443571Y-103417618D01*
X101443571Y-103417618D02*
X101538809Y-103369999D01*
X101538809Y-103369999D02*
X102062619Y-103369999D01*
X101538809Y-103369999D02*
X101443571Y-103322380D01*
X101443571Y-103322380D02*
X101395952Y-103227142D01*
X101395952Y-103227142D02*
X101395952Y-103084285D01*
X101395952Y-103084285D02*
X101443571Y-102989046D01*
X101443571Y-102989046D02*
X101538809Y-102941427D01*
X101538809Y-102941427D02*
X102062619Y-102941427D01*
X101395952Y-102560475D02*
X102062619Y-102369999D01*
X102062619Y-102369999D02*
X101586428Y-102179523D01*
X101586428Y-102179523D02*
X102062619Y-101989047D01*
X102062619Y-101989047D02*
X101395952Y-101798571D01*
X102062619Y-101274761D02*
X102015000Y-101369999D01*
X102015000Y-101369999D02*
X101967380Y-101417618D01*
X101967380Y-101417618D02*
X101872142Y-101465237D01*
X101872142Y-101465237D02*
X101586428Y-101465237D01*
X101586428Y-101465237D02*
X101491190Y-101417618D01*
X101491190Y-101417618D02*
X101443571Y-101369999D01*
X101443571Y-101369999D02*
X101395952Y-101274761D01*
X101395952Y-101274761D02*
X101395952Y-101131904D01*
X101395952Y-101131904D02*
X101443571Y-101036666D01*
X101443571Y-101036666D02*
X101491190Y-100989047D01*
X101491190Y-100989047D02*
X101586428Y-100941428D01*
X101586428Y-100941428D02*
X101872142Y-100941428D01*
X101872142Y-100941428D02*
X101967380Y-100989047D01*
X101967380Y-100989047D02*
X102015000Y-101036666D01*
X102015000Y-101036666D02*
X102062619Y-101131904D01*
X102062619Y-101131904D02*
X102062619Y-101274761D01*
X102062619Y-100369999D02*
X102015000Y-100465237D01*
X102015000Y-100465237D02*
X101967380Y-100512856D01*
X101967380Y-100512856D02*
X101872142Y-100560475D01*
X101872142Y-100560475D02*
X101586428Y-100560475D01*
X101586428Y-100560475D02*
X101491190Y-100512856D01*
X101491190Y-100512856D02*
X101443571Y-100465237D01*
X101443571Y-100465237D02*
X101395952Y-100369999D01*
X101395952Y-100369999D02*
X101395952Y-100227142D01*
X101395952Y-100227142D02*
X101443571Y-100131904D01*
X101443571Y-100131904D02*
X101491190Y-100084285D01*
X101491190Y-100084285D02*
X101586428Y-100036666D01*
X101586428Y-100036666D02*
X101872142Y-100036666D01*
X101872142Y-100036666D02*
X101967380Y-100084285D01*
X101967380Y-100084285D02*
X102015000Y-100131904D01*
X102015000Y-100131904D02*
X102062619Y-100227142D01*
X102062619Y-100227142D02*
X102062619Y-100369999D01*
X116302619Y-95218094D02*
X116302619Y-94599047D01*
X116302619Y-94599047D02*
X116683571Y-94932380D01*
X116683571Y-94932380D02*
X116683571Y-94789523D01*
X116683571Y-94789523D02*
X116731190Y-94694285D01*
X116731190Y-94694285D02*
X116778809Y-94646666D01*
X116778809Y-94646666D02*
X116874047Y-94599047D01*
X116874047Y-94599047D02*
X117112142Y-94599047D01*
X117112142Y-94599047D02*
X117207380Y-94646666D01*
X117207380Y-94646666D02*
X117255000Y-94694285D01*
X117255000Y-94694285D02*
X117302619Y-94789523D01*
X117302619Y-94789523D02*
X117302619Y-95075237D01*
X117302619Y-95075237D02*
X117255000Y-95170475D01*
X117255000Y-95170475D02*
X117207380Y-95218094D01*
X116302619Y-94313332D02*
X117302619Y-93979999D01*
X117302619Y-93979999D02*
X116302619Y-93646666D01*
X116302619Y-93408570D02*
X116302619Y-92789523D01*
X116302619Y-92789523D02*
X116683571Y-93122856D01*
X116683571Y-93122856D02*
X116683571Y-92979999D01*
X116683571Y-92979999D02*
X116731190Y-92884761D01*
X116731190Y-92884761D02*
X116778809Y-92837142D01*
X116778809Y-92837142D02*
X116874047Y-92789523D01*
X116874047Y-92789523D02*
X117112142Y-92789523D01*
X117112142Y-92789523D02*
X117207380Y-92837142D01*
X117207380Y-92837142D02*
X117255000Y-92884761D01*
X117255000Y-92884761D02*
X117302619Y-92979999D01*
X117302619Y-92979999D02*
X117302619Y-93265713D01*
X117302619Y-93265713D02*
X117255000Y-93360951D01*
X117255000Y-93360951D02*
X117207380Y-93408570D01*
X104602619Y-94718094D02*
X103602619Y-94718094D01*
X103602619Y-94718094D02*
X103602619Y-94479999D01*
X103602619Y-94479999D02*
X103650238Y-94337142D01*
X103650238Y-94337142D02*
X103745476Y-94241904D01*
X103745476Y-94241904D02*
X103840714Y-94194285D01*
X103840714Y-94194285D02*
X104031190Y-94146666D01*
X104031190Y-94146666D02*
X104174047Y-94146666D01*
X104174047Y-94146666D02*
X104364523Y-94194285D01*
X104364523Y-94194285D02*
X104459761Y-94241904D01*
X104459761Y-94241904D02*
X104555000Y-94337142D01*
X104555000Y-94337142D02*
X104602619Y-94479999D01*
X104602619Y-94479999D02*
X104602619Y-94718094D01*
X103602619Y-93527618D02*
X103602619Y-93432380D01*
X103602619Y-93432380D02*
X103650238Y-93337142D01*
X103650238Y-93337142D02*
X103697857Y-93289523D01*
X103697857Y-93289523D02*
X103793095Y-93241904D01*
X103793095Y-93241904D02*
X103983571Y-93194285D01*
X103983571Y-93194285D02*
X104221666Y-93194285D01*
X104221666Y-93194285D02*
X104412142Y-93241904D01*
X104412142Y-93241904D02*
X104507380Y-93289523D01*
X104507380Y-93289523D02*
X104555000Y-93337142D01*
X104555000Y-93337142D02*
X104602619Y-93432380D01*
X104602619Y-93432380D02*
X104602619Y-93527618D01*
X104602619Y-93527618D02*
X104555000Y-93622856D01*
X104555000Y-93622856D02*
X104507380Y-93670475D01*
X104507380Y-93670475D02*
X104412142Y-93718094D01*
X104412142Y-93718094D02*
X104221666Y-93765713D01*
X104221666Y-93765713D02*
X103983571Y-93765713D01*
X103983571Y-93765713D02*
X103793095Y-93718094D01*
X103793095Y-93718094D02*
X103697857Y-93670475D01*
X103697857Y-93670475D02*
X103650238Y-93622856D01*
X103650238Y-93622856D02*
X103602619Y-93527618D01*
X136670238Y-94741904D02*
X136622619Y-94837142D01*
X136622619Y-94837142D02*
X136622619Y-94979999D01*
X136622619Y-94979999D02*
X136670238Y-95122856D01*
X136670238Y-95122856D02*
X136765476Y-95218094D01*
X136765476Y-95218094D02*
X136860714Y-95265713D01*
X136860714Y-95265713D02*
X137051190Y-95313332D01*
X137051190Y-95313332D02*
X137194047Y-95313332D01*
X137194047Y-95313332D02*
X137384523Y-95265713D01*
X137384523Y-95265713D02*
X137479761Y-95218094D01*
X137479761Y-95218094D02*
X137575000Y-95122856D01*
X137575000Y-95122856D02*
X137622619Y-94979999D01*
X137622619Y-94979999D02*
X137622619Y-94884761D01*
X137622619Y-94884761D02*
X137575000Y-94741904D01*
X137575000Y-94741904D02*
X137527380Y-94694285D01*
X137527380Y-94694285D02*
X137194047Y-94694285D01*
X137194047Y-94694285D02*
X137194047Y-94884761D01*
X137622619Y-94265713D02*
X136622619Y-94265713D01*
X136622619Y-94265713D02*
X137622619Y-93694285D01*
X137622619Y-93694285D02*
X136622619Y-93694285D01*
X137622619Y-93218094D02*
X136622619Y-93218094D01*
X136622619Y-93218094D02*
X136622619Y-92979999D01*
X136622619Y-92979999D02*
X136670238Y-92837142D01*
X136670238Y-92837142D02*
X136765476Y-92741904D01*
X136765476Y-92741904D02*
X136860714Y-92694285D01*
X136860714Y-92694285D02*
X137051190Y-92646666D01*
X137051190Y-92646666D02*
X137194047Y-92646666D01*
X137194047Y-92646666D02*
X137384523Y-92694285D01*
X137384523Y-92694285D02*
X137479761Y-92741904D01*
X137479761Y-92741904D02*
X137575000Y-92837142D01*
X137575000Y-92837142D02*
X137622619Y-92979999D01*
X137622619Y-92979999D02*
X137622619Y-93218094D01*
X109682619Y-112664761D02*
X109015952Y-112664761D01*
X109206428Y-112664761D02*
X109111190Y-112617142D01*
X109111190Y-112617142D02*
X109063571Y-112569523D01*
X109063571Y-112569523D02*
X109015952Y-112474285D01*
X109015952Y-112474285D02*
X109015952Y-112379047D01*
X109635000Y-111664761D02*
X109682619Y-111759999D01*
X109682619Y-111759999D02*
X109682619Y-111950475D01*
X109682619Y-111950475D02*
X109635000Y-112045713D01*
X109635000Y-112045713D02*
X109539761Y-112093332D01*
X109539761Y-112093332D02*
X109158809Y-112093332D01*
X109158809Y-112093332D02*
X109063571Y-112045713D01*
X109063571Y-112045713D02*
X109015952Y-111950475D01*
X109015952Y-111950475D02*
X109015952Y-111759999D01*
X109015952Y-111759999D02*
X109063571Y-111664761D01*
X109063571Y-111664761D02*
X109158809Y-111617142D01*
X109158809Y-111617142D02*
X109254047Y-111617142D01*
X109254047Y-111617142D02*
X109349285Y-112093332D01*
X109635000Y-111236189D02*
X109682619Y-111140951D01*
X109682619Y-111140951D02*
X109682619Y-110950475D01*
X109682619Y-110950475D02*
X109635000Y-110855237D01*
X109635000Y-110855237D02*
X109539761Y-110807618D01*
X109539761Y-110807618D02*
X109492142Y-110807618D01*
X109492142Y-110807618D02*
X109396904Y-110855237D01*
X109396904Y-110855237D02*
X109349285Y-110950475D01*
X109349285Y-110950475D02*
X109349285Y-111093332D01*
X109349285Y-111093332D02*
X109301666Y-111188570D01*
X109301666Y-111188570D02*
X109206428Y-111236189D01*
X109206428Y-111236189D02*
X109158809Y-111236189D01*
X109158809Y-111236189D02*
X109063571Y-111188570D01*
X109063571Y-111188570D02*
X109015952Y-111093332D01*
X109015952Y-111093332D02*
X109015952Y-110950475D01*
X109015952Y-110950475D02*
X109063571Y-110855237D01*
X139162619Y-95218094D02*
X139162619Y-94599047D01*
X139162619Y-94599047D02*
X139543571Y-94932380D01*
X139543571Y-94932380D02*
X139543571Y-94789523D01*
X139543571Y-94789523D02*
X139591190Y-94694285D01*
X139591190Y-94694285D02*
X139638809Y-94646666D01*
X139638809Y-94646666D02*
X139734047Y-94599047D01*
X139734047Y-94599047D02*
X139972142Y-94599047D01*
X139972142Y-94599047D02*
X140067380Y-94646666D01*
X140067380Y-94646666D02*
X140115000Y-94694285D01*
X140115000Y-94694285D02*
X140162619Y-94789523D01*
X140162619Y-94789523D02*
X140162619Y-95075237D01*
X140162619Y-95075237D02*
X140115000Y-95170475D01*
X140115000Y-95170475D02*
X140067380Y-95218094D01*
X139162619Y-94313332D02*
X140162619Y-93979999D01*
X140162619Y-93979999D02*
X139162619Y-93646666D01*
X139162619Y-93408570D02*
X139162619Y-92789523D01*
X139162619Y-92789523D02*
X139543571Y-93122856D01*
X139543571Y-93122856D02*
X139543571Y-92979999D01*
X139543571Y-92979999D02*
X139591190Y-92884761D01*
X139591190Y-92884761D02*
X139638809Y-92837142D01*
X139638809Y-92837142D02*
X139734047Y-92789523D01*
X139734047Y-92789523D02*
X139972142Y-92789523D01*
X139972142Y-92789523D02*
X140067380Y-92837142D01*
X140067380Y-92837142D02*
X140115000Y-92884761D01*
X140115000Y-92884761D02*
X140162619Y-92979999D01*
X140162619Y-92979999D02*
X140162619Y-93265713D01*
X140162619Y-93265713D02*
X140115000Y-93360951D01*
X140115000Y-93360951D02*
X140067380Y-93408570D01*
X107142619Y-112664761D02*
X106475952Y-112664761D01*
X106666428Y-112664761D02*
X106571190Y-112617142D01*
X106571190Y-112617142D02*
X106523571Y-112569523D01*
X106523571Y-112569523D02*
X106475952Y-112474285D01*
X106475952Y-112474285D02*
X106475952Y-112379047D01*
X107095000Y-111664761D02*
X107142619Y-111759999D01*
X107142619Y-111759999D02*
X107142619Y-111950475D01*
X107142619Y-111950475D02*
X107095000Y-112045713D01*
X107095000Y-112045713D02*
X106999761Y-112093332D01*
X106999761Y-112093332D02*
X106618809Y-112093332D01*
X106618809Y-112093332D02*
X106523571Y-112045713D01*
X106523571Y-112045713D02*
X106475952Y-111950475D01*
X106475952Y-111950475D02*
X106475952Y-111759999D01*
X106475952Y-111759999D02*
X106523571Y-111664761D01*
X106523571Y-111664761D02*
X106618809Y-111617142D01*
X106618809Y-111617142D02*
X106714047Y-111617142D01*
X106714047Y-111617142D02*
X106809285Y-112093332D01*
X107095000Y-111236189D02*
X107142619Y-111140951D01*
X107142619Y-111140951D02*
X107142619Y-110950475D01*
X107142619Y-110950475D02*
X107095000Y-110855237D01*
X107095000Y-110855237D02*
X106999761Y-110807618D01*
X106999761Y-110807618D02*
X106952142Y-110807618D01*
X106952142Y-110807618D02*
X106856904Y-110855237D01*
X106856904Y-110855237D02*
X106809285Y-110950475D01*
X106809285Y-110950475D02*
X106809285Y-111093332D01*
X106809285Y-111093332D02*
X106761666Y-111188570D01*
X106761666Y-111188570D02*
X106666428Y-111236189D01*
X106666428Y-111236189D02*
X106618809Y-111236189D01*
X106618809Y-111236189D02*
X106523571Y-111188570D01*
X106523571Y-111188570D02*
X106475952Y-111093332D01*
X106475952Y-111093332D02*
X106475952Y-110950475D01*
X106475952Y-110950475D02*
X106523571Y-110855237D01*
X107142619Y-94718094D02*
X106142619Y-94718094D01*
X106142619Y-94718094D02*
X106142619Y-94479999D01*
X106142619Y-94479999D02*
X106190238Y-94337142D01*
X106190238Y-94337142D02*
X106285476Y-94241904D01*
X106285476Y-94241904D02*
X106380714Y-94194285D01*
X106380714Y-94194285D02*
X106571190Y-94146666D01*
X106571190Y-94146666D02*
X106714047Y-94146666D01*
X106714047Y-94146666D02*
X106904523Y-94194285D01*
X106904523Y-94194285D02*
X106999761Y-94241904D01*
X106999761Y-94241904D02*
X107095000Y-94337142D01*
X107095000Y-94337142D02*
X107142619Y-94479999D01*
X107142619Y-94479999D02*
X107142619Y-94718094D01*
X107142619Y-93194285D02*
X107142619Y-93765713D01*
X107142619Y-93479999D02*
X106142619Y-93479999D01*
X106142619Y-93479999D02*
X106285476Y-93575237D01*
X106285476Y-93575237D02*
X106380714Y-93670475D01*
X106380714Y-93670475D02*
X106428333Y-93765713D01*
X104316904Y-112474285D02*
X104316904Y-111998095D01*
X104602619Y-112569523D02*
X103602619Y-112236190D01*
X103602619Y-112236190D02*
X104602619Y-111902857D01*
X103602619Y-111379047D02*
X103602619Y-111283809D01*
X103602619Y-111283809D02*
X103650238Y-111188571D01*
X103650238Y-111188571D02*
X103697857Y-111140952D01*
X103697857Y-111140952D02*
X103793095Y-111093333D01*
X103793095Y-111093333D02*
X103983571Y-111045714D01*
X103983571Y-111045714D02*
X104221666Y-111045714D01*
X104221666Y-111045714D02*
X104412142Y-111093333D01*
X104412142Y-111093333D02*
X104507380Y-111140952D01*
X104507380Y-111140952D02*
X104555000Y-111188571D01*
X104555000Y-111188571D02*
X104602619Y-111283809D01*
X104602619Y-111283809D02*
X104602619Y-111379047D01*
X104602619Y-111379047D02*
X104555000Y-111474285D01*
X104555000Y-111474285D02*
X104507380Y-111521904D01*
X104507380Y-111521904D02*
X104412142Y-111569523D01*
X104412142Y-111569523D02*
X104221666Y-111617142D01*
X104221666Y-111617142D02*
X103983571Y-111617142D01*
X103983571Y-111617142D02*
X103793095Y-111569523D01*
X103793095Y-111569523D02*
X103697857Y-111521904D01*
X103697857Y-111521904D02*
X103650238Y-111474285D01*
X103650238Y-111474285D02*
X103602619Y-111379047D01*
X122382619Y-94718094D02*
X121382619Y-94718094D01*
X121382619Y-94718094D02*
X121382619Y-94479999D01*
X121382619Y-94479999D02*
X121430238Y-94337142D01*
X121430238Y-94337142D02*
X121525476Y-94241904D01*
X121525476Y-94241904D02*
X121620714Y-94194285D01*
X121620714Y-94194285D02*
X121811190Y-94146666D01*
X121811190Y-94146666D02*
X121954047Y-94146666D01*
X121954047Y-94146666D02*
X122144523Y-94194285D01*
X122144523Y-94194285D02*
X122239761Y-94241904D01*
X122239761Y-94241904D02*
X122335000Y-94337142D01*
X122335000Y-94337142D02*
X122382619Y-94479999D01*
X122382619Y-94479999D02*
X122382619Y-94718094D01*
X121382619Y-93241904D02*
X121382619Y-93718094D01*
X121382619Y-93718094D02*
X121858809Y-93765713D01*
X121858809Y-93765713D02*
X121811190Y-93718094D01*
X121811190Y-93718094D02*
X121763571Y-93622856D01*
X121763571Y-93622856D02*
X121763571Y-93384761D01*
X121763571Y-93384761D02*
X121811190Y-93289523D01*
X121811190Y-93289523D02*
X121858809Y-93241904D01*
X121858809Y-93241904D02*
X121954047Y-93194285D01*
X121954047Y-93194285D02*
X122192142Y-93194285D01*
X122192142Y-93194285D02*
X122287380Y-93241904D01*
X122287380Y-93241904D02*
X122335000Y-93289523D01*
X122335000Y-93289523D02*
X122382619Y-93384761D01*
X122382619Y-93384761D02*
X122382619Y-93622856D01*
X122382619Y-93622856D02*
X122335000Y-93718094D01*
X122335000Y-93718094D02*
X122287380Y-93765713D01*
X112222619Y-94718094D02*
X111222619Y-94718094D01*
X111222619Y-94718094D02*
X111222619Y-94479999D01*
X111222619Y-94479999D02*
X111270238Y-94337142D01*
X111270238Y-94337142D02*
X111365476Y-94241904D01*
X111365476Y-94241904D02*
X111460714Y-94194285D01*
X111460714Y-94194285D02*
X111651190Y-94146666D01*
X111651190Y-94146666D02*
X111794047Y-94146666D01*
X111794047Y-94146666D02*
X111984523Y-94194285D01*
X111984523Y-94194285D02*
X112079761Y-94241904D01*
X112079761Y-94241904D02*
X112175000Y-94337142D01*
X112175000Y-94337142D02*
X112222619Y-94479999D01*
X112222619Y-94479999D02*
X112222619Y-94718094D01*
X111222619Y-93813332D02*
X111222619Y-93194285D01*
X111222619Y-93194285D02*
X111603571Y-93527618D01*
X111603571Y-93527618D02*
X111603571Y-93384761D01*
X111603571Y-93384761D02*
X111651190Y-93289523D01*
X111651190Y-93289523D02*
X111698809Y-93241904D01*
X111698809Y-93241904D02*
X111794047Y-93194285D01*
X111794047Y-93194285D02*
X112032142Y-93194285D01*
X112032142Y-93194285D02*
X112127380Y-93241904D01*
X112127380Y-93241904D02*
X112175000Y-93289523D01*
X112175000Y-93289523D02*
X112222619Y-93384761D01*
X112222619Y-93384761D02*
X112222619Y-93670475D01*
X112222619Y-93670475D02*
X112175000Y-93765713D01*
X112175000Y-93765713D02*
X112127380Y-93813332D01*
X127462619Y-94718094D02*
X126462619Y-94718094D01*
X126462619Y-94718094D02*
X126462619Y-94479999D01*
X126462619Y-94479999D02*
X126510238Y-94337142D01*
X126510238Y-94337142D02*
X126605476Y-94241904D01*
X126605476Y-94241904D02*
X126700714Y-94194285D01*
X126700714Y-94194285D02*
X126891190Y-94146666D01*
X126891190Y-94146666D02*
X127034047Y-94146666D01*
X127034047Y-94146666D02*
X127224523Y-94194285D01*
X127224523Y-94194285D02*
X127319761Y-94241904D01*
X127319761Y-94241904D02*
X127415000Y-94337142D01*
X127415000Y-94337142D02*
X127462619Y-94479999D01*
X127462619Y-94479999D02*
X127462619Y-94718094D01*
X126462619Y-93813332D02*
X126462619Y-93146666D01*
X126462619Y-93146666D02*
X127462619Y-93575237D01*
X114715000Y-112521904D02*
X114762619Y-112379047D01*
X114762619Y-112379047D02*
X114762619Y-112140952D01*
X114762619Y-112140952D02*
X114715000Y-112045714D01*
X114715000Y-112045714D02*
X114667380Y-111998095D01*
X114667380Y-111998095D02*
X114572142Y-111950476D01*
X114572142Y-111950476D02*
X114476904Y-111950476D01*
X114476904Y-111950476D02*
X114381666Y-111998095D01*
X114381666Y-111998095D02*
X114334047Y-112045714D01*
X114334047Y-112045714D02*
X114286428Y-112140952D01*
X114286428Y-112140952D02*
X114238809Y-112331428D01*
X114238809Y-112331428D02*
X114191190Y-112426666D01*
X114191190Y-112426666D02*
X114143571Y-112474285D01*
X114143571Y-112474285D02*
X114048333Y-112521904D01*
X114048333Y-112521904D02*
X113953095Y-112521904D01*
X113953095Y-112521904D02*
X113857857Y-112474285D01*
X113857857Y-112474285D02*
X113810238Y-112426666D01*
X113810238Y-112426666D02*
X113762619Y-112331428D01*
X113762619Y-112331428D02*
X113762619Y-112093333D01*
X113762619Y-112093333D02*
X113810238Y-111950476D01*
X113857857Y-111569523D02*
X113810238Y-111521904D01*
X113810238Y-111521904D02*
X113762619Y-111426666D01*
X113762619Y-111426666D02*
X113762619Y-111188571D01*
X113762619Y-111188571D02*
X113810238Y-111093333D01*
X113810238Y-111093333D02*
X113857857Y-111045714D01*
X113857857Y-111045714D02*
X113953095Y-110998095D01*
X113953095Y-110998095D02*
X114048333Y-110998095D01*
X114048333Y-110998095D02*
X114191190Y-111045714D01*
X114191190Y-111045714D02*
X114762619Y-111617142D01*
X114762619Y-111617142D02*
X114762619Y-110998095D01*
X124922619Y-94718094D02*
X123922619Y-94718094D01*
X123922619Y-94718094D02*
X123922619Y-94479999D01*
X123922619Y-94479999D02*
X123970238Y-94337142D01*
X123970238Y-94337142D02*
X124065476Y-94241904D01*
X124065476Y-94241904D02*
X124160714Y-94194285D01*
X124160714Y-94194285D02*
X124351190Y-94146666D01*
X124351190Y-94146666D02*
X124494047Y-94146666D01*
X124494047Y-94146666D02*
X124684523Y-94194285D01*
X124684523Y-94194285D02*
X124779761Y-94241904D01*
X124779761Y-94241904D02*
X124875000Y-94337142D01*
X124875000Y-94337142D02*
X124922619Y-94479999D01*
X124922619Y-94479999D02*
X124922619Y-94718094D01*
X123922619Y-93289523D02*
X123922619Y-93479999D01*
X123922619Y-93479999D02*
X123970238Y-93575237D01*
X123970238Y-93575237D02*
X124017857Y-93622856D01*
X124017857Y-93622856D02*
X124160714Y-93718094D01*
X124160714Y-93718094D02*
X124351190Y-93765713D01*
X124351190Y-93765713D02*
X124732142Y-93765713D01*
X124732142Y-93765713D02*
X124827380Y-93718094D01*
X124827380Y-93718094D02*
X124875000Y-93670475D01*
X124875000Y-93670475D02*
X124922619Y-93575237D01*
X124922619Y-93575237D02*
X124922619Y-93384761D01*
X124922619Y-93384761D02*
X124875000Y-93289523D01*
X124875000Y-93289523D02*
X124827380Y-93241904D01*
X124827380Y-93241904D02*
X124732142Y-93194285D01*
X124732142Y-93194285D02*
X124494047Y-93194285D01*
X124494047Y-93194285D02*
X124398809Y-93241904D01*
X124398809Y-93241904D02*
X124351190Y-93289523D01*
X124351190Y-93289523D02*
X124303571Y-93384761D01*
X124303571Y-93384761D02*
X124303571Y-93575237D01*
X124303571Y-93575237D02*
X124351190Y-93670475D01*
X124351190Y-93670475D02*
X124398809Y-93718094D01*
X124398809Y-93718094D02*
X124494047Y-93765713D01*
X132018809Y-112498094D02*
X132018809Y-112164761D01*
X132542619Y-112021904D02*
X132542619Y-112498094D01*
X132542619Y-112498094D02*
X131542619Y-112498094D01*
X131542619Y-112498094D02*
X131542619Y-112021904D01*
X132542619Y-111593332D02*
X131542619Y-111593332D01*
X131542619Y-111593332D02*
X132542619Y-111021904D01*
X132542619Y-111021904D02*
X131542619Y-111021904D01*
X122335000Y-113069523D02*
X122382619Y-112926666D01*
X122382619Y-112926666D02*
X122382619Y-112688571D01*
X122382619Y-112688571D02*
X122335000Y-112593333D01*
X122335000Y-112593333D02*
X122287380Y-112545714D01*
X122287380Y-112545714D02*
X122192142Y-112498095D01*
X122192142Y-112498095D02*
X122096904Y-112498095D01*
X122096904Y-112498095D02*
X122001666Y-112545714D01*
X122001666Y-112545714D02*
X121954047Y-112593333D01*
X121954047Y-112593333D02*
X121906428Y-112688571D01*
X121906428Y-112688571D02*
X121858809Y-112879047D01*
X121858809Y-112879047D02*
X121811190Y-112974285D01*
X121811190Y-112974285D02*
X121763571Y-113021904D01*
X121763571Y-113021904D02*
X121668333Y-113069523D01*
X121668333Y-113069523D02*
X121573095Y-113069523D01*
X121573095Y-113069523D02*
X121477857Y-113021904D01*
X121477857Y-113021904D02*
X121430238Y-112974285D01*
X121430238Y-112974285D02*
X121382619Y-112879047D01*
X121382619Y-112879047D02*
X121382619Y-112640952D01*
X121382619Y-112640952D02*
X121430238Y-112498095D01*
X122382619Y-112069523D02*
X121382619Y-112069523D01*
X121382619Y-112069523D02*
X121382619Y-111831428D01*
X121382619Y-111831428D02*
X121430238Y-111688571D01*
X121430238Y-111688571D02*
X121525476Y-111593333D01*
X121525476Y-111593333D02*
X121620714Y-111545714D01*
X121620714Y-111545714D02*
X121811190Y-111498095D01*
X121811190Y-111498095D02*
X121954047Y-111498095D01*
X121954047Y-111498095D02*
X122144523Y-111545714D01*
X122144523Y-111545714D02*
X122239761Y-111593333D01*
X122239761Y-111593333D02*
X122335000Y-111688571D01*
X122335000Y-111688571D02*
X122382619Y-111831428D01*
X122382619Y-111831428D02*
X122382619Y-112069523D01*
X121382619Y-110879047D02*
X121382619Y-110688571D01*
X121382619Y-110688571D02*
X121430238Y-110593333D01*
X121430238Y-110593333D02*
X121525476Y-110498095D01*
X121525476Y-110498095D02*
X121715952Y-110450476D01*
X121715952Y-110450476D02*
X122049285Y-110450476D01*
X122049285Y-110450476D02*
X122239761Y-110498095D01*
X122239761Y-110498095D02*
X122335000Y-110593333D01*
X122335000Y-110593333D02*
X122382619Y-110688571D01*
X122382619Y-110688571D02*
X122382619Y-110879047D01*
X122382619Y-110879047D02*
X122335000Y-110974285D01*
X122335000Y-110974285D02*
X122239761Y-111069523D01*
X122239761Y-111069523D02*
X122049285Y-111117142D01*
X122049285Y-111117142D02*
X121715952Y-111117142D01*
X121715952Y-111117142D02*
X121525476Y-111069523D01*
X121525476Y-111069523D02*
X121430238Y-110974285D01*
X121430238Y-110974285D02*
X121382619Y-110879047D01*
X139162619Y-112855237D02*
X140162619Y-112521904D01*
X140162619Y-112521904D02*
X139162619Y-112188571D01*
X140162619Y-111855237D02*
X139162619Y-111855237D01*
X140162619Y-111379047D02*
X139162619Y-111379047D01*
X139162619Y-111379047D02*
X140162619Y-110807619D01*
X140162619Y-110807619D02*
X139162619Y-110807619D01*
X136670238Y-112521904D02*
X136622619Y-112617142D01*
X136622619Y-112617142D02*
X136622619Y-112759999D01*
X136622619Y-112759999D02*
X136670238Y-112902856D01*
X136670238Y-112902856D02*
X136765476Y-112998094D01*
X136765476Y-112998094D02*
X136860714Y-113045713D01*
X136860714Y-113045713D02*
X137051190Y-113093332D01*
X137051190Y-113093332D02*
X137194047Y-113093332D01*
X137194047Y-113093332D02*
X137384523Y-113045713D01*
X137384523Y-113045713D02*
X137479761Y-112998094D01*
X137479761Y-112998094D02*
X137575000Y-112902856D01*
X137575000Y-112902856D02*
X137622619Y-112759999D01*
X137622619Y-112759999D02*
X137622619Y-112664761D01*
X137622619Y-112664761D02*
X137575000Y-112521904D01*
X137575000Y-112521904D02*
X137527380Y-112474285D01*
X137527380Y-112474285D02*
X137194047Y-112474285D01*
X137194047Y-112474285D02*
X137194047Y-112664761D01*
X137622619Y-112045713D02*
X136622619Y-112045713D01*
X136622619Y-112045713D02*
X137622619Y-111474285D01*
X137622619Y-111474285D02*
X136622619Y-111474285D01*
X137622619Y-110998094D02*
X136622619Y-110998094D01*
X136622619Y-110998094D02*
X136622619Y-110759999D01*
X136622619Y-110759999D02*
X136670238Y-110617142D01*
X136670238Y-110617142D02*
X136765476Y-110521904D01*
X136765476Y-110521904D02*
X136860714Y-110474285D01*
X136860714Y-110474285D02*
X137051190Y-110426666D01*
X137051190Y-110426666D02*
X137194047Y-110426666D01*
X137194047Y-110426666D02*
X137384523Y-110474285D01*
X137384523Y-110474285D02*
X137479761Y-110521904D01*
X137479761Y-110521904D02*
X137575000Y-110617142D01*
X137575000Y-110617142D02*
X137622619Y-110759999D01*
X137622619Y-110759999D02*
X137622619Y-110998094D01*
X118890238Y-94741904D02*
X118842619Y-94837142D01*
X118842619Y-94837142D02*
X118842619Y-94979999D01*
X118842619Y-94979999D02*
X118890238Y-95122856D01*
X118890238Y-95122856D02*
X118985476Y-95218094D01*
X118985476Y-95218094D02*
X119080714Y-95265713D01*
X119080714Y-95265713D02*
X119271190Y-95313332D01*
X119271190Y-95313332D02*
X119414047Y-95313332D01*
X119414047Y-95313332D02*
X119604523Y-95265713D01*
X119604523Y-95265713D02*
X119699761Y-95218094D01*
X119699761Y-95218094D02*
X119795000Y-95122856D01*
X119795000Y-95122856D02*
X119842619Y-94979999D01*
X119842619Y-94979999D02*
X119842619Y-94884761D01*
X119842619Y-94884761D02*
X119795000Y-94741904D01*
X119795000Y-94741904D02*
X119747380Y-94694285D01*
X119747380Y-94694285D02*
X119414047Y-94694285D01*
X119414047Y-94694285D02*
X119414047Y-94884761D01*
X119842619Y-94265713D02*
X118842619Y-94265713D01*
X118842619Y-94265713D02*
X119842619Y-93694285D01*
X119842619Y-93694285D02*
X118842619Y-93694285D01*
X119842619Y-93218094D02*
X118842619Y-93218094D01*
X118842619Y-93218094D02*
X118842619Y-92979999D01*
X118842619Y-92979999D02*
X118890238Y-92837142D01*
X118890238Y-92837142D02*
X118985476Y-92741904D01*
X118985476Y-92741904D02*
X119080714Y-92694285D01*
X119080714Y-92694285D02*
X119271190Y-92646666D01*
X119271190Y-92646666D02*
X119414047Y-92646666D01*
X119414047Y-92646666D02*
X119604523Y-92694285D01*
X119604523Y-92694285D02*
X119699761Y-92741904D01*
X119699761Y-92741904D02*
X119795000Y-92837142D01*
X119795000Y-92837142D02*
X119842619Y-92979999D01*
X119842619Y-92979999D02*
X119842619Y-93218094D01*
D12*
%TO.C,1x4 2.54mm Wafer*%
X109154124Y-80186638D02*
X109439838Y-80186638D01*
X109439838Y-80186638D02*
X109439838Y-80786638D01*
X108725553Y-80215210D02*
X108782696Y-80186638D01*
X108782696Y-80186638D02*
X108896982Y-80186638D01*
X108896982Y-80186638D02*
X108954124Y-80215210D01*
X108954124Y-80215210D02*
X108982696Y-80272352D01*
X108982696Y-80272352D02*
X108982696Y-80500924D01*
X108982696Y-80500924D02*
X108954124Y-80558067D01*
X108954124Y-80558067D02*
X108896982Y-80586638D01*
X108896982Y-80586638D02*
X108782696Y-80586638D01*
X108782696Y-80586638D02*
X108725553Y-80558067D01*
X108725553Y-80558067D02*
X108696982Y-80500924D01*
X108696982Y-80500924D02*
X108696982Y-80443781D01*
X108696982Y-80443781D02*
X108982696Y-80386638D01*
X108354124Y-80186638D02*
X108411267Y-80215210D01*
X108411267Y-80215210D02*
X108439838Y-80272352D01*
X108439838Y-80272352D02*
X108439838Y-80786638D01*
X107868410Y-80186638D02*
X107868410Y-80500924D01*
X107868410Y-80500924D02*
X107896981Y-80558067D01*
X107896981Y-80558067D02*
X107954124Y-80586638D01*
X107954124Y-80586638D02*
X108068410Y-80586638D01*
X108068410Y-80586638D02*
X108125552Y-80558067D01*
X107868410Y-80215210D02*
X107925552Y-80186638D01*
X107925552Y-80186638D02*
X108068410Y-80186638D01*
X108068410Y-80186638D02*
X108125552Y-80215210D01*
X108125552Y-80215210D02*
X108154124Y-80272352D01*
X108154124Y-80272352D02*
X108154124Y-80329495D01*
X108154124Y-80329495D02*
X108125552Y-80386638D01*
X108125552Y-80386638D02*
X108068410Y-80415210D01*
X108068410Y-80415210D02*
X107925552Y-80415210D01*
X107925552Y-80415210D02*
X107868410Y-80443781D01*
X107639838Y-80586638D02*
X107496981Y-80186638D01*
X107354124Y-80586638D02*
X107496981Y-80186638D01*
X107496981Y-80186638D02*
X107554124Y-80043781D01*
X107554124Y-80043781D02*
X107582695Y-80015210D01*
X107582695Y-80015210D02*
X107639838Y-79986638D01*
X106382695Y-80786638D02*
X106668409Y-80786638D01*
X106668409Y-80786638D02*
X106696981Y-80500924D01*
X106696981Y-80500924D02*
X106668409Y-80529495D01*
X106668409Y-80529495D02*
X106611267Y-80558067D01*
X106611267Y-80558067D02*
X106468409Y-80558067D01*
X106468409Y-80558067D02*
X106411267Y-80529495D01*
X106411267Y-80529495D02*
X106382695Y-80500924D01*
X106382695Y-80500924D02*
X106354124Y-80443781D01*
X106354124Y-80443781D02*
X106354124Y-80300924D01*
X106354124Y-80300924D02*
X106382695Y-80243781D01*
X106382695Y-80243781D02*
X106411267Y-80215210D01*
X106411267Y-80215210D02*
X106468409Y-80186638D01*
X106468409Y-80186638D02*
X106611267Y-80186638D01*
X106611267Y-80186638D02*
X106668409Y-80215210D01*
X106668409Y-80215210D02*
X106696981Y-80243781D01*
X106182695Y-80786638D02*
X105982695Y-80186638D01*
X105982695Y-80186638D02*
X105782695Y-80786638D01*
X145984124Y-80186638D02*
X146269838Y-80186638D01*
X146269838Y-80186638D02*
X146269838Y-80786638D01*
X145526982Y-80186638D02*
X145526982Y-80500924D01*
X145526982Y-80500924D02*
X145555553Y-80558067D01*
X145555553Y-80558067D02*
X145612696Y-80586638D01*
X145612696Y-80586638D02*
X145726982Y-80586638D01*
X145726982Y-80586638D02*
X145784124Y-80558067D01*
X145526982Y-80215210D02*
X145584124Y-80186638D01*
X145584124Y-80186638D02*
X145726982Y-80186638D01*
X145726982Y-80186638D02*
X145784124Y-80215210D01*
X145784124Y-80215210D02*
X145812696Y-80272352D01*
X145812696Y-80272352D02*
X145812696Y-80329495D01*
X145812696Y-80329495D02*
X145784124Y-80386638D01*
X145784124Y-80386638D02*
X145726982Y-80415210D01*
X145726982Y-80415210D02*
X145584124Y-80415210D01*
X145584124Y-80415210D02*
X145526982Y-80443781D01*
X145269839Y-80215210D02*
X145212696Y-80186638D01*
X145212696Y-80186638D02*
X145098410Y-80186638D01*
X145098410Y-80186638D02*
X145041267Y-80215210D01*
X145041267Y-80215210D02*
X145012696Y-80272352D01*
X145012696Y-80272352D02*
X145012696Y-80300924D01*
X145012696Y-80300924D02*
X145041267Y-80358067D01*
X145041267Y-80358067D02*
X145098410Y-80386638D01*
X145098410Y-80386638D02*
X145184125Y-80386638D01*
X145184125Y-80386638D02*
X145241267Y-80415210D01*
X145241267Y-80415210D02*
X145269839Y-80472352D01*
X145269839Y-80472352D02*
X145269839Y-80500924D01*
X145269839Y-80500924D02*
X145241267Y-80558067D01*
X145241267Y-80558067D02*
X145184125Y-80586638D01*
X145184125Y-80586638D02*
X145098410Y-80586638D01*
X145098410Y-80586638D02*
X145041267Y-80558067D01*
X144526982Y-80215210D02*
X144584125Y-80186638D01*
X144584125Y-80186638D02*
X144698411Y-80186638D01*
X144698411Y-80186638D02*
X144755553Y-80215210D01*
X144755553Y-80215210D02*
X144784125Y-80272352D01*
X144784125Y-80272352D02*
X144784125Y-80500924D01*
X144784125Y-80500924D02*
X144755553Y-80558067D01*
X144755553Y-80558067D02*
X144698411Y-80586638D01*
X144698411Y-80586638D02*
X144584125Y-80586638D01*
X144584125Y-80586638D02*
X144526982Y-80558067D01*
X144526982Y-80558067D02*
X144498411Y-80500924D01*
X144498411Y-80500924D02*
X144498411Y-80443781D01*
X144498411Y-80443781D02*
X144784125Y-80386638D01*
X144241267Y-80186638D02*
X144241267Y-80586638D01*
X144241267Y-80472352D02*
X144212696Y-80529495D01*
X144212696Y-80529495D02*
X144184125Y-80558067D01*
X144184125Y-80558067D02*
X144126982Y-80586638D01*
X144126982Y-80586638D02*
X144069839Y-80586638D01*
X143098410Y-80758067D02*
X143155553Y-80786638D01*
X143155553Y-80786638D02*
X143241267Y-80786638D01*
X143241267Y-80786638D02*
X143326981Y-80758067D01*
X143326981Y-80758067D02*
X143384124Y-80700924D01*
X143384124Y-80700924D02*
X143412695Y-80643781D01*
X143412695Y-80643781D02*
X143441267Y-80529495D01*
X143441267Y-80529495D02*
X143441267Y-80443781D01*
X143441267Y-80443781D02*
X143412695Y-80329495D01*
X143412695Y-80329495D02*
X143384124Y-80272352D01*
X143384124Y-80272352D02*
X143326981Y-80215210D01*
X143326981Y-80215210D02*
X143241267Y-80186638D01*
X143241267Y-80186638D02*
X143184124Y-80186638D01*
X143184124Y-80186638D02*
X143098410Y-80215210D01*
X143098410Y-80215210D02*
X143069838Y-80243781D01*
X143069838Y-80243781D02*
X143069838Y-80443781D01*
X143069838Y-80443781D02*
X143184124Y-80443781D01*
X142812695Y-80186638D02*
X142812695Y-80786638D01*
X142812695Y-80786638D02*
X142469838Y-80186638D01*
X142469838Y-80186638D02*
X142469838Y-80786638D01*
X142184124Y-80186638D02*
X142184124Y-80786638D01*
X142184124Y-80786638D02*
X142041267Y-80786638D01*
X142041267Y-80786638D02*
X141955553Y-80758067D01*
X141955553Y-80758067D02*
X141898410Y-80700924D01*
X141898410Y-80700924D02*
X141869839Y-80643781D01*
X141869839Y-80643781D02*
X141841267Y-80529495D01*
X141841267Y-80529495D02*
X141841267Y-80443781D01*
X141841267Y-80443781D02*
X141869839Y-80329495D01*
X141869839Y-80329495D02*
X141898410Y-80272352D01*
X141898410Y-80272352D02*
X141955553Y-80215210D01*
X141955553Y-80215210D02*
X142041267Y-80186638D01*
X142041267Y-80186638D02*
X142184124Y-80186638D01*
X125769838Y-80186638D02*
X125769838Y-80786638D01*
X125484124Y-80186638D02*
X125484124Y-80786638D01*
X125484124Y-80786638D02*
X125141267Y-80186638D01*
X125141267Y-80186638D02*
X125141267Y-80786638D01*
X124912696Y-80786638D02*
X124541268Y-80786638D01*
X124541268Y-80786638D02*
X124741268Y-80558067D01*
X124741268Y-80558067D02*
X124655553Y-80558067D01*
X124655553Y-80558067D02*
X124598411Y-80529495D01*
X124598411Y-80529495D02*
X124569839Y-80500924D01*
X124569839Y-80500924D02*
X124541268Y-80443781D01*
X124541268Y-80443781D02*
X124541268Y-80300924D01*
X124541268Y-80300924D02*
X124569839Y-80243781D01*
X124569839Y-80243781D02*
X124598411Y-80215210D01*
X124598411Y-80215210D02*
X124655553Y-80186638D01*
X124655553Y-80186638D02*
X124826982Y-80186638D01*
X124826982Y-80186638D02*
X124884125Y-80215210D01*
X124884125Y-80215210D02*
X124912696Y-80243781D01*
X130869838Y-80186638D02*
X130869838Y-80786638D01*
X130584124Y-80186638D02*
X130584124Y-80786638D01*
X130584124Y-80786638D02*
X130241267Y-80186638D01*
X130241267Y-80186638D02*
X130241267Y-80786638D01*
X129641268Y-80186638D02*
X129984125Y-80186638D01*
X129812696Y-80186638D02*
X129812696Y-80786638D01*
X129812696Y-80786638D02*
X129869839Y-80700924D01*
X129869839Y-80700924D02*
X129926982Y-80643781D01*
X129926982Y-80643781D02*
X129984125Y-80615210D01*
X128369838Y-80186638D02*
X128369838Y-80786638D01*
X128084124Y-80186638D02*
X128084124Y-80786638D01*
X128084124Y-80786638D02*
X127741267Y-80186638D01*
X127741267Y-80186638D02*
X127741267Y-80786638D01*
X127484125Y-80729495D02*
X127455553Y-80758067D01*
X127455553Y-80758067D02*
X127398411Y-80786638D01*
X127398411Y-80786638D02*
X127255553Y-80786638D01*
X127255553Y-80786638D02*
X127198411Y-80758067D01*
X127198411Y-80758067D02*
X127169839Y-80729495D01*
X127169839Y-80729495D02*
X127141268Y-80672352D01*
X127141268Y-80672352D02*
X127141268Y-80615210D01*
X127141268Y-80615210D02*
X127169839Y-80529495D01*
X127169839Y-80529495D02*
X127512696Y-80186638D01*
X127512696Y-80186638D02*
X127141268Y-80186638D01*
X133255553Y-80758067D02*
X133312696Y-80786638D01*
X133312696Y-80786638D02*
X133398410Y-80786638D01*
X133398410Y-80786638D02*
X133484124Y-80758067D01*
X133484124Y-80758067D02*
X133541267Y-80700924D01*
X133541267Y-80700924D02*
X133569838Y-80643781D01*
X133569838Y-80643781D02*
X133598410Y-80529495D01*
X133598410Y-80529495D02*
X133598410Y-80443781D01*
X133598410Y-80443781D02*
X133569838Y-80329495D01*
X133569838Y-80329495D02*
X133541267Y-80272352D01*
X133541267Y-80272352D02*
X133484124Y-80215210D01*
X133484124Y-80215210D02*
X133398410Y-80186638D01*
X133398410Y-80186638D02*
X133341267Y-80186638D01*
X133341267Y-80186638D02*
X133255553Y-80215210D01*
X133255553Y-80215210D02*
X133226981Y-80243781D01*
X133226981Y-80243781D02*
X133226981Y-80443781D01*
X133226981Y-80443781D02*
X133341267Y-80443781D01*
X132969838Y-80186638D02*
X132969838Y-80786638D01*
X132969838Y-80786638D02*
X132626981Y-80186638D01*
X132626981Y-80186638D02*
X132626981Y-80786638D01*
X132341267Y-80186638D02*
X132341267Y-80786638D01*
X132341267Y-80786638D02*
X132198410Y-80786638D01*
X132198410Y-80786638D02*
X132112696Y-80758067D01*
X132112696Y-80758067D02*
X132055553Y-80700924D01*
X132055553Y-80700924D02*
X132026982Y-80643781D01*
X132026982Y-80643781D02*
X131998410Y-80529495D01*
X131998410Y-80529495D02*
X131998410Y-80443781D01*
X131998410Y-80443781D02*
X132026982Y-80329495D01*
X132026982Y-80329495D02*
X132055553Y-80272352D01*
X132055553Y-80272352D02*
X132112696Y-80215210D01*
X132112696Y-80215210D02*
X132198410Y-80186638D01*
X132198410Y-80186638D02*
X132341267Y-80186638D01*
X123369838Y-80186638D02*
X123369838Y-80786638D01*
X123084124Y-80186638D02*
X123084124Y-80786638D01*
X123084124Y-80786638D02*
X122741267Y-80186638D01*
X122741267Y-80186638D02*
X122741267Y-80786638D01*
X122198411Y-80586638D02*
X122198411Y-80186638D01*
X122341268Y-80815210D02*
X122484125Y-80386638D01*
X122484125Y-80386638D02*
X122112696Y-80386638D01*
X120955553Y-80786638D02*
X120755553Y-80186638D01*
X120755553Y-80186638D02*
X120555553Y-80786638D01*
X120012695Y-80243781D02*
X120041267Y-80215210D01*
X120041267Y-80215210D02*
X120126981Y-80186638D01*
X120126981Y-80186638D02*
X120184124Y-80186638D01*
X120184124Y-80186638D02*
X120269838Y-80215210D01*
X120269838Y-80215210D02*
X120326981Y-80272352D01*
X120326981Y-80272352D02*
X120355552Y-80329495D01*
X120355552Y-80329495D02*
X120384124Y-80443781D01*
X120384124Y-80443781D02*
X120384124Y-80529495D01*
X120384124Y-80529495D02*
X120355552Y-80643781D01*
X120355552Y-80643781D02*
X120326981Y-80700924D01*
X120326981Y-80700924D02*
X120269838Y-80758067D01*
X120269838Y-80758067D02*
X120184124Y-80786638D01*
X120184124Y-80786638D02*
X120126981Y-80786638D01*
X120126981Y-80786638D02*
X120041267Y-80758067D01*
X120041267Y-80758067D02*
X120012695Y-80729495D01*
X119412695Y-80243781D02*
X119441267Y-80215210D01*
X119441267Y-80215210D02*
X119526981Y-80186638D01*
X119526981Y-80186638D02*
X119584124Y-80186638D01*
X119584124Y-80186638D02*
X119669838Y-80215210D01*
X119669838Y-80215210D02*
X119726981Y-80272352D01*
X119726981Y-80272352D02*
X119755552Y-80329495D01*
X119755552Y-80329495D02*
X119784124Y-80443781D01*
X119784124Y-80443781D02*
X119784124Y-80529495D01*
X119784124Y-80529495D02*
X119755552Y-80643781D01*
X119755552Y-80643781D02*
X119726981Y-80700924D01*
X119726981Y-80700924D02*
X119669838Y-80758067D01*
X119669838Y-80758067D02*
X119584124Y-80786638D01*
X119584124Y-80786638D02*
X119526981Y-80786638D01*
X119526981Y-80786638D02*
X119441267Y-80758067D01*
X119441267Y-80758067D02*
X119412695Y-80729495D01*
%TO.C,GND*%
X105890000Y-117150000D02*
X105890000Y-124150000D01*
X97490000Y-117150000D02*
X105890000Y-117150000D01*
X97490000Y-117150000D02*
X97490000Y-124150000D01*
X97490000Y-124150000D02*
X105890000Y-124150000D01*
D13*
%TO.C,LaserPointer ver.A*%
X99060000Y-115570000D02*
X144780000Y-115570000D01*
D12*
X146050000Y-114300000D02*
X146050000Y-91440000D01*
D13*
X104920000Y-108370000D02*
X97790000Y-108370000D01*
X97790000Y-97370000D02*
X104920000Y-97370000D01*
X104920000Y-97370000D02*
X104920000Y-108370000D01*
X97790000Y-91440000D02*
X97790000Y-114300000D01*
X99060000Y-90170000D02*
X144780000Y-90170000D01*
X97790000Y-114300000D02*
G75*
G03*
X99060000Y-115570000I1269999J-1D01*
G01*
X144780000Y-115570000D02*
G75*
G03*
X146050000Y-114300000I1J1269999D01*
G01*
X99060000Y-90170000D02*
G75*
G03*
X97790000Y-91440000I0J-1270000D01*
G01*
X146050000Y-91440000D02*
G75*
G03*
X144780000Y-90170000I-1270000J0D01*
G01*
X101340000Y-113500000D02*
G75*
G03*
X101340000Y-113500000I-1500000J0D01*
G01*
X145010000Y-113030000D02*
G75*
G03*
X145010000Y-113030000I-1500000J0D01*
G01*
X145010000Y-92710000D02*
G75*
G03*
X145010000Y-92710000I-1500000J0D01*
G01*
X101340000Y-92300000D02*
G75*
G03*
X101340000Y-92300000I-1500000J0D01*
G01*
D12*
%TO.C,1x4 2.54mm Wafer*%
X110002696Y-83773210D02*
X110002696Y-81233210D01*
X110002696Y-83773210D02*
X107462696Y-83773210D01*
X107462696Y-83773210D02*
X107462696Y-81233210D01*
X107462696Y-83773210D02*
X107462696Y-81233210D01*
X107462696Y-83773210D02*
X104922696Y-83773210D01*
X107462696Y-81233210D02*
X110002696Y-81233210D01*
X104922696Y-83773210D02*
X104922696Y-81233210D01*
X104922696Y-83773210D02*
X104922696Y-81233210D01*
X104922696Y-83773210D02*
X102382696Y-83773210D01*
X104922696Y-81233210D02*
X107462696Y-81233210D01*
X102382696Y-83773210D02*
X102382696Y-81233210D01*
X102382696Y-83773210D02*
X102382696Y-81233210D01*
X102382696Y-83773210D02*
X99842696Y-83773210D01*
X102382696Y-81233210D02*
X104922696Y-81233210D01*
X99842696Y-83773210D02*
X99842696Y-81233210D01*
X99842696Y-83773210D02*
X99842696Y-81233210D01*
X99842696Y-81233210D02*
X102382696Y-81233210D01*
X146832696Y-83773210D02*
X146832696Y-81233210D01*
X146832696Y-83773210D02*
X144292696Y-83773210D01*
X144292696Y-83773210D02*
X144292696Y-81233210D01*
X144292696Y-83773210D02*
X144292696Y-81233210D01*
X144292696Y-83773210D02*
X141752696Y-83773210D01*
X144292696Y-81233210D02*
X146832696Y-81233210D01*
X141752696Y-83773210D02*
X141752696Y-81233210D01*
X141752696Y-83773210D02*
X141752696Y-81233210D01*
X141752696Y-83773210D02*
X139212696Y-83773210D01*
X141752696Y-81233210D02*
X144292696Y-81233210D01*
X139212696Y-83773210D02*
X139212696Y-81233210D01*
X139212696Y-83773210D02*
X139212696Y-81233210D01*
X139212696Y-83773210D02*
X136672696Y-83773210D01*
X139212696Y-81233210D02*
X141752696Y-81233210D01*
X136672696Y-83773210D02*
X136672696Y-81233210D01*
X136672696Y-83773210D02*
X136672696Y-81233210D01*
X136672696Y-81233210D02*
X139212696Y-81233210D01*
X134132696Y-83773210D02*
X134132696Y-81233210D01*
X134132696Y-83773210D02*
X131592696Y-83773210D01*
X131592696Y-83773210D02*
X131592696Y-81233210D01*
X131592696Y-83773210D02*
X131592696Y-81233210D01*
X131592696Y-83773210D02*
X129052696Y-83773210D01*
X131592696Y-81233210D02*
X134132696Y-81233210D01*
X129052696Y-83773210D02*
X129052696Y-81233210D01*
X129052696Y-83773210D02*
X129052696Y-81233210D01*
X129052696Y-83773210D02*
X126512696Y-83773210D01*
X129052696Y-81233210D02*
X131592696Y-81233210D01*
X126512696Y-83773210D02*
X126512696Y-81233210D01*
X126512696Y-83773210D02*
X126512696Y-81233210D01*
X126512696Y-83773210D02*
X123972696Y-83773210D01*
X126512696Y-81233210D02*
X129052696Y-81233210D01*
X123972696Y-83773210D02*
X123972696Y-81233210D01*
X123972696Y-83773210D02*
X123972696Y-81233210D01*
X123972696Y-83773210D02*
X121432696Y-83773210D01*
X123972696Y-81233210D02*
X126512696Y-81233210D01*
X121432696Y-83773210D02*
X121432696Y-81233210D01*
X121432696Y-83773210D02*
X121432696Y-81233210D01*
X121432696Y-83773210D02*
X118892696Y-83773210D01*
X121432696Y-81233210D02*
X123972696Y-81233210D01*
X118892696Y-83773210D02*
X118892696Y-81233210D01*
X118892696Y-81233210D02*
X121432696Y-81233210D01*
%TD*%
D14*
%TO.C,LaserPointer ver.A*%
X104140000Y-114300000D03*
X106680000Y-114300000D03*
X109220000Y-114300000D03*
X111760000Y-114300000D03*
X114300000Y-114300000D03*
X116840000Y-114300000D03*
X119380000Y-114300000D03*
X121920000Y-114300000D03*
X124460000Y-114300000D03*
X127000000Y-114300000D03*
X129540000Y-114300000D03*
X132080000Y-114300000D03*
X134620000Y-114300000D03*
X137160000Y-114300000D03*
X139700000Y-114300000D03*
X139700000Y-91440000D03*
X137160000Y-91440000D03*
X134620000Y-91440000D03*
X132080000Y-91440000D03*
X129540000Y-91440000D03*
X127000000Y-91440000D03*
X124460000Y-91440000D03*
X121920000Y-91440000D03*
X119380000Y-91440000D03*
X116840000Y-91440000D03*
X114300000Y-91440000D03*
X111760000Y-91440000D03*
X109220000Y-91440000D03*
X106680000Y-91440000D03*
X104140000Y-91440000D03*
%TD*%
M02*
